<svg width="125" height="30" viewBox="0 0 125 30" fill="none" xmlns="http://www.w3.org/2000/svg">
<path d="M10.5222 29.28C7.72219 29.28 5.41552 28.6533 3.60219 27.4C1.81552 26.12 0.922188 24.3333 0.922188 22.04C0.922188 21.8 0.948854 21.44 1.00219 20.96H6.72219C6.61552 22.08 6.90885 23 7.60219 23.72C8.32219 24.44 9.36219 24.8 10.7222 24.8C12.0822 24.8 13.1489 24.52 13.9222 23.96C14.7222 23.3733 15.1222 22.5467 15.1222 21.48C15.1222 20.4933 14.7089 19.7067 13.8822 19.12C13.0822 18.5333 11.8155 17.88 10.0822 17.16C8.48219 16.4933 7.17552 15.88 6.16219 15.32C5.17552 14.76 4.32219 13.9867 3.60219 13C2.90885 11.9867 2.56219 10.72 2.56219 9.2C2.56219 7.46667 3.00219 5.96 3.88219 4.68C4.78885 3.4 6.01552 2.41333 7.56219 1.72C9.13552 1.02667 10.9222 0.68 12.9222 0.68C14.8955 0.68 16.6022 1.01333 18.0422 1.68C19.5089 2.32 20.6022 3.24 21.3222 4.44C22.0689 5.64 22.3889 7.04 22.2822 8.64H16.3222L16.3622 8.2C16.3622 7.32 16.0289 6.6 15.3622 6.04C14.7222 5.48 13.8155 5.2 12.6422 5.2C11.3889 5.2 10.3755 5.49333 9.60219 6.08C8.82885 6.66667 8.44219 7.46667 8.44219 8.48C8.44219 9.14667 8.65552 9.73333 9.08219 10.24C9.53552 10.72 10.0822 11.1467 10.7222 11.52C11.3622 11.8667 12.2822 12.32 13.4822 12.88C15.0555 13.5733 16.3489 14.2267 17.3622 14.84C18.3755 15.4533 19.2422 16.2667 19.9622 17.28C20.6822 18.2933 21.0422 19.5333 21.0422 21C21.0422 22.6 20.6022 24.0267 19.7222 25.28C18.8689 26.5333 17.6422 27.52 16.0422 28.24C14.4689 28.9333 12.6289 29.28 10.5222 29.28ZM41.9163 23.68H30.7563L27.9963 29H22.1162L37.1163 1.04H43.6363L48.7163 29H42.7963L41.9163 23.68ZM41.1963 19.32L39.1963 7.48L33.0363 19.32H41.1963ZM74.1691 1.08L73.3691 5.48H61.7691L60.4891 12.8H69.3691L68.6091 17.12H59.6891L57.6091 29H51.9691L56.9291 1.08H74.1691ZM90.76 23.68H79.6L76.84 29H70.96L85.96 1.04H92.48L97.56 29H91.64L90.76 23.68ZM90.04 19.32L88.04 7.48L81.88 19.32H90.04ZM116.253 1.08C119.106 1.08 121.266 1.73333 122.733 3.04C124.199 4.32 124.933 6 124.933 8.08C124.933 8.58667 124.893 9.10667 124.813 9.64C124.493 11.4533 123.666 13.1067 122.333 14.6C121.026 16.0667 119.266 17.0933 117.053 17.68L121.733 29H115.213L111.053 18.12H108.373L106.453 29H100.813L105.773 1.08H116.253ZM119.053 9.76C119.106 9.28 119.133 8.96 119.133 8.8C119.133 7.78667 118.813 7 118.173 6.44C117.533 5.88 116.559 5.6 115.253 5.6H110.573L109.093 13.96H113.773C115.266 13.96 116.453 13.5867 117.333 12.84C118.239 12.0933 118.813 11.0667 119.053 9.76Z" fill="#F4A261"/>
</svg>
