<svg width="171" height="70" viewBox="0 0 171 70" fill="none" xmlns="http://www.w3.org/2000/svg">
<path d="M17.7894 69.96C14.7174 69.96 11.9014 69.224 9.34138 67.752C6.78138 66.216 4.73338 64.2 3.19738 61.704C1.72538 59.144 0.989375 56.296 0.989375 53.16V45.48H15.2934V53.64C15.2934 54.28 15.5174 54.888 15.9654 55.464C16.4774 55.976 17.0854 56.232 17.7894 56.232C18.4934 56.232 19.1014 55.976 19.6134 55.464C20.1254 54.888 20.3814 54.28 20.3814 53.64C20.3814 53.064 20.3174 52.584 20.1894 52.2C20.0614 51.752 19.7734 51.176 19.3254 50.472L7.80538 31.656C6.97338 30.248 6.01338 28.776 4.92538 27.24C3.83738 25.64 2.90938 24.072 2.14138 22.536C1.37338 20.936 0.989375 19.432 0.989375 18.024V17.64C0.989375 14.504 1.72538 11.688 3.19738 9.192C4.73338 6.632 6.78138 4.616 9.34138 3.144C11.9014 1.608 14.7174 0.839996 17.7894 0.839996C20.9254 0.839996 23.7414 1.608 26.2374 3.144C28.7974 4.616 30.8134 6.632 32.2854 9.192C33.8214 11.688 34.5894 14.504 34.5894 17.64V24.456H20.3814V17.064C20.3814 16.36 20.1254 15.752 19.6134 15.24C19.1014 14.728 18.4934 14.472 17.7894 14.472C17.1494 14.472 16.5734 14.728 16.0614 15.24C15.5494 15.752 15.2934 16.36 15.2934 17.064C15.2934 17.512 15.3574 17.896 15.4854 18.216C15.6774 18.472 15.9334 18.888 16.2534 19.464L28.1574 38.376C29.6294 40.744 31.0694 43.112 32.4774 45.48C33.8854 47.784 34.5894 50.216 34.5894 52.776V53.16C34.5894 56.296 33.8214 59.144 32.2854 61.704C30.8134 64.2 28.7974 66.216 26.2374 67.752C23.7414 69.224 20.9254 69.96 17.7894 69.96ZM36.5206 69L44.6806 1.8H61.9606L70.1206 69H56.6806L55.8166 56.616H50.7286L50.0566 69H36.5206ZM51.4966 42.216H55.1446L54.1846 21H52.5526L51.4966 42.216ZM74.0206 69V1.8H100.901V16.2H88.3246V28.2H96.6766V42.6H88.3246V69H74.0206ZM99.8956 69L108.056 1.8H125.336L133.496 69H120.056L119.192 56.616H114.104L113.432 69H99.8956ZM114.872 42.216H118.52L117.56 21H115.928L114.872 42.216Z" fill="#E5CE3B"/>
<path d="M137.396 69V1.8H152.084C155.54 1.8 158.708 2.664 161.588 4.392C164.468 6.056 166.74 8.328 168.404 11.208C170.132 14.024 170.996 17.192 170.996 20.712V31.944C170.996 33.608 170.58 35.784 169.748 38.472C168.916 41.096 167.348 43.464 165.044 45.576V47.016L170.996 69H156.596L152.564 50.472H151.7V69H137.396ZM151.7 38.088H152.468C153.62 38.088 154.58 37.768 155.348 37.128C156.18 36.424 156.596 34.696 156.596 31.944V20.424C156.596 17.736 156.18 16.04 155.348 15.336C154.58 14.632 153.62 14.28 152.468 14.28H151.7V38.088Z" fill="black"/>
</svg>
