<svg width="201" height="47" viewBox="0 0 201 47" fill="none" xmlns="http://www.w3.org/2000/svg">
<path d="M16.2355 46.448C11.7555 46.448 8.06483 45.4453 5.1635 43.44C2.30483 41.392 0.8755 38.5333 0.8755 34.864C0.8755 34.48 0.918167 33.904 1.0035 33.136H10.1555C9.98483 34.928 10.4542 36.4 11.5635 37.552C12.7155 38.704 14.3795 39.28 16.5555 39.28C18.7315 39.28 20.4382 38.832 21.6755 37.936C22.9555 36.9973 23.5955 35.6747 23.5955 33.968C23.5955 32.3893 22.9342 31.1307 21.6115 30.192C20.3315 29.2533 18.3048 28.208 15.5315 27.056C12.9715 25.9893 10.8808 25.008 9.2595 24.112C7.68083 23.216 6.3155 21.9787 5.1635 20.4C4.05417 18.7787 3.4995 16.752 3.4995 14.32C3.4995 11.5467 4.2035 9.136 5.6115 7.088C7.06217 5.04 9.02483 3.46133 11.4995 2.352C14.0168 1.24267 16.8755 0.688 20.0755 0.688C23.2328 0.688 25.9635 1.22133 28.2675 2.288C30.6142 3.312 32.3635 4.784 33.5155 6.704C34.7102 8.624 35.2222 10.864 35.0515 13.424H25.5155L25.5795 12.72C25.5795 11.312 25.0462 10.16 23.9795 9.264C22.9555 8.368 21.5048 7.92 19.6275 7.92C17.6222 7.92 16.0008 8.38933 14.7635 9.328C13.5262 10.2667 12.9075 11.5467 12.9075 13.168C12.9075 14.2347 13.2488 15.1733 13.9315 15.984C14.6568 16.752 15.5315 17.4347 16.5555 18.032C17.5795 18.5867 19.0515 19.312 20.9715 20.208C23.4888 21.3173 25.5582 22.3627 27.1795 23.344C28.8008 24.3253 30.1875 25.6267 31.3395 27.248C32.4915 28.8693 33.0675 30.8533 33.0675 33.2C33.0675 35.76 32.3635 38.0427 30.9555 40.048C29.5902 42.0533 27.6275 43.632 25.0675 44.784C22.5502 45.8933 19.6062 46.448 16.2355 46.448ZM66.766 37.488H48.91L44.494 46H35.086L59.086 1.264H69.518L77.646 46H68.174L66.766 37.488ZM65.614 30.512L62.414 11.568L52.558 30.512H65.614ZM118.671 1.328L117.391 8.368H98.8305L96.7825 20.08H110.991L109.775 26.992H95.5025L92.1745 46H83.1505L91.0865 1.328H118.671ZM145.516 37.488H127.66L123.244 46H113.836L137.836 1.264H148.268L156.396 46H146.924L145.516 37.488ZM144.364 30.512L141.164 11.568L131.308 30.512H144.364ZM186.605 1.328C191.17 1.328 194.626 2.37333 196.972 4.464C199.319 6.512 200.493 9.2 200.493 12.528C200.493 13.3387 200.429 14.1707 200.301 15.024C199.789 17.9253 198.466 20.5707 196.333 22.96C194.242 25.3067 191.426 26.9493 187.885 27.888L195.373 46H184.941L178.285 28.592H173.997L170.925 46H161.901L169.837 1.328H186.605ZM191.085 15.216C191.17 14.448 191.213 13.936 191.213 13.68C191.213 12.0587 190.701 10.8 189.677 9.904C188.653 9.008 187.095 8.56 185.005 8.56H177.517L175.149 21.936H182.637C185.026 21.936 186.925 21.3387 188.333 20.144C189.783 18.9493 190.701 17.3067 191.085 15.216Z" fill="#F5F6FA"/>
</svg>
