<svg width="228" height="93" viewBox="0 0 228 93" fill="none" xmlns="http://www.w3.org/2000/svg">
<path d="M23.0525 92.28C18.9565 92.28 15.2018 91.2987 11.7885 89.336C8.37517 87.288 5.6445 84.6 3.5965 81.272C1.63383 77.8587 0.6525 74.0613 0.6525 69.88V59.64H19.7245V70.52C19.7245 71.3733 20.0232 72.184 20.6205 72.952C21.3032 73.6347 22.1138 73.976 23.0525 73.976C23.9912 73.976 24.8018 73.6347 25.4845 72.952C26.1672 72.184 26.5085 71.3733 26.5085 70.52C26.5085 69.752 26.4232 69.112 26.2525 68.6C26.0818 68.0027 25.6978 67.2347 25.1005 66.296L9.7405 41.208C8.63117 39.3307 7.35117 37.368 5.9005 35.32C4.44983 33.1867 3.2125 31.096 2.1885 29.048C1.1645 26.9147 0.6525 24.9093 0.6525 23.032V22.52C0.6525 18.3387 1.63383 14.584 3.5965 11.256C5.6445 7.84266 8.37517 5.15466 11.7885 3.19199C15.2018 1.14399 18.9565 0.119995 23.0525 0.119995C27.2338 0.119995 30.9885 1.14399 34.3165 3.19199C37.7298 5.15466 40.4178 7.84266 42.3805 11.256C44.4285 14.584 45.4525 18.3387 45.4525 22.52V31.608H26.5085V21.752C26.5085 20.8133 26.1672 20.0027 25.4845 19.32C24.8018 18.6373 23.9912 18.296 23.0525 18.296C22.1992 18.296 21.4312 18.6373 20.7485 19.32C20.0658 20.0027 19.7245 20.8133 19.7245 21.752C19.7245 22.3493 19.8098 22.8613 19.9805 23.288C20.2365 23.6293 20.5778 24.184 21.0045 24.952L36.8765 50.168C38.8392 53.3253 40.7592 56.4827 42.6365 59.64C44.5138 62.712 45.4525 65.9547 45.4525 69.368V69.88C45.4525 74.0613 44.4285 77.8587 42.3805 81.272C40.4178 84.6 37.7298 87.288 34.3165 89.336C30.9885 91.2987 27.2338 92.28 23.0525 92.28ZM48.0275 91L58.9075 1.39999H81.9475L92.8275 91H74.9075L73.7555 74.488H66.9715L66.0755 91H48.0275ZM67.9955 55.288H72.8595L71.5795 27H69.4035L67.9955 55.288ZM98.0275 91V1.39999H133.868V20.6H117.1V36.6H128.236V55.8H117.1V91H98.0275ZM132.528 91L143.408 1.39999H166.448L177.328 91H159.408L158.256 74.488H151.472L150.576 91H132.528ZM152.496 55.288H157.36L156.08 27H153.904L152.496 55.288Z" fill="#E5CE3B"/>
<path d="M182.528 91V1.39999H202.112C206.72 1.39999 210.944 2.55199 214.784 4.856C218.624 7.07466 221.653 10.104 223.872 13.944C226.176 17.6987 227.328 21.9227 227.328 26.616V41.592C227.328 43.8107 226.773 46.712 225.664 50.296C224.554 53.7947 222.464 56.952 219.392 59.768V61.688L227.328 91H208.128L202.752 66.296H201.6V91H182.528ZM201.6 49.784H202.624C204.16 49.784 205.44 49.3573 206.464 48.504C207.573 47.5653 208.128 45.2613 208.128 41.592V26.232C208.128 22.648 207.573 20.3867 206.464 19.448C205.44 18.5093 204.16 18.04 202.624 18.04H201.6V49.784Z" fill="black"/>
</svg>
