<svg width="201" height="200" viewBox="0 0 201 200" fill="none" xmlns="http://www.w3.org/2000/svg">
<path d="M166.92 97.924C129.996 76.608 70.3281 76.608 33.6441 97.924C-3.03994 119.24 -2.84394 153.808 34.0761 175.124C70.9961 196.44 130.672 196.444 167.356 175.124C204.04 153.804 203.844 119.244 166.92 97.924Z" fill="#6C757D"/>
<path d="M143.804 31.2521L145.052 30.5281L158.236 38.1121V39.5561L143.804 31.2521Z" fill="#F5F5F5"/>
<path d="M143.804 31.252L158.236 39.556V41.2L143.8 32.908L143.804 31.252Z" fill="#E0E0E0"/>
<path d="M159.604 40.3322L160.852 39.6082L174.036 47.1922V48.6322L159.604 40.3322Z" fill="#F5F5F5"/>
<path d="M159.604 40.332L174.036 48.632V50.28L159.6 41.988L159.604 40.332Z" fill="#E0E0E0"/>
<path d="M143.876 17.3961L145.12 16.6721L145.048 65.7641L143.8 66.4881L143.876 17.3961Z" fill="#F0F0F0"/>
<path d="M143.8 66.4882L145.048 65.7642L159.408 74.0082L158.16 74.7322L143.8 66.4882Z" fill="#F5F5F5"/>
<path d="M142.444 14.9202L159.676 24.8202L159.592 77.2202L142.36 67.3202L142.444 14.9202ZM158.16 74.7322L158.236 25.6402L143.876 17.3962L143.8 66.4882L158.16 74.7322Z" fill="#E0E0E0"/>
<path d="M142.444 14.92L143.692 14.196L160.924 24.096L159.676 24.82L142.444 14.92Z" fill="#F5F5F5"/>
<path d="M159.676 24.8199L160.924 24.0959L160.84 76.4839L159.592 77.2079L159.676 24.8199Z" fill="#F0F0F0"/>
<path d="M159.676 26.476L160.924 25.752L160.848 74.844L159.6 75.568L159.676 26.476Z" fill="#F0F0F0"/>
<path d="M159.6 75.568L160.848 74.844L175.208 83.088L173.96 83.812L159.6 75.568Z" fill="#F5F5F5"/>
<path d="M158.244 24L175.476 33.9L175.392 86.3L158.16 76.4L158.244 24ZM173.96 83.812L174.036 34.72L159.676 26.476L159.6 75.568L173.96 83.812Z" fill="#E0E0E0"/>
<path d="M158.244 24.0001L159.492 23.2761L176.724 33.1761L175.476 33.9001L158.244 24.0001Z" fill="#F5F5F5"/>
<path d="M175.476 33.9L176.724 33.176L176.64 85.564L175.392 86.288L175.476 33.9Z" fill="#F0F0F0"/>
<path d="M181.944 143.824C179.212 142.248 174.8 142.248 172.088 143.824C169.376 145.4 169.388 147.96 172.12 149.536C174.852 151.112 179.264 151.112 181.976 149.536C184.688 147.96 184.676 145.4 181.944 143.824Z" fill="#EBEBEB"/>
<path d="M156.5 132.1C144.5 125.164 125.064 125.164 113.124 132.1C102.576 138.232 101.404 147.724 109.56 154.64C102.976 154.24 96.1561 155.488 91.1281 158.408C82.3041 163.536 82.3521 171.848 91.2321 176.976C100.112 182.104 114.464 182.104 123.288 176.976C130.308 172.896 131.688 166.8 127.516 161.896C137.632 163.36 148.764 161.804 156.644 157.228C168.58 150.288 168.52 139.04 156.5 132.1Z" fill="#EBEBEB"/>
<path d="M92.124 134.884L44.06 162.632C43.8167 162.772 43.5408 162.846 43.26 162.846C42.9791 162.846 42.7032 162.772 42.46 162.632L39.024 160.632C38.9392 160.583 38.8688 160.513 38.8199 160.428C38.7709 160.344 38.7451 160.248 38.7451 160.15C38.7451 160.052 38.7709 159.956 38.8199 159.871C38.8688 159.787 38.9392 159.717 39.024 159.668L87.14 131.932C87.3832 131.791 87.6591 131.718 87.94 131.718C88.2208 131.718 88.4967 131.791 88.74 131.932L92.124 133.9C92.2136 133.947 92.2886 134.018 92.341 134.105C92.3933 134.191 92.421 134.291 92.421 134.392C92.421 134.493 92.3933 134.593 92.341 134.679C92.2886 134.766 92.2136 134.837 92.124 134.884Z" fill="#EBEBEB"/>
<path d="M87.9321 128.56L29.244 162.192C28.993 162.337 28.7081 162.414 28.418 162.414C28.128 162.414 27.843 162.337 27.592 162.192L24.048 160.148C23.9618 160.097 23.8903 160.024 23.8407 159.937C23.791 159.85 23.7649 159.752 23.7649 159.652C23.7649 159.552 23.791 159.453 23.8407 159.366C23.8903 159.279 23.9618 159.207 24.048 159.156L82.788 125.556C83.0401 125.409 83.3265 125.332 83.618 125.332C83.9096 125.332 84.196 125.409 84.448 125.556L87.9321 127.584C88.0156 127.635 88.0847 127.707 88.1326 127.792C88.1805 127.878 88.2057 127.974 88.2057 128.072C88.2057 128.17 88.1805 128.266 88.1326 128.352C88.0847 128.437 88.0156 128.509 87.9321 128.56Z" fill="#EBEBEB"/>
<path d="M138.1 52.0399C137.911 51.7057 137.634 51.4292 137.3 51.2399L124.5 43.7679C123.556 43.2279 121.3 43.9639 121.3 45.4839V59.3679C121.3 59.7399 121.399 60.1053 121.586 60.427C121.773 60.7487 122.041 61.0153 122.364 61.1999L130.692 65.9599L129.252 65.1359L129.944 67.0959C129.955 67.1235 129.976 67.1459 130.003 67.1585C130.029 67.1712 130.06 67.1731 130.088 67.1639C130.212 67.1039 130.752 66.8119 131.064 66.6079H131.084C131.094 66.5996 131.104 66.5902 131.112 66.5799L131.28 66.3079L135.156 68.6559C135.468 68.855 135.826 68.9676 136.196 68.9819C136.565 68.9962 136.932 68.9119 137.258 68.7375C137.584 68.5631 137.857 68.305 138.05 67.9898C138.243 67.6745 138.349 67.3135 138.356 66.9439V53.0719C138.359 52.7118 138.271 52.3568 138.1 52.0399Z" fill="#F5F6FA"/>
<path opacity="0.2" d="M131.16 66.5719C131.152 66.5822 131.142 66.5916 131.132 66.5999H131.112C130.8 66.8039 130.26 67.0959 130.136 67.1559C130.164 67.1506 130.188 67.1348 130.204 67.1119L130.872 66.0279L130.74 65.9519L131.328 66.2879L131.16 66.5719Z" fill="white"/>
<path opacity="0.4" d="M136.02 53.2318C135.884 52.9586 135.692 52.7173 135.456 52.5238C135.376 52.4584 135.29 52.3995 135.2 52.3478L122.4 44.8758C122.293 44.8149 122.172 44.7832 122.049 44.7838C121.925 44.7844 121.805 44.8173 121.698 44.8793C121.592 44.9412 121.503 45.03 121.442 45.1368C121.38 45.2436 121.348 45.3646 121.348 45.4878C121.348 43.9678 123.588 43.2318 124.548 43.7718L137.348 51.2438C137.682 51.4331 137.959 51.7096 138.148 52.0438L136.02 53.2318Z" fill="white"/>
<path opacity="0.2" d="M136.256 68.04V54.176C136.262 54.0934 136.262 54.0105 136.256 53.928C136.222 53.6854 136.147 53.4502 136.036 53.232L138.132 52.032C138.309 52.3474 138.402 52.7025 138.404 53.064V66.928C138.397 67.2976 138.291 67.6586 138.098 67.9738C137.905 68.2891 137.632 68.5472 137.306 68.7215C136.98 68.8959 136.613 68.9803 136.244 68.966C135.874 68.9516 135.516 68.8391 135.204 68.64C135.31 68.7017 135.43 68.7344 135.553 68.7349C135.676 68.7355 135.796 68.7037 135.903 68.643C136.009 68.5822 136.098 68.4945 136.16 68.3887C136.222 68.2829 136.255 68.1626 136.256 68.04Z" fill="white"/>
<path d="M131.632 58.4598C131.959 57.9695 132.123 57.3886 132.1 56.7998C132.096 56.6044 132.08 56.4094 132.052 56.2158C132.014 55.9454 131.956 55.6781 131.88 55.4158C131.737 54.9133 131.543 54.4267 131.3 53.9638C131.224 53.8158 131.144 53.6718 131.056 53.5278C130.887 53.2474 130.702 52.9776 130.5 52.7198C130.38 52.5678 130.252 52.4198 130.124 52.2798C129.747 51.8681 129.31 51.5149 128.828 51.2318C126.324 49.7838 124.748 51.9918 125.996 55.2078L127.028 57.8758L128.796 62.4478L131.632 58.4598ZM130.432 55.9238C130.432 56.9358 129.716 57.3438 128.832 56.8358C128.602 56.6983 128.394 56.5286 128.212 56.3318L128.168 56.2798C127.946 56.0296 127.758 55.7512 127.608 55.4518C127.463 55.1716 127.357 54.8728 127.292 54.5638C127.259 54.4059 127.242 54.2451 127.24 54.0838C127.24 53.0718 127.964 52.6678 128.84 53.1758C129.07 53.3133 129.279 53.4831 129.46 53.6798C129.589 53.8195 129.707 53.9693 129.812 54.1278C129.893 54.244 129.965 54.3656 130.028 54.4918C130.181 54.773 130.293 55.0748 130.36 55.3878C130.402 55.5636 130.424 55.7433 130.428 55.9238H130.432Z" fill="#2C2C2C"/>
<path d="M84.9519 14.4678C84.5839 13.1638 81.9359 10.6878 79.3039 10.7398C79.0511 10.7481 78.8013 10.7967 78.5639 10.8838L27.4279 39.9758C26.6812 40.4082 26.0602 41.0278 25.626 41.7735C25.1918 42.5191 24.9595 43.365 24.9519 44.2278V154.852C24.9519 157.652 28.2039 160.36 31.2519 159.064H31.2759C31.3432 159.042 31.4088 159.016 31.4719 158.984L82.6159 129.84C83.3654 129.411 83.9884 128.792 84.4218 128.046C84.8552 127.299 85.0836 126.451 85.0839 125.588V14.9998C85.0824 14.8146 85.0372 14.6323 84.9519 14.4678Z" fill="#F5F6FA"/>
<path d="M32.0999 55.92C32.0995 55.4883 32.2138 55.0642 32.4309 54.6911C32.6481 54.3179 32.9603 54.0091 33.3359 53.796L80.8119 26.8C80.9977 26.6946 81.2079 26.6396 81.4216 26.6406C81.6353 26.6416 81.845 26.6986 82.0299 26.8058C82.2147 26.913 82.3683 27.0667 82.4753 27.2516C82.5823 27.4366 82.6391 27.6463 82.6399 27.86V117.06C82.6384 117.492 82.5235 117.916 82.3065 118.289C82.0896 118.663 81.7783 118.973 81.4039 119.188L33.9159 146.228C33.7305 146.332 33.5213 146.385 33.3089 146.383C33.0965 146.382 32.8883 146.324 32.7048 146.217C32.5214 146.11 32.3691 145.957 32.263 145.773C32.1569 145.589 32.1006 145.38 32.0999 145.168V55.92Z" fill="#37474F"/>
<path opacity="0.3" d="M24.9519 44.228V154.852C24.9519 157.652 28.2039 160.36 31.2519 159.064H31.2759C31.092 159.136 30.8931 159.161 30.6971 159.138C30.501 159.114 30.3138 159.043 30.1519 158.93C29.9901 158.816 29.8587 158.665 29.7694 158.489C29.6801 158.313 29.6356 158.117 29.6399 157.92V47.284C29.6435 46.322 29.9316 45.3826 30.4679 44.584L25.4599 42.084C25.1296 42.7507 24.9559 43.484 24.9519 44.228Z" fill="black"/>
<path opacity="0.1" d="M79.3 10.7359C79.0472 10.7442 78.7974 10.7928 78.56 10.8799L27.428 39.9759C26.5736 40.4631 25.8874 41.1982 25.46 42.0839L30.468 44.5839C30.8832 43.9461 31.4421 43.4146 32.1 43.0319L83.256 13.9359C83.4004 13.8513 83.5609 13.7978 83.7273 13.7789C83.8936 13.76 84.0621 13.7762 84.2218 13.8263C84.3815 13.8764 84.529 13.9593 84.6548 14.0699C84.7805 14.1804 84.8817 14.3159 84.952 14.4679C84.588 13.1599 81.94 10.6839 79.3 10.7359Z" fill="white"/>
<path d="M63.6678 32.2039C64.0238 31.9959 64.3238 32.1599 64.3238 32.5719C64.3102 32.7982 64.2442 33.0182 64.1311 33.2147C64.0179 33.4111 63.8607 33.5786 63.6718 33.7039L53.6358 39.4959C53.2758 39.7039 52.9878 39.5279 52.9878 39.1159C52.9983 38.8915 53.0622 38.6727 53.1742 38.4779C53.2862 38.2831 53.4431 38.1179 53.6318 37.9959L63.6678 32.2039Z" fill="#263238"/>
<path d="M51.0558 39.4838C51.4158 39.2798 51.7038 39.4438 51.7078 39.8558C51.6959 40.0815 51.631 40.3012 51.5184 40.4971C51.4059 40.6931 51.2488 40.8598 51.0598 40.9838C50.6998 41.1918 50.4038 41.0198 50.4038 40.6078C50.4158 40.3822 50.4812 40.1627 50.5946 39.9673C50.7079 39.772 50.866 39.6062 51.0558 39.4838Z" fill="#263238"/>
<path d="M57.4799 31.3638C58.1959 30.9638 58.7759 31.2758 58.7759 32.1038C58.7533 32.554 58.6249 32.9925 58.4011 33.3838C58.1773 33.7751 57.8644 34.1081 57.4879 34.3558C56.7679 34.7558 56.1759 34.4318 56.1719 33.6078C56.1964 33.1569 56.3277 32.7182 56.5552 32.328C56.7826 31.9379 57.0996 31.6074 57.4799 31.3638Z" fill="#263238"/>
<path d="M57.4798 135.504C58.9438 134.66 60.1238 135.332 60.1278 137.012C60.0806 137.929 59.8181 138.823 59.3615 139.62C58.905 140.417 58.2672 141.095 57.4998 141.6C56.0358 142.44 54.8278 141.752 54.8198 140.072C54.8734 139.155 55.1421 138.264 55.6042 137.47C56.0664 136.677 56.7089 136.003 57.4798 135.504Z" fill="#263238"/>
<path d="M92.644 18.8918C92.304 17.6918 89.904 15.4598 87.512 15.5078C87.2837 15.5154 87.0581 15.5599 86.844 15.6398L40.42 42.0398C39.7425 42.4324 39.1791 42.9949 38.7855 43.6719C38.392 44.3489 38.1819 45.1168 38.176 45.8998V146.3C38.176 148.86 41.128 151.3 43.896 150.124C43.9564 150.104 44.0153 150.08 44.072 150.052L90.52 123.6C91.2004 123.211 91.7658 122.649 92.1592 121.971C92.5525 121.293 92.7598 120.524 92.76 119.74V19.3758C92.7581 19.2078 92.7185 19.0424 92.644 18.8918Z" fill="#455A64"/>
<path opacity="0.1" d="M38.1799 45.904V146.304C38.1799 148.864 41.1319 151.304 43.8999 150.128C43.7331 150.189 43.5541 150.209 43.3779 150.186C43.2017 150.163 43.0336 150.098 42.888 149.997C42.7423 149.895 42.6233 149.76 42.5412 149.602C42.459 149.445 42.416 149.27 42.4159 149.092V48.692C42.4195 47.8184 42.6811 46.9654 43.1679 46.24L38.6199 43.968C38.3292 44.5719 38.1787 45.2338 38.1799 45.904Z" fill="white"/>
<path opacity="0.2" d="M87.5161 15.5039C87.2878 15.5114 87.0622 15.556 86.8481 15.6359L40.4241 42.0359C39.6521 42.4811 39.0308 43.1469 38.6401 43.9479L43.1881 46.2199C43.5692 45.6409 44.0801 45.1588 44.6801 44.8119L91.1001 18.3999C91.2319 18.3251 91.3777 18.2781 91.5283 18.2618C91.679 18.2456 91.8314 18.2604 91.9761 18.3054C92.1208 18.3504 92.2548 18.4246 92.3697 18.5234C92.4846 18.6222 92.578 18.7436 92.6441 18.8799C92.3081 17.7039 89.9081 15.4559 87.5161 15.5039Z" fill="white"/>
<path d="M92.6441 18.892C92.579 18.7546 92.4864 18.6321 92.372 18.532C92.2576 18.432 92.1238 18.3565 91.979 18.3104C91.8342 18.2642 91.6814 18.2484 91.5302 18.2638C91.379 18.2792 91.2326 18.3256 91.1001 18.4L44.7001 44.8C44.0238 45.194 43.4615 45.7569 43.0682 46.4336C42.6748 47.1102 42.4639 47.8774 42.4561 48.66V149.06C42.4561 149.238 42.4991 149.413 42.5813 149.57C42.6635 149.728 42.7824 149.863 42.9281 149.965C43.0738 150.066 43.2418 150.131 43.418 150.154C43.5942 150.177 43.7733 150.157 43.9401 150.096C44.0005 150.076 44.0593 150.052 44.1161 150.024L90.5201 123.6C91.2004 123.211 91.7658 122.649 92.1592 121.971C92.5525 121.293 92.7598 120.524 92.7601 119.74V19.376C92.7582 19.208 92.7185 19.0426 92.6441 18.892Z" fill="#455A64"/>
<path d="M44.7319 54.924C44.7319 54.4962 44.8601 54.0782 45.0999 53.724C45.2803 53.4429 45.526 53.2097 45.8159 53.044L90.4639 27.656V118.184C90.464 118.562 90.3641 118.934 90.1745 119.261C89.9849 119.588 89.7121 119.86 89.3839 120.048L44.7319 145.492V54.924Z" fill="#455A64"/>
<path opacity="0.3" d="M44.7319 54.924C44.7319 54.4962 44.8601 54.0782 45.0999 53.724C45.2803 53.4429 45.526 53.2097 45.8159 53.044L90.4639 27.656V118.184C90.464 118.562 90.3641 118.934 90.1745 119.261C89.9849 119.588 89.7121 119.86 89.3839 120.048L44.7319 145.492V54.924Z" fill="black"/>
<path d="M87.76 24.208L87.764 25.344L89.204 24.512L89.2 23.376L87.76 24.208Z" fill="#F5F6FA"/>
<path d="M90.524 22.2319L87.428 24.0199V25.9159L90.524 24.1279V23.4799L90.744 23.3519V22.7519L90.664 22.7999L90.524 22.8799V22.2319ZM89.204 24.5119L87.764 25.3439V24.2079L89.204 23.3759V24.5119Z" fill="white"/>
<path d="M64.0161 37.5359L64.0201 39.4359L71.6161 35.0479L71.6081 33.1519L64.0161 37.5359Z" fill="white"/>
<path d="M83.22 26.448L83.228 28.344L86.032 26.724L86.028 24.824L83.22 26.448Z" fill="white"/>
<path d="M45.8359 48.304L45.8399 49.928L46.2239 49.708L46.2199 48.084L45.8359 48.304Z" fill="white"/>
<path d="M51.86 46.4559L53.512 45.4999L53.5081 43.5999L52.5521 44.1519L51.8521 44.5559L51.86 46.4559Z" fill="white"/>
<path d="M47.912 48.7319L51.008 46.9479L51.004 45.0479L47.908 46.8358L47.912 48.7319Z" fill="white"/>
<path d="M46.4759 49.5638L46.7039 49.4318L46.8599 49.3398L46.8559 47.4438L46.4719 47.6638L46.4759 49.5638Z" fill="white"/>
<path d="M45.204 50.2959L45.484 50.1359L45.588 50.0759L45.584 48.7959L45.4799 48.8559L45.2 49.0159L45.204 50.2959Z" fill="white"/>
<path d="M44.5721 50.6638L44.9521 50.4438L44.9481 49.5078L44.5681 49.7238L44.5721 50.6638Z" fill="white"/>
<path d="M86.6001 85.112L90.4641 82.908V81.084L86.5561 83.316L86.3441 74.844L90.4641 72.36V70.536L86.3001 73.048L86.1521 67.124L90.4641 64.292V62.46L86.1001 65.324L85.9561 59.2L84.0681 52.4L90.4681 46.592V43.424L83.5761 49.684L82.5001 39.88L90.4601 33.74V31.884L82.3121 38.172L81.7001 32.64L80.1001 33.548L80.7761 39.724L73.3401 51.016L67.3001 40.836L64.3281 42.528L65.8281 45.052L62.7001 48.76L61.5401 46.516L55.1401 52.516L55.7401 58.916L44.7521 65.26V67.084L57.4961 59.728L56.8481 52.836L60.7041 49.236L61.9841 51.712L66.5681 46.268L67.5801 47.976L52.7801 70.944L44.7361 78.144V80.04L52.7921 72.84L57.7841 79.556L53.5561 86.756L44.7561 95.956V99.2L49.5001 94.256L51.1001 100.184L51.1241 107.936L44.7481 111.012V112.844L51.0481 109.804L50.2041 120.204L47.6521 123.76L47.2921 133.016L44.7481 134.672V137.72L67.3721 123L67.0041 132.8L68.6041 131.896L69.0961 118.192L77.4601 113.2L78.2081 126.4L80.8601 124.888L80.5361 119.148L90.4641 112.676V110.844L80.4361 117.38L79.8241 106.648L87.3641 102.296L86.8161 92.536L90.4641 90.776V88.94L86.7401 90.74L86.6001 85.112ZM81.0001 41.744L82.0201 51.044L76.3921 56.16L74.1001 52.26L81.0001 41.744ZM65.5361 93.572L63.2081 94.916L61.0641 96.152L59.7241 87.24L65.4041 82.588L66.9401 92.76L65.5361 93.572ZM67.1961 94.436L67.9961 99.796L66.0361 100.74L65.6361 95.324L67.1961 94.436ZM59.4721 85.6L58.9121 81.888L67.3001 67.6L67.6521 67.284L68.2921 70.884L65.7561 73.536L66.3641 74.876L72.4001 68.548L71.7921 67.2L69.7921 69.304L69.1841 65.868L74.5001 61.052L75.1641 72.724L59.4721 85.6ZM75.2601 74.528L76.4601 95.728L74.0041 96.928L71.8681 77.308L75.2601 74.528ZM64.6001 54.984L66.3881 57.496L60.7241 66.264L58.9361 63.788L64.6001 54.984ZM54.2001 71.168L57.7001 65.672L60.3081 69.272L68.4201 56.704L65.8161 53.056L68.2921 49.216L73.8001 58.504L66.2361 65.376L65.9161 65.664L58.9361 77.548L54.2001 71.168ZM50.9721 92.744L55.0481 88.492L57.5401 84.252L59.7001 98.76L63.2001 96.74L64.0601 96.24L64.4361 101.512L52.6881 107.2V99.948L55.7601 97.596L55.4961 95.944L52.4721 98.264L50.9721 92.744ZM54.4121 128.432L48.8841 132.032L49.2001 123.896L51.7121 120.4L52.6321 109.08L55.3121 107.788L54.4121 128.432ZM67.4841 119.928L56.0081 127.396L56.9001 107L68.1441 101.572L67.4841 119.928ZM66.9721 81.332L70.3361 78.58L72.4161 97.696L69.6481 99.032L66.9721 81.332ZM69.1681 116.348L69.7001 100.8L76.5601 97.488L77.3601 111.44L69.1681 116.348ZM77.1121 58.708L82.5641 53.76L84.3921 60.376L84.5401 66.376L77.7881 70.8L77.1121 58.708ZM77.9121 72.58L84.5921 68.18L84.7401 74.016L78.2161 77.948L77.9121 72.58ZM78.3121 79.72L84.7801 75.82L84.9881 84.24L78.7681 87.792L78.3121 79.72ZM78.8681 89.56L85.0321 86.04L85.1721 91.544L79.1481 94.452L78.8681 89.56ZM79.7441 104.92L79.2521 96.232L85.2521 93.34L85.7081 101.484L79.7441 104.92Z" fill="#455A64"/>
<g opacity="0.3">
<path d="M86.6001 85.112L90.4641 82.908V81.084L86.5561 83.316L86.3441 74.844L90.4641 72.36V70.536L86.3001 73.048L86.1521 67.124L90.4641 64.292V62.46L86.1001 65.324L85.9561 59.2L84.0681 52.4L90.4681 46.592V43.424L83.5761 49.684L82.5001 39.88L90.4601 33.74V31.884L82.3121 38.172L81.7001 32.64L80.1001 33.548L80.7761 39.724L73.3401 51.016L67.3001 40.836L64.3281 42.528L65.8281 45.052L62.7001 48.76L61.5401 46.516L55.1401 52.516L55.7401 58.916L44.7521 65.26V67.084L57.4961 59.728L56.8481 52.836L60.7041 49.236L61.9841 51.712L66.5681 46.268L67.5801 47.976L52.7801 70.944L44.7361 78.144V80.04L52.7921 72.84L57.7841 79.556L53.5561 86.756L44.7561 95.956V99.2L49.5001 94.256L51.1001 100.184L51.1241 107.936L44.7481 111.012V112.844L51.0481 109.804L50.2041 120.204L47.6521 123.76L47.2921 133.016L44.7481 134.672V137.72L67.3721 123L67.0041 132.8L68.6041 131.896L69.0961 118.192L77.4601 113.2L78.2081 126.4L80.8601 124.888L80.5361 119.148L90.4641 112.676V110.844L80.4361 117.38L79.8241 106.648L87.3641 102.296L86.8161 92.536L90.4641 90.776V88.94L86.7401 90.74L86.6001 85.112ZM81.0001 41.744L82.0201 51.044L76.3921 56.16L74.1001 52.26L81.0001 41.744ZM65.5361 93.572L63.2081 94.916L61.0641 96.152L59.7241 87.24L65.4041 82.588L66.9401 92.76L65.5361 93.572ZM67.1961 94.436L67.9961 99.796L66.0361 100.74L65.6361 95.324L67.1961 94.436ZM59.4721 85.6L58.9121 81.888L67.3001 67.6L67.6521 67.284L68.2921 70.884L65.7561 73.536L66.3641 74.876L72.4001 68.548L71.7921 67.2L69.7921 69.304L69.1841 65.868L74.5001 61.052L75.1641 72.724L59.4721 85.6ZM75.2601 74.528L76.4601 95.728L74.0041 96.928L71.8681 77.308L75.2601 74.528ZM64.6001 54.984L66.3881 57.496L60.7241 66.264L58.9361 63.788L64.6001 54.984ZM54.2001 71.168L57.7001 65.672L60.3081 69.272L68.4201 56.704L65.8161 53.056L68.2921 49.216L73.8001 58.504L66.2361 65.376L65.9161 65.664L58.9361 77.548L54.2001 71.168ZM50.9721 92.744L55.0481 88.492L57.5401 84.252L59.7001 98.76L63.2001 96.74L64.0601 96.24L64.4361 101.512L52.6881 107.2V99.948L55.7601 97.596L55.4961 95.944L52.4721 98.264L50.9721 92.744ZM54.4121 128.432L48.8841 132.032L49.2001 123.896L51.7121 120.4L52.6321 109.08L55.3121 107.788L54.4121 128.432ZM67.4841 119.928L56.0081 127.396L56.9001 107L68.1441 101.572L67.4841 119.928ZM66.9721 81.332L70.3361 78.58L72.4161 97.696L69.6481 99.032L66.9721 81.332ZM69.1681 116.348L69.7001 100.8L76.5601 97.488L77.3601 111.44L69.1681 116.348ZM77.1121 58.708L82.5641 53.76L84.3921 60.376L84.5401 66.376L77.7881 70.8L77.1121 58.708ZM77.9121 72.58L84.5921 68.18L84.7401 74.016L78.2161 77.948L77.9121 72.58ZM78.3121 79.72L84.7801 75.82L84.9881 84.24L78.7681 87.792L78.3121 79.72ZM78.8681 89.56L85.0321 86.04L85.1721 91.544L79.1481 94.452L78.8681 89.56ZM79.7441 104.92L79.2521 96.232L85.2521 93.34L85.7081 101.484L79.7441 104.92Z" fill="white"/>
</g>
<path d="M99.6438 88.4599C100.008 88.2519 100.296 88.4199 100.3 88.8319L100.324 97.7559C100.312 97.9811 100.247 98.2002 100.134 98.3955C100.022 98.5908 99.8647 98.7568 99.6758 98.8799L78.5558 111.072L78.5278 100.652L99.6438 88.4599Z" fill="#F5F6FA"/>
<g opacity="0.3">
<path d="M99.6438 88.4599C100.008 88.2519 100.296 88.4199 100.3 88.8319L100.324 97.7559C100.312 97.9811 100.247 98.2002 100.134 98.3955C100.022 98.5908 99.8647 98.7568 99.6758 98.8799L78.5558 111.072L78.5278 100.652L99.6438 88.4599Z" fill="white"/>
</g>
<path d="M98.8719 95.8521L98.8759 96.568L83.3199 105.552L83.3159 104.832L98.8719 95.8521Z" fill="#6C757D"/>
<path d="M89.6478 102.708L89.6518 103.428L83.3238 107.08L83.3198 106.364L89.6478 102.708Z" fill="white"/>
<path d="M98.868 94.324L98.872 95.044L83.316 104.024L83.312 103.308L98.868 94.324Z" fill="#6C757D"/>
<path d="M98.8639 92.7959V93.5119L83.3119 102.496L83.3079 101.776L98.8639 92.7959Z" fill="#6C757D"/>
<path d="M94.7038 92.948L94.7078 94.384L83.3038 100.964L83.2998 99.532L94.7038 92.948Z" fill="white"/>
<path d="M72.872 97.068C75.344 95.64 77.82 95.296 79.716 96.376C83.204 98.376 83.532 104.548 80.48 110.732L72.952 125.976L65.372 119.456C62.288 116.812 62.572 110.256 66.048 104.256C67.928 101.008 70.4 98.496 72.872 97.068Z" fill="#F5F6FA"/>
<path d="M78.7081 111.486C81.9224 105.954 81.9314 99.9613 78.7282 98.1C75.525 96.2387 70.3226 99.2141 67.1083 104.746C63.894 110.277 63.885 116.27 67.0882 118.132C70.2914 119.993 75.4938 117.018 78.7081 111.486Z" fill="#455A64"/>
<path d="M72.9398 117.564C75.2478 116.228 77.3398 113.928 78.8198 111.3C78.4156 110.97 77.9416 110.736 77.4336 110.616C76.9256 110.496 76.397 110.493 75.8878 110.608L74.7878 110.856L71.2998 111.6L68.1598 113.96C67.6118 114.373 67.1611 114.901 66.8397 115.507C66.5183 116.113 66.334 116.783 66.2998 117.468V117.516C67.7958 119.004 70.2118 119.136 72.9398 117.564Z" fill="#F5F6FA"/>
<path opacity="0.2" d="M72.9398 117.564C75.2478 116.228 77.3398 113.928 78.8198 111.3C78.4156 110.97 77.9416 110.736 77.4336 110.616C76.9256 110.496 76.397 110.493 75.8878 110.608L74.7878 110.856L71.2998 111.6L68.1598 113.96C67.6118 114.373 67.1611 114.901 66.8397 115.507C66.5183 116.113 66.334 116.783 66.2998 117.468V117.516C67.7958 119.004 70.2118 119.136 72.9398 117.564Z" fill="black"/>
<path d="M77.7919 107.764C78.3233 107.382 78.6929 106.816 78.8284 106.176C78.9638 105.536 78.8552 104.868 78.5239 104.304C78.8208 104.17 79.0644 103.94 79.2159 103.652C79.2741 103.511 79.2907 103.356 79.2638 103.206C79.2369 103.055 79.1675 102.916 79.0639 102.804C78.9546 102.698 78.8176 102.626 78.6689 102.596C78.5201 102.565 78.3658 102.578 78.2239 102.632C78.3015 102.405 78.3015 102.159 78.2241 101.933C78.1466 101.706 77.996 101.512 77.7959 101.38C77.5912 101.268 77.3542 101.23 77.1247 101.272C76.8953 101.314 76.6873 101.434 76.5359 101.612C76.5415 101.464 76.4988 101.319 76.4144 101.197C76.33 101.076 76.2083 100.986 76.0679 100.94C75.7787 100.864 75.473 100.884 75.1959 100.996C74.9159 101.092 74.6519 101.232 74.3679 101.32C73.8824 101.441 73.3842 101.504 72.8839 101.508C72.3792 101.519 71.8854 101.656 71.4479 101.908C71.2074 102.055 71.022 102.278 70.9201 102.541C70.8182 102.804 70.8055 103.093 70.8839 103.364C70.8123 103.272 70.7222 103.197 70.6195 103.142C70.5168 103.088 70.4038 103.056 70.2879 103.048C70.1732 103.045 70.0592 103.066 69.9536 103.111C69.848 103.156 69.7533 103.223 69.6759 103.308C69.9879 103.5 70.2879 103.708 70.6039 103.904C70.4249 103.853 70.2342 103.863 70.0613 103.931C69.8884 104 69.7431 104.124 69.6479 104.284C69.4999 104.598 69.4417 104.947 69.4799 105.292C69.5216 106.604 69.7547 107.903 70.1719 109.148C70.3839 109.792 70.6959 110.472 71.3039 110.768L77.7919 107.764Z" fill="#263238"/>
<path d="M74.4759 110.86L74.34 112.4C74.3333 112.518 74.3626 112.635 74.4239 112.736C74.5101 112.897 74.5437 113.08 74.52 113.261C74.4964 113.442 74.4166 113.611 74.2919 113.744C74.0921 113.891 73.8517 113.972 73.6039 113.976C73.1354 114.001 72.6668 113.927 72.229 113.758C71.7912 113.589 71.3942 113.329 71.0639 112.996C70.9966 112.926 70.9441 112.843 70.9097 112.753C70.8753 112.662 70.8598 112.565 70.8639 112.468L70.9639 108.572L74.4759 110.86Z" fill="#FFA8A7"/>
<path opacity="0.3" d="M71.2719 108.772L74.4719 110.86L74.3519 112.224C73.5999 112.098 72.8869 111.801 72.2679 111.356C71.8961 111.045 71.6095 110.645 71.4352 110.193C71.261 109.741 71.2048 109.252 71.2719 108.772Z" fill="black"/>
<path d="M77.9679 104.6C78.2043 106.383 78.0874 108.194 77.6239 109.932C77.5353 110.314 77.3925 110.682 77.1999 111.024C77.0068 111.37 76.7023 111.641 76.3359 111.792C75.8685 111.92 75.3753 111.92 74.9079 111.792C74.0276 111.692 73.1733 111.43 72.3879 111.02C71.9979 110.81 71.6727 110.497 71.4472 110.116C71.2216 109.734 71.1043 109.299 71.1079 108.856C70.8943 108.995 70.6479 109.075 70.3934 109.088C70.139 109.101 69.8855 109.047 69.6587 108.931C69.4319 108.815 69.2397 108.641 69.1015 108.427C68.9634 108.213 68.8842 107.966 68.8719 107.712C68.8258 107.513 68.8451 107.305 68.9271 107.119C69.009 106.932 69.1491 106.777 69.3264 106.677C69.5038 106.576 69.7088 106.536 69.911 106.562C70.1131 106.588 70.3015 106.678 70.4479 106.82C70.676 107.018 70.874 107.249 71.0359 107.504C71.1094 107.628 71.2091 107.734 71.3279 107.816C71.3869 107.856 71.4566 107.877 71.5279 107.877C71.5992 107.877 71.6689 107.856 71.7279 107.816C71.7781 107.756 71.8142 107.685 71.8336 107.609C71.853 107.532 71.8551 107.453 71.8399 107.376L71.7919 106.26C71.7911 106.177 71.814 106.095 71.8579 106.024C71.9018 105.953 71.9649 105.896 72.0399 105.86C72.2695 105.733 72.4467 105.529 72.5399 105.284C72.6186 105.069 72.6657 104.844 72.6799 104.616C72.6832 104.573 72.6965 104.531 72.7188 104.494C72.7411 104.457 72.7718 104.426 72.8084 104.403C72.845 104.38 72.8864 104.366 72.9294 104.362C72.9724 104.358 73.0157 104.364 73.0559 104.38C74.6325 104.952 76.3464 105.029 77.9679 104.6Z" fill="#FFA8A7"/>
<path d="M75.516 107.304L76.52 108.992L75.324 109.22L75.516 107.304Z" fill="#FFB6B6"/>
<path d="M74.168 109.8L75.076 110.244C74.998 110.347 74.8887 110.421 74.7647 110.457C74.6406 110.492 74.5085 110.486 74.388 110.44C74.2839 110.374 74.2053 110.275 74.1653 110.159C74.1253 110.042 74.1263 109.916 74.168 109.8Z" fill="#FFB6B6"/>
<path opacity="0.3" d="M74.168 109.8L75.076 110.244C74.998 110.347 74.8887 110.421 74.7647 110.457C74.6406 110.492 74.5085 110.486 74.388 110.44C74.2839 110.374 74.2053 110.275 74.1653 110.159C74.1253 110.042 74.1263 109.916 74.168 109.8Z" fill="black"/>
<path d="M74.7038 110.468C74.598 110.489 74.4883 110.479 74.3878 110.44C74.3045 110.393 74.237 110.322 74.1936 110.237C74.1502 110.151 74.1329 110.055 74.1438 109.96C74.2845 109.956 74.4212 110.007 74.5254 110.102C74.6297 110.196 74.6936 110.327 74.7038 110.468Z" fill="#FFB6B6"/>
<path d="M73.7838 107.372C73.7788 107.417 73.7828 107.462 73.7954 107.505C73.808 107.548 73.8291 107.588 73.8573 107.623C73.8856 107.658 73.9205 107.687 73.9601 107.709C73.9997 107.73 74.0431 107.743 74.0878 107.748C74.1334 107.754 74.1796 107.751 74.2239 107.738C74.2681 107.726 74.3095 107.705 74.3455 107.677C74.3816 107.648 74.4116 107.613 74.4337 107.573C74.4559 107.533 74.4698 107.488 74.4746 107.443C74.4794 107.397 74.475 107.351 74.4617 107.307C74.4484 107.263 74.4264 107.222 74.3971 107.187C74.3678 107.152 74.3317 107.123 74.2909 107.101C74.2502 107.08 74.2056 107.067 74.1598 107.064C74.1148 107.059 74.0693 107.063 74.0259 107.076C73.9825 107.089 73.9421 107.11 73.9071 107.139C73.872 107.167 73.8431 107.203 73.8219 107.243C73.8008 107.283 73.7878 107.327 73.7838 107.372Z" fill="#263238"/>
<path d="M76.6638 107.552C76.657 107.62 76.6705 107.688 76.7025 107.748C76.7345 107.808 76.7836 107.857 76.8435 107.889C76.9035 107.922 76.9717 107.935 77.0394 107.929C77.1072 107.922 77.1714 107.895 77.2241 107.852C77.2767 107.809 77.3154 107.751 77.3352 107.686C77.355 107.621 77.3551 107.552 77.3353 107.486C77.3156 107.421 77.277 107.364 77.2244 107.32C77.1718 107.277 77.1076 107.251 77.0398 107.244C76.9491 107.235 76.8586 107.262 76.7881 107.32C76.7176 107.378 76.6729 107.461 76.6638 107.552Z" fill="#263238"/>
<path d="M77.1318 106.224L77.8398 106.824C77.8819 106.733 77.8952 106.631 77.8781 106.533C77.8609 106.434 77.8141 106.343 77.7438 106.272C77.6565 106.207 77.5529 106.169 77.4447 106.16C77.3365 106.152 77.2281 106.174 77.1318 106.224Z" fill="#263238"/>
<path d="M74.2119 105.888C73.9399 106.036 73.6679 106.184 73.4119 106.336C73.3891 106.239 73.3959 106.137 73.4316 106.043C73.4672 105.95 73.53 105.869 73.6119 105.812C73.7093 105.768 73.8168 105.752 73.9226 105.766C74.0285 105.779 74.1286 105.821 74.2119 105.888Z" fill="#263238"/>
<path d="M75.564 63.9079C75.928 63.6999 76.216 63.8679 76.22 64.2799L76.244 73.2039C76.2315 73.4289 76.1663 73.6478 76.0538 73.843C75.9412 74.0383 75.7844 74.2043 75.596 74.3279L54.476 86.5199L54.448 76.0999L75.564 63.9079Z" fill="#F5F6FA"/>
<g opacity="0.3">
<path d="M75.564 63.9079C75.928 63.6999 76.216 63.8679 76.22 64.2799L76.244 73.2039C76.2315 73.4289 76.1663 73.6478 76.0538 73.843C75.9412 74.0383 75.7844 74.2043 75.596 74.3279L54.476 86.5199L54.448 76.0999L75.564 63.9079Z" fill="white"/>
</g>
<path d="M74.7921 71.2998L74.7961 72.0158L59.2401 80.9958L59.2361 80.2798L74.7921 71.2998Z" fill="#6C757D"/>
<path d="M65.568 78.156L65.572 78.876L59.244 82.528L59.24 81.808L65.568 78.156Z" fill="white"/>
<path d="M74.7879 69.772L74.7919 70.492L59.2359 79.472L59.2319 78.752L74.7879 69.772Z" fill="#6C757D"/>
<path d="M74.784 68.2439L74.788 68.9599L59.228 77.9399V77.2239L74.784 68.2439Z" fill="#6C757D"/>
<path d="M70.624 68.396L70.628 69.828L59.224 76.412L59.22 74.976L70.624 68.396Z" fill="white"/>
<path d="M48.7922 71.9998C51.2642 70.5718 53.7402 70.2278 55.6362 71.3078C59.1242 73.3078 59.4522 79.4798 56.3962 85.6638L48.8722 100.92L41.3002 94.3998C38.2202 91.7558 38.5002 85.1998 41.9802 79.1998C43.8482 75.9518 46.3202 73.4398 48.7922 71.9998Z" fill="#F5F6FA"/>
<path d="M54.63 86.4297C57.8443 80.8981 57.8533 74.905 54.6501 73.0436C51.4469 71.1823 46.2445 74.1577 43.0302 79.6893C39.8159 85.2208 39.8069 91.214 43.0101 93.0753C46.2133 94.9366 51.4157 91.9613 54.63 86.4297Z" fill="#455A64"/>
<path d="M48.8601 92.508C51.2601 91.124 53.4041 88.696 54.9001 85.944C53.9446 85.4203 52.8303 85.2651 51.7681 85.508L49.8961 85.932L46.0521 86.756L42.7241 89.26C42.1306 89.7095 41.6016 90.2384 41.1521 90.832C42.3321 93.728 45.3401 94.54 48.8601 92.508Z" fill="white"/>
<path d="M44.0402 81.8799C44.1443 81.634 44.335 81.4348 44.5762 81.32C44.6271 81.2941 44.6808 81.274 44.7362 81.2599C44.898 81.2333 45.064 81.2467 45.2195 81.299C45.375 81.3513 45.5153 81.4409 45.6282 81.5599C45.8507 81.7999 46.0005 82.0982 46.0602 82.42C46.12 82.7409 46.1561 83.0657 46.1682 83.3919C46.2152 83.9684 46.3047 84.5407 46.4362 85.1039C46.5051 85.4116 46.6398 85.7007 46.8311 85.9513C47.0223 86.202 47.2656 86.4082 47.5442 86.5559L47.5842 86.576C48.392 86.9764 49.2721 87.2103 50.1722 87.264V88.2439C50.8882 89.216 51.0882 91.076 49.2042 90.52C47.3202 89.964 46.0962 88.712 46.0962 87.484C46.0962 86.964 46.0722 86.284 46.0562 85.7C46.0562 84.9 46.0242 84.2239 46.0242 84.2239C45.8489 84.427 45.6029 84.5557 45.3362 84.584C45.216 84.5996 45.0939 84.5928 44.9762 84.564C44.8038 84.5081 44.6443 84.4186 44.5069 84.3004C44.3696 84.1823 44.2571 84.038 44.1762 83.876C44.0169 83.5489 43.9296 83.1916 43.9202 82.828C43.8855 82.5069 43.9266 82.1822 44.0402 81.8799Z" fill="#FFA8A7"/>
<path opacity="0.3" d="M44.0402 81.8799C44.1443 81.634 44.335 81.4348 44.5762 81.32C44.6271 81.2941 44.6808 81.274 44.7362 81.2599C44.898 81.2333 45.064 81.2467 45.2195 81.299C45.375 81.3513 45.5153 81.4409 45.6282 81.5599C45.8507 81.7999 46.0005 82.0982 46.0602 82.42C46.12 82.7409 46.1561 83.0657 46.1682 83.3919C46.2152 83.9684 46.3047 84.5407 46.4362 85.1039C46.5051 85.4116 46.6398 85.7007 46.8311 85.9513C47.0223 86.202 47.2656 86.4082 47.5442 86.5559L47.5842 86.576C48.392 86.9764 49.2721 87.2103 50.1722 87.264V88.2439C50.8882 89.216 51.0882 91.076 49.2042 90.52C47.3202 89.964 46.0962 88.712 46.0962 87.484C46.0962 86.964 46.0722 86.284 46.0562 85.7C46.0562 84.9 46.0242 84.2239 46.0242 84.2239C45.8489 84.427 45.6029 84.5557 45.3362 84.584C45.216 84.5996 45.0939 84.5928 44.9762 84.564C44.8038 84.5081 44.6443 84.4186 44.5069 84.3004C44.3696 84.1823 44.2571 84.038 44.1762 83.876C44.0169 83.5489 43.9296 83.1916 43.9202 82.828C43.8855 82.5069 43.9266 82.1822 44.0402 81.8799Z" fill="black"/>
<path d="M44.652 78.4799C45.0281 78.0378 45.5561 77.7524 46.132 77.6799L53.864 78.3999C54.756 80.2919 54.044 81.5399 54.044 81.5399C54.164 84.4199 54.264 86.2519 52.996 86.8599C52.101 87.2203 51.1319 87.3576 50.172 87.2599C49.272 87.2063 48.3919 86.9724 47.584 86.5719L47.544 86.5479C47.2645 86.4005 47.0206 86.1938 46.8292 85.9423C46.6378 85.6908 46.5037 85.4006 46.436 85.0919C46.3046 84.5314 46.215 83.9618 46.168 83.3879C46.156 83.0617 46.1199 82.7368 46.06 82.4159C46.0004 82.0941 45.8505 81.7959 45.628 81.5559C45.5152 81.4369 45.3748 81.3472 45.2193 81.2949C45.0638 81.2426 44.8979 81.2293 44.736 81.2559C44.6806 81.27 44.627 81.2901 44.576 81.3159C44.356 80.0399 44.292 78.9319 44.652 78.4799Z" fill="#263238"/>
<path d="M47.4839 78.6998C47.6173 79.2376 47.581 79.8035 47.3799 80.3198C47.18 80.8329 47.0169 81.3595 46.8919 81.8958C46.7868 82.438 46.8612 82.9997 47.1039 83.4958C47.2247 83.7401 47.3976 83.9548 47.6105 84.1248C47.8234 84.2949 48.071 84.416 48.3359 84.4798C49.1639 84.6558 49.9759 84.1718 50.8119 84.0118C51.6095 83.8672 52.4326 84.0088 53.1359 84.4118C53.1953 84.4481 53.2631 84.4682 53.3326 84.4702C53.4022 84.4722 53.471 84.4561 53.5324 84.4234C53.5938 84.3907 53.6456 84.3425 53.6827 84.2837C53.7198 84.2248 53.7409 84.1573 53.7439 84.0878C53.8439 82.4318 53.8439 79.8318 53.5959 78.6118L47.4839 78.6998Z" fill="#FFA8A7"/>
<path opacity="0.3" d="M47.4839 78.6998C47.6173 79.2376 47.581 79.8035 47.3799 80.3198C47.18 80.8329 47.0169 81.3595 46.8919 81.8958C46.7868 82.438 46.8612 82.9997 47.1039 83.4958C47.2247 83.7401 47.3976 83.9548 47.6105 84.1248C47.8234 84.2949 48.071 84.416 48.3359 84.4798C49.1639 84.6558 49.9759 84.1718 50.8119 84.0118C51.6095 83.8672 52.4326 84.0088 53.1359 84.4118C53.1953 84.4481 53.2631 84.4682 53.3326 84.4702C53.4022 84.4722 53.471 84.4561 53.5324 84.4234C53.5938 84.3907 53.6456 84.3425 53.6827 84.2837C53.7198 84.2248 53.7409 84.1573 53.7439 84.0878C53.8439 82.4318 53.8439 79.8318 53.5959 78.6118L47.4839 78.6998Z" fill="black"/>
<path d="M53.4679 77.2L54.428 76.532C54.5273 76.8532 54.5457 77.1941 54.4815 77.5242C54.4173 77.8543 54.2725 78.1634 54.0599 78.424C53.6202 78.9343 53.0238 79.2845 52.3639 79.42C51.7065 79.5575 51.0312 79.5886 50.364 79.512C49.3905 79.4315 48.4272 79.256 47.4879 78.988C47.0633 78.8995 46.6724 78.6929 46.3599 78.392C46.1639 78.1432 46.0524 77.8384 46.0416 77.5218C46.0308 77.2053 46.1213 76.8935 46.2999 76.632C46.486 76.3738 46.7249 76.1582 47.0008 75.9995C47.2767 75.8409 47.5832 75.7429 47.8999 75.712C48.5413 75.6628 49.1864 75.7141 49.8119 75.864C50.4388 76.0146 51.0862 76.0606 51.728 76C52.0477 75.9663 52.3547 75.856 52.6228 75.6784C52.8908 75.5009 53.1122 75.2613 53.2679 74.98C53.8079 75.856 53.4679 77.2 53.4679 77.2Z" fill="#263238"/>
<path d="M51.04 81.6438L52.452 83.3518L51.156 83.8078L51.04 81.6438Z" fill="#FFB6B6"/>
<path opacity="0.3" d="M51.04 81.6438L52.452 83.3518L51.156 83.8078L51.04 81.6438Z" fill="black"/>
<path d="M49.9719 84.656L51.0639 84.988C50.995 85.1171 50.8858 85.2201 50.753 85.2815C50.6202 85.3429 50.4709 85.3592 50.3279 85.328C50.201 85.2732 50.0966 85.1767 50.0319 85.0545C49.9672 84.9324 49.946 84.7918 49.9719 84.656Z" fill="#FFB6B6"/>
<path opacity="0.3" d="M49.9719 84.656L51.0639 84.988C50.995 85.1171 50.8858 85.2201 50.753 85.2815C50.6202 85.3429 50.4709 85.3592 50.3279 85.328C50.201 85.2732 50.0966 85.1767 50.0319 85.0545C49.9672 84.9324 49.946 84.7918 49.9719 84.656Z" fill="black"/>
<path d="M50.6841 85.3039C50.5709 85.3494 50.4463 85.3578 50.3281 85.3279C50.2276 85.2895 50.1406 85.2224 50.078 85.1349C50.0154 85.0474 49.98 84.9434 49.9761 84.8359C50.1141 84.8187 50.254 84.8453 50.3761 84.9119C50.4512 84.9531 50.5172 85.0091 50.5701 85.0765C50.623 85.1438 50.6618 85.2212 50.6841 85.3039Z" fill="#FFB6B6"/>
<path d="M49.124 82C49.1244 82.0806 49.149 82.1592 49.1948 82.2255C49.2405 82.2918 49.3052 82.3428 49.3805 82.3717C49.4557 82.4007 49.5378 82.4062 49.6163 82.3876C49.6947 82.369 49.7656 82.3272 49.8199 82.2676C49.8741 82.208 49.9091 82.1334 49.9202 82.0536C49.9313 81.9738 49.9181 81.8925 49.8822 81.8203C49.8463 81.7482 49.7895 81.6885 49.7192 81.6492C49.6488 81.6099 49.5683 81.5928 49.488 81.6C49.3883 81.609 49.2956 81.6551 49.2282 81.7292C49.1608 81.8032 49.1236 81.8999 49.124 82Z" fill="#263238"/>
<path d="M52.3641 81.716C52.3514 81.7759 52.3526 81.838 52.3677 81.8974C52.3829 81.9569 52.4114 82.012 52.4513 82.0586C52.4911 82.1052 52.5411 82.1421 52.5974 82.1663C52.6537 82.1905 52.7149 82.2014 52.7761 82.1983C52.8373 82.1951 52.897 82.1779 52.9505 82.148C53.004 82.1181 53.0499 82.0763 53.0847 82.0258C53.1195 81.9753 53.1422 81.9175 53.1511 81.8568C53.16 81.7962 53.1549 81.7343 53.1361 81.676C53.1487 81.616 53.1475 81.5539 53.1324 81.4945C53.1173 81.4351 53.0887 81.3799 53.0489 81.3333C53.009 81.2867 52.959 81.2499 52.9027 81.2256C52.8464 81.2014 52.7853 81.1905 52.724 81.1937C52.6628 81.1968 52.6031 81.214 52.5496 81.2439C52.4961 81.2738 52.4502 81.3156 52.4154 81.3661C52.3806 81.4166 52.3579 81.4744 52.349 81.5351C52.3401 81.5957 52.3452 81.6576 52.3641 81.716Z" fill="#263238"/>
<path d="M52.656 80.156L53.544 80.704C53.5771 80.5962 53.5755 80.4808 53.5397 80.3739C53.5038 80.267 53.4354 80.174 53.344 80.108C53.2363 80.0509 53.1148 80.0251 52.9931 80.0336C52.8715 80.042 52.7547 80.0845 52.656 80.156Z" fill="#263238"/>
<path d="M49.344 80.2878L48.516 80.9279C48.473 80.8236 48.463 80.7086 48.4873 80.5985C48.5117 80.4884 48.5691 80.3883 48.652 80.3118C48.7538 80.2441 48.8724 80.2061 48.9946 80.2018C49.1168 80.1976 49.2378 80.2274 49.344 80.2878Z" fill="#263238"/>
<path opacity="0.2" d="M47.0641 86.524C46.8474 86.2469 46.6932 85.9262 46.6121 85.584C46.8117 85.9987 47.1381 86.3391 47.5441 86.556L47.5841 86.576C48.3919 86.9764 49.272 87.2104 50.1721 87.264V87.924C49.6516 87.8801 49.1384 87.7726 48.6441 87.604C48.0258 87.4007 47.478 87.0262 47.0641 86.524Z" fill="black"/>
<path d="M110.26 26.9521C110.62 26.7441 110.912 26.9121 110.912 27.3241L110.936 36.2481C110.925 36.4734 110.86 36.6928 110.747 36.8882C110.635 37.0836 110.477 37.2495 110.288 37.3721L89.1719 49.5641L89.1399 39.1641L110.26 26.9521Z" fill="#F5F6FA"/>
<g opacity="0.3">
<path d="M110.26 26.9521C110.62 26.7441 110.912 26.9121 110.912 27.3241L110.936 36.2481C110.925 36.4734 110.86 36.6928 110.747 36.8882C110.635 37.0836 110.477 37.2495 110.288 37.3721L89.1719 49.5641L89.1399 39.1641L110.26 26.9521Z" fill="#F5F6FA"/>
</g>
<path d="M109.488 34.344V35.06L93.9319 44.044V43.324L109.488 34.344Z" fill="#6C757D"/>
<path d="M100.26 41.2002L100.264 41.9202L93.9358 45.5722V44.8562L100.26 41.2002Z" fill="white"/>
<path d="M109.48 32.8162L109.484 33.5362L93.9278 42.5162L93.9238 41.8002L109.48 32.8162Z" fill="#6C757D"/>
<path d="M109.476 31.2881L109.48 32.0041L93.9238 40.9881V40.2681L109.476 31.2881Z" fill="#6C757D"/>
<path d="M105.316 31.4402L105.32 32.8762L93.92 39.4562L93.916 38.0242L105.316 31.4402Z" fill="white"/>
<path d="M82.9239 36.5841C85.3959 35.1561 87.8719 34.8121 89.7679 35.8921C93.2559 37.8921 93.5839 44.0641 90.5279 50.2481L83.0039 65.4921L75.4039 58.9721C72.3239 56.3281 72.6039 49.7721 76.0839 43.7721C77.9799 40.5241 80.4519 38.0001 82.9239 36.5841Z" fill="#F5F6FA"/>
<path d="M88.7619 51.0049C91.9761 45.4733 91.9851 39.4801 88.7819 37.6188C85.5787 35.7575 80.3763 38.7329 77.162 44.2644C73.9477 49.796 73.9387 55.7892 77.1419 57.6505C80.3452 59.5118 85.5476 56.5365 88.7619 51.0049Z" fill="#455A64"/>
<path d="M82.9919 57.0802C85.0879 55.8802 86.992 53.8802 88.44 51.5362C87.434 51.041 86.2999 50.8678 85.1919 51.0402L84.1 51.2002L80.5919 51.8642L77.956 53.4282C76.9051 54.0506 76.0926 55.0066 75.6479 56.1442C77.0279 58.4282 79.7959 58.9242 82.9919 57.0802Z" fill="#F5F6FA"/>
<path opacity="0.2" d="M82.9919 57.0802C85.0879 55.8802 86.992 53.8802 88.44 51.5362C87.434 51.041 86.2999 50.8678 85.1919 51.0402L84.1 51.2002L80.5919 51.8642L77.956 53.4282C76.9051 54.0506 76.0926 55.0066 75.6479 56.1442C77.0279 58.4282 79.7959 58.9242 82.9919 57.0802Z" fill="white"/>
<path d="M76.844 44.8562C76.844 45.0602 76.876 45.2562 76.888 45.4722C76.9401 46.0141 76.8704 46.5608 76.684 47.0722C76.44 47.6602 75.956 48.1362 75.8 48.7522C75.7283 49.0364 75.7319 49.3344 75.8107 49.6168C75.8894 49.8991 76.0405 50.156 76.249 50.3621C76.4575 50.5681 76.7161 50.7162 76.9994 50.7916C77.2826 50.8671 77.5806 50.8673 77.864 50.7922C77.7463 50.3639 77.6937 49.9202 77.708 49.4762C77.76 50.0722 78.352 50.5362 78.908 50.7362C79.4844 50.9022 80.0875 50.9552 80.684 50.8922L82.788 50.8122L85.24 50.7162C85.6772 50.7252 86.1119 50.6492 86.52 50.4922C86.8596 50.308 87.144 50.0368 87.3444 49.7065C87.5447 49.3761 87.6536 48.9985 87.66 48.6122C87.6475 47.7903 87.4565 46.9809 87.1 46.2402C87.6252 45.7104 87.9517 45.0158 88.0245 44.2733C88.0974 43.5309 87.9122 42.786 87.5 42.1642C87.7208 42.0771 87.9074 41.9207 88.0317 41.7184C88.156 41.5161 88.2112 41.279 88.1891 41.0426C88.167 40.8063 88.0687 40.5835 87.9091 40.4077C87.7495 40.232 87.5371 40.1129 87.304 40.0682C86.9034 40.045 86.5022 40.1021 86.124 40.2362C85.4522 40.3582 84.7638 40.3582 84.092 40.2362C83.416 40.1402 82.748 39.9922 82.092 39.9442C81.5417 39.893 80.9867 39.9459 80.456 40.1002C79.0067 41.4834 77.7874 43.0889 76.844 44.8562Z" fill="#263238"/>
<path d="M84.0998 49.6521V51.8881C84.0998 51.8881 85.9278 53.0561 85.1598 53.6761C83.7078 54.8441 80.5918 51.8761 80.5918 51.8761V48.1521L84.0998 49.6521Z" fill="#FFA8A7"/>
<path opacity="0.3" d="M80.5999 48.1521C81.1399 49.7521 83.0999 50.9721 84.1079 51.2121V49.6521L80.5999 48.1521Z" fill="black"/>
<path d="M81.02 45.6002C81.0672 45.8789 81.0806 46.1623 81.06 46.4442C81.0301 46.6575 80.9318 46.8554 80.78 47.0082C80.7055 47.0793 80.6151 47.1317 80.5163 47.1609C80.4175 47.1901 80.3132 47.1953 80.212 47.1762C80.2611 46.901 80.2036 46.6175 80.0513 46.3832C79.8989 46.1489 79.6631 45.9814 79.3916 45.9146C79.1202 45.8479 78.8336 45.887 78.5899 46.024C78.3463 46.161 78.164 46.3856 78.08 46.6522C78.0321 46.848 78.0278 47.0518 78.0671 47.2495C78.1065 47.4471 78.1887 47.6337 78.308 47.7962C78.5496 48.1203 78.8649 48.3822 79.228 48.5602C79.434 48.6293 79.6578 48.6239 79.8603 48.545C80.0627 48.466 80.2311 48.3185 80.336 48.1282C81.404 49.4802 83.268 50.5002 85.016 50.3522C85.4943 50.3266 85.9553 50.1642 86.344 49.8842C87.004 49.3722 87.052 48.6002 87.144 47.8402C87.2673 46.8757 87.2606 45.8989 87.124 44.9362C86.945 43.5903 86.2944 42.3515 85.288 41.4402C84.68 44.3362 82.032 45.3962 81.02 45.6002Z" fill="#FFA8A7"/>
<path d="M84.656 45.28L85.852 46.756L84.74 47.136L84.656 45.28Z" fill="#FFB6B6"/>
<path d="M83.7199 47.8562L84.6519 48.1522C84.592 48.2619 84.4977 48.3488 84.3834 48.3994C84.2691 48.45 84.1414 48.4616 84.0199 48.4322C83.911 48.3857 83.8216 48.3029 83.7669 48.1979C83.7122 48.0928 83.6956 47.9721 83.7199 47.8562Z" fill="#FFB6B6"/>
<path opacity="0.3" d="M83.7199 47.8562L84.6519 48.1522C84.592 48.2619 84.4977 48.3488 84.3834 48.3994C84.2691 48.45 84.1414 48.4616 84.0199 48.4322C83.911 48.3857 83.8216 48.3029 83.7669 48.1979C83.7122 48.0928 83.6956 47.9721 83.7199 47.8562Z" fill="black"/>
<path d="M84.324 48.42C84.2248 48.4498 84.1191 48.4498 84.02 48.42C83.9367 48.3894 83.8641 48.3353 83.8109 48.2643C83.7576 48.1934 83.7261 48.1085 83.72 48.02C83.8442 48.0001 83.9716 48.0241 84.08 48.088C84.1407 48.1244 84.1935 48.1724 84.2354 48.2294C84.2773 48.2865 84.3074 48.3512 84.324 48.42Z" fill="#FFB6B6"/>
<path d="M83.0118 45.6002C83.0134 45.6436 83.0235 45.6863 83.0417 45.7258C83.0599 45.7653 83.0857 45.8008 83.1178 45.8302C83.1498 45.8596 83.1873 45.8823 83.2282 45.8971C83.269 45.9119 83.3124 45.9184 83.3558 45.9162C83.4216 45.9138 83.4852 45.8918 83.5384 45.8532C83.5917 45.8145 83.6323 45.7609 83.655 45.6992C83.6778 45.6374 83.6816 45.5703 83.6662 45.5063C83.6507 45.4424 83.6165 45.3845 83.5681 45.3399C83.5196 45.2954 83.459 45.2663 83.394 45.2563C83.3289 45.2463 83.2624 45.2558 83.2028 45.2837C83.1432 45.3116 83.0932 45.3566 83.0592 45.4129C83.0252 45.4693 83.0087 45.5345 83.0118 45.6002Z" fill="#263238"/>
<path d="M85.7878 45.3562C85.7911 45.4217 85.8137 45.4849 85.8528 45.5376C85.8918 45.5903 85.9457 45.6302 86.0075 45.6524C86.0693 45.6745 86.1362 45.6778 86.1999 45.6619C86.2636 45.646 86.3211 45.6116 86.3652 45.563C86.4093 45.5144 86.4381 45.4538 86.4478 45.3889C86.4575 45.324 86.4477 45.2577 86.4198 45.1983C86.3918 45.1389 86.3469 45.0892 86.2906 45.0554C86.2344 45.0215 86.1694 45.0051 86.1038 45.0082C86.0161 45.0133 85.9339 45.0527 85.8748 45.1177C85.8158 45.1828 85.7845 45.2684 85.7878 45.3562Z" fill="#263238"/>
<path d="M86.052 44.02L86.812 44.496C86.8393 44.4031 86.8379 44.3041 86.8079 44.212C86.7779 44.1199 86.7208 44.039 86.644 43.98C86.5512 43.9315 86.4468 43.9095 86.3424 43.9166C86.2379 43.9236 86.1374 43.9594 86.052 44.02Z" fill="#263238"/>
<path d="M83.2119 44.1081L82.4999 44.6481C82.4642 44.5589 82.4565 44.461 82.478 44.3673C82.4994 44.2737 82.5489 44.1889 82.6199 44.1241C82.707 44.0659 82.8088 44.0336 82.9136 44.0307C83.0183 44.0279 83.1217 44.0547 83.2119 44.1081Z" fill="#263238"/>
<path d="M118.928 108.196C114.832 111.04 110.216 112.996 106.792 116.824C100.392 123.952 100.252 135.42 105.272 143.572C110.292 151.724 119.632 156.62 129.14 157.74C139.116 158.916 149.584 156.14 157.408 149.864C165.232 143.588 170.208 133.732 170.208 123.684C170.208 113.636 165.056 103.64 156.644 98.1521C148.968 93.1441 137.94 91.7161 130.244 97.4441C126.352 100.34 123.756 104.616 119.872 107.52C119.56 107.752 119.244 107.976 118.928 108.196Z" fill="#F5F6FA"/>
<path opacity="0.3" d="M118.928 108.196C114.832 111.04 110.216 112.996 106.792 116.824C100.392 123.952 100.252 135.42 105.272 143.572C110.292 151.724 119.632 156.62 129.14 157.74C139.116 158.916 149.584 156.14 157.408 149.864C165.232 143.588 170.208 133.732 170.208 123.684C170.208 113.636 165.056 103.64 156.644 98.1521C148.968 93.1441 137.94 91.7161 130.244 97.4441C126.352 100.34 123.756 104.616 119.872 107.52C119.56 107.752 119.244 107.976 118.928 108.196Z" fill="black"/>
<path opacity="0.1" d="M120.6 149.952C120.6 149.884 120.6 149.816 120.628 149.748C120.968 147.527 121.994 145.467 123.56 143.856C125.127 142.245 127.157 141.163 129.368 140.76C133.325 140.004 137.117 138.552 140.568 136.472C143.012 134.992 145.324 133.18 148.072 132.376C150.742 131.61 153.593 131.777 156.156 132.848C153.852 130.424 149.896 129.36 146.736 130.448C148.924 127.1 150.848 123.492 151.6 119.564C152.352 115.636 151.82 111.328 149.452 108.104C148.442 106.731 147.139 105.598 145.639 104.788C144.139 103.978 142.477 103.511 140.775 103.42C139.072 103.329 137.371 103.616 135.792 104.262C134.214 104.907 132.799 105.894 131.648 107.152C129.304 109.72 127.98 113.328 126.448 116.448C125.34 118.684 124.196 120.976 122.372 122.68C119.62 125.256 115.664 126.184 112.808 128.648C109.576 131.448 108.18 135.904 108.164 140.176C108.217 143.059 108.638 145.924 109.416 148.7C112.761 151.892 116.75 154.332 121.116 155.856C120.479 153.957 120.303 151.933 120.6 149.952Z" fill="black"/>
<path d="M164.856 122.308C164.729 115.372 162.146 108.706 157.567 103.494C152.988 98.2823 146.71 94.8631 139.848 93.844C138.896 93.9379 137.951 94.097 137.02 94.32C144.234 94.7038 151.036 97.8048 156.057 102.999C161.078 108.194 163.946 115.097 164.084 122.32C164.264 131.668 159.684 141.196 151.848 147.808C145.704 153.008 137.54 156.424 128.564 157.664L129.14 157.736C129.94 157.832 130.74 157.9 131.568 157.944C139.54 156.396 146.768 153.108 152.348 148.4C160.368 141.64 165.044 131.888 164.856 122.308Z" fill="white"/>
<path d="M109.616 148.204C109.898 149.683 110.058 151.183 110.096 152.688L111.16 152.288C111.662 152.102 112.208 152.066 112.73 152.186C113.252 152.305 113.729 152.574 114.1 152.96L114.152 153.016C114.342 153.215 114.602 153.332 114.876 153.345C115.151 153.358 115.42 153.264 115.628 153.084C115.739 152.987 115.83 152.868 115.893 152.735C115.956 152.601 115.991 152.456 115.996 152.308L116.14 147.784L109.616 148.204Z" fill="#FFB6B6"/>
<path d="M113.72 165.032C111.512 167.392 107.448 169.456 104.496 167.432L104.828 168.18C107.78 170.18 111.844 168.132 114.052 165.78C116.26 163.428 114.828 161.78 116.812 159.688C117.561 158.97 118.147 158.1 118.532 157.136C118.444 156.912 118.36 156.616 118.256 156.28C117.825 157.262 117.226 158.161 116.484 158.936C114.5 161.036 115.928 162.672 113.72 165.032Z" fill="#6C757D"/>
<path d="M117.168 153.816C116.828 153.336 116.591 152.792 116.472 152.216C116.452 152.081 116.403 151.952 116.328 151.839C116.252 151.726 116.153 151.63 116.036 151.56L116.012 152.316C116.005 152.527 115.936 152.731 115.814 152.902C115.692 153.074 115.522 153.206 115.325 153.282C115.128 153.357 114.913 153.373 114.708 153.327C114.502 153.281 114.314 153.176 114.168 153.024L114.116 152.968C113.743 152.579 113.264 152.308 112.739 152.188C112.213 152.069 111.664 152.106 111.16 152.296L110.08 152.696C109.918 152.756 109.778 152.866 109.681 153.009C109.585 153.153 109.535 153.323 109.54 153.496C109.608 156.592 108.164 160.696 106.648 162.96C105.088 163.608 103.74 165.732 104.428 167.292L104.496 167.448C107.448 169.448 111.512 167.396 113.72 165.048C115.928 162.7 114.496 161.048 116.484 158.956C117.226 158.181 117.826 157.282 118.256 156.3C118.01 155.426 117.644 154.59 117.168 153.816Z" fill="#6C757D"/>
<path d="M112.848 158.288C112.936 158.324 113.034 158.325 113.122 158.292C113.211 158.26 113.285 158.195 113.328 158.111C113.372 158.027 113.382 157.929 113.358 157.838C113.333 157.746 113.276 157.667 113.196 157.616C112.549 157.251 111.819 157.059 111.076 157.059C110.333 157.059 109.603 157.251 108.956 157.616C108.888 157.86 108.82 158.104 108.744 158.344C109.364 157.979 110.069 157.783 110.788 157.773C111.508 157.763 112.218 157.941 112.848 158.288Z" fill="white"/>
<path d="M113.392 156.612C113.481 156.658 113.584 156.667 113.679 156.637C113.774 156.607 113.854 156.541 113.9 156.452C113.946 156.364 113.955 156.26 113.925 156.165C113.895 156.07 113.829 155.99 113.74 155.944C113.064 155.576 112.305 155.385 111.535 155.392C110.765 155.398 110.01 155.601 109.34 155.98C109.296 156.232 109.244 156.484 109.188 156.736C110.464 156.06 111.76 155.788 113.392 156.612Z" fill="white"/>
<path d="M112.252 159.952C112.341 159.998 112.444 160.007 112.539 159.977C112.634 159.947 112.714 159.881 112.76 159.792C112.806 159.704 112.815 159.6 112.785 159.505C112.755 159.41 112.689 159.33 112.6 159.284C111.968 158.927 111.256 158.735 110.53 158.728C109.804 158.72 109.088 158.896 108.448 159.24C108.356 159.504 108.256 159.76 108.156 160.012C108.775 159.649 109.478 159.452 110.196 159.442C110.914 159.431 111.622 159.607 112.252 159.952Z" fill="white"/>
<path d="M106.648 162.956C105.088 163.604 103.74 165.728 104.428 167.288L104.496 167.444C107.408 169.444 111.392 167.444 113.62 165.136C111.76 161.492 107.876 162.4 106.648 162.956Z" fill="#FDFCFB"/>
<path d="M111.6 161.6C111.689 161.643 111.792 161.649 111.885 161.617C111.979 161.585 112.056 161.517 112.1 161.428C112.145 161.341 112.154 161.24 112.125 161.146C112.096 161.052 112.031 160.974 111.944 160.928C111.311 160.571 110.597 160.38 109.871 160.374C109.144 160.368 108.427 160.546 107.788 160.892C107.656 161.18 107.52 161.456 107.388 161.724C108.668 161.024 109.968 160.752 111.6 161.6Z" fill="white"/>
<path d="M104.976 157.2C104.636 158.667 104.177 160.104 103.604 161.496L104.74 161.556C105.278 161.586 105.795 161.773 106.228 162.095C106.66 162.416 106.989 162.858 107.172 163.364L107.2 163.436C107.293 163.696 107.482 163.91 107.729 164.033C107.976 164.156 108.261 164.178 108.524 164.096C108.665 164.052 108.795 163.98 108.906 163.884C109.018 163.787 109.108 163.669 109.172 163.536L111.128 159.452L104.976 157.2Z" fill="#FFB6B6"/>
<path d="M101.94 174.26C98.9678 175.528 94.4158 175.776 92.5278 172.74V173.564C94.4158 176.596 98.9678 176.364 101.94 175.08C104.912 173.796 104.264 171.736 106.924 170.62C107.9 170.267 108.788 169.708 109.528 168.98C109.528 168.74 109.58 168.436 109.62 168.084C108.829 168.81 107.917 169.391 106.924 169.8C104.264 170.916 104.9 172.988 101.94 174.26Z" fill="#6C757D"/>
<path d="M109.62 165.388C109.498 164.81 109.498 164.214 109.62 163.636C109.655 163.505 109.661 163.367 109.638 163.233C109.614 163.099 109.562 162.972 109.484 162.86L109.156 163.544C109.065 163.735 108.92 163.895 108.739 164.004C108.557 164.112 108.348 164.165 108.136 164.154C107.925 164.143 107.722 164.07 107.552 163.944C107.383 163.817 107.255 163.643 107.184 163.444L107.156 163.372C106.972 162.865 106.644 162.424 106.212 162.102C105.779 161.781 105.262 161.594 104.724 161.564L103.572 161.5C103.402 161.494 103.235 161.54 103.092 161.631C102.949 161.723 102.838 161.856 102.772 162.012C101.572 164.872 98.5999 168.052 96.2999 169.508C94.6159 169.468 92.5239 170.868 92.5239 172.572V172.74C94.4119 175.776 98.9639 175.54 101.936 174.26C104.908 172.98 104.26 170.916 106.92 169.8C107.913 169.391 108.825 168.81 109.616 168.084C109.743 167.19 109.744 166.282 109.62 165.388Z" fill="#6C757D"/>
<path d="M103.864 167.736C103.931 167.807 104.022 167.851 104.119 167.86C104.216 167.869 104.313 167.842 104.392 167.784C104.468 167.723 104.518 167.634 104.529 167.536C104.54 167.439 104.513 167.341 104.452 167.264C104.007 166.669 103.416 166.199 102.737 165.9C102.057 165.601 101.311 165.482 100.572 165.556C100.412 165.752 100.252 165.956 100.084 166.14C100.798 166.055 101.523 166.158 102.185 166.437C102.848 166.717 103.427 167.165 103.864 167.736Z" fill="white"/>
<path d="M105.036 166.424C105.103 166.495 105.194 166.539 105.291 166.548C105.388 166.557 105.485 166.53 105.564 166.472C105.64 166.411 105.69 166.322 105.701 166.224C105.712 166.127 105.684 166.029 105.624 165.952C105.154 165.339 104.536 164.857 103.827 164.55C103.119 164.244 102.344 164.123 101.576 164.2C101.432 164.416 101.284 164.624 101.128 164.836C102.58 164.732 103.876 165.008 105.036 166.424Z" fill="white"/>
<path d="M102.648 169.016C102.71 169.094 102.801 169.144 102.901 169.155C103 169.166 103.1 169.137 103.178 169.074C103.256 169.012 103.306 168.921 103.317 168.821C103.327 168.722 103.298 168.622 103.236 168.544C102.8 167.964 102.225 167.504 101.565 167.205C100.904 166.905 100.179 166.777 99.4558 166.832C99.2638 167.036 99.0558 167.232 98.8718 167.42C99.5855 167.337 100.309 167.441 100.97 167.72C101.632 168 102.21 168.446 102.648 169.016Z" fill="white"/>
<path d="M96.3038 169.508C94.6198 169.468 92.5278 170.868 92.5278 172.572V172.74C94.3878 175.732 98.8318 175.54 101.804 174.312C101.576 170.228 97.6558 169.492 96.3038 169.508Z" fill="#FDFCFB"/>
<path d="M101.392 170.244C101.459 170.315 101.55 170.359 101.647 170.368C101.744 170.377 101.841 170.35 101.92 170.292C101.996 170.231 102.046 170.142 102.057 170.044C102.068 169.947 102.04 169.849 101.98 169.772C101.545 169.189 100.97 168.726 100.307 168.426C99.6446 168.127 98.9166 168.001 98.1919 168.06C97.9559 168.268 97.7199 168.46 97.4839 168.656C98.9359 168.552 100.232 168.828 101.392 170.244Z" fill="white"/>
<path d="M122.436 118.544L107.56 126.832C106.211 127.584 105.132 128.739 104.476 130.137C103.819 131.534 103.618 133.102 103.9 134.62L106.788 150.172L104.42 157.696C106.46 160.436 111.152 160.572 111.152 160.572C113.768 155.324 115.688 153.096 117.176 148.7C118.664 144.304 119.652 141.268 119.652 141.268L132.008 137.892C134.833 137.124 137.363 135.527 139.272 133.306C141.181 131.086 142.38 128.345 142.716 125.436C142.924 123.564 142.936 122.288 142.936 122.288L122.436 118.544Z" fill="#37474F"/>
<path opacity="0.2" d="M122.552 122.724C122.553 124.384 123.143 125.99 124.216 127.256L113.7 133.828C112.164 134.795 111.028 136.283 110.5 138.02L106.784 150.172L110.136 136.636C110.52 135.08 111.499 133.737 112.864 132.896L122.556 126.896C121.572 124.424 122.552 122.724 122.552 122.724Z" fill="black"/>
<path d="M119.16 111.032C118.1 113.032 110.552 112.136 110.868 108.864C112.852 104.724 119.1 107.396 119.16 111.032Z" fill="#F5F6FA"/>
<path d="M124.048 92.98H123.648C121.08 93.008 117.828 94.756 116.236 99.244L110.1 111.2L117.148 114.328L121.004 103.04L124.048 92.98Z" fill="#FFB6B6"/>
<path d="M119.1 100.916C118.608 102.328 118.576 103.852 118.5 105.344C118.424 106.836 118.248 108.644 117.564 109.972C116.81 109.451 115.909 109.187 114.993 109.22C114.078 109.254 113.198 109.582 112.484 110.156C111.974 110.585 111.581 111.135 111.34 111.756L117.128 114.324L120.984 103.036L122.9 96.8201C122.025 97.2152 121.239 97.781 120.586 98.4844C119.934 99.1878 119.428 100.015 119.1 100.916Z" fill="#7A4C4A"/>
<path d="M117.192 112.172C116.924 111.505 116.488 110.917 115.928 110.466C115.368 110.015 114.701 109.716 113.992 109.596C112.58 109.368 110.98 110.104 110.068 111.196C109.3 112.128 109.42 113.384 109.904 114.488C110.31 115.345 111.001 116.036 111.858 116.442C112.716 116.848 113.687 116.945 114.608 116.716C116.44 116.216 117.88 113.936 117.192 112.172Z" fill="#FFB6B6"/>
<path d="M124.048 92.9801C120.976 92.6401 117.064 93.3801 110.868 108.864C114.52 105.24 119.16 111.032 119.16 111.032C121.812 104.8 126.5 94.3721 126.5 94.3721L124.048 92.9801Z" fill="#F5F6FA"/>
<path opacity="0.2" d="M124.048 92.9801C120.976 92.6401 117.064 93.3801 110.868 108.864C114.52 105.24 119.16 111.032 119.16 111.032C121.812 104.8 126.5 94.3721 126.5 94.3721L124.048 92.9801Z" fill="white"/>
<path d="M144.46 129.168C138.5 134.12 126.324 122.136 119.792 120C121.792 115.436 121.792 111.272 121.392 106.668C120.992 102.064 118.288 94.0081 123.428 93.0681C130.292 91.7281 133.76 92.9601 139.364 94.4161C147.404 106 144.872 120.524 144.46 129.168Z" fill="#F5F6FA"/>
<path opacity="0.7" d="M144.46 129.168C138.5 134.12 126.324 122.136 119.792 120C121.792 115.436 121.792 111.272 121.392 106.668C120.992 102.064 118.288 94.0081 123.428 93.0681C130.292 91.7281 133.76 92.9601 139.364 94.4161C147.404 106 144.872 120.524 144.46 129.168Z" fill="white"/>
<path d="M126.416 90.7401L126.684 93.716C126.697 93.9468 126.638 94.176 126.516 94.372C126.35 94.6825 126.286 95.0371 126.333 95.3859C126.379 95.7347 126.534 96.0601 126.776 96.316C127.16 96.6061 127.627 96.7646 128.108 96.768C129.015 96.816 129.922 96.6719 130.77 96.3452C131.618 96.0185 132.387 95.5165 133.028 94.872C133.16 94.7377 133.263 94.5781 133.332 94.4028C133.4 94.2275 133.433 94.0402 133.428 93.8521L133.232 86.3L126.416 90.7401Z" fill="#FFB6B6"/>
<path d="M133.22 86.3L126.42 90.7401L126.656 93.38C128.1 93.04 129.552 92.6241 130.692 91.6961C132.14 90.5161 133.416 89.344 133.22 86.3Z" fill="#7A4C4A"/>
<path d="M135.3 81.7281C135.98 80.9291 136.319 79.8947 136.244 78.8481C136.123 77.7637 135.599 76.7644 134.776 76.0481C135.055 75.533 135.179 74.9483 135.134 74.3643C135.088 73.7803 134.875 73.2218 134.52 72.7561C134.139 72.3172 133.638 71.9986 133.079 71.8388C132.521 71.679 131.927 71.685 131.372 71.8561C131.056 71.4172 130.648 71.0531 130.176 70.7897C129.703 70.5263 129.179 70.3701 128.64 70.3321C127.56 70.2601 126.484 70.4521 125.752 71.2441C125.324 70.9865 124.842 70.8302 124.345 70.7872C123.847 70.7442 123.346 70.8157 122.88 70.9961C122.401 71.2073 121.974 71.5204 121.629 71.9134C121.283 72.3065 121.028 72.7702 120.88 73.2721C120.347 73.1709 119.798 73.2066 119.283 73.3759C118.768 73.5452 118.304 73.8426 117.936 74.2401C117.212 75.0401 116.976 76.5681 117.296 77.6001C117.074 77.9294 116.925 78.3016 116.856 78.6926C116.788 79.0835 116.803 79.4845 116.9 79.8693C116.997 80.2541 117.174 80.6142 117.419 80.9262C117.665 81.2382 117.973 81.495 118.324 81.6801C118.223 82.4836 118.4 83.2974 118.824 83.9874C119.247 84.6773 119.894 85.2024 120.656 85.4761C120.907 86.091 121.304 86.6359 121.812 87.0643C122.319 87.4927 122.923 87.7918 123.572 87.9361C124.911 88.1682 126.287 88.0581 127.572 87.6161C130.708 86.6561 133.144 84.2241 135.3 81.7281Z" fill="#263238"/>
<path d="M128.716 78C128.819 78.5018 129.001 78.9839 129.256 79.428C129.406 79.6921 129.613 79.9186 129.864 80.0905C130.114 80.2624 130.4 80.3751 130.7 80.42C130.768 80.4303 130.831 80.4629 130.879 80.5129C130.927 80.5628 130.957 80.6273 130.964 80.696L131.3 83.2C131.298 83.3523 131.33 83.503 131.394 83.6414C131.458 83.7798 131.551 83.9022 131.668 84C131.795 84.0591 131.936 84.0784 132.074 84.0556C132.212 84.0328 132.339 83.9687 132.44 83.872C132.638 83.6819 132.794 83.4532 132.9 83.2C133.123 82.6581 133.423 82.1515 133.792 81.696C133.977 81.4689 134.209 81.2842 134.472 81.1545C134.735 81.0247 135.023 80.953 135.316 80.944C136.272 80.968 137 81.92 137.1 82.872C137.147 83.363 137.07 83.858 136.878 84.312C136.685 84.766 136.382 85.1647 135.996 85.472C135.598 85.7565 135.134 85.936 134.648 85.994C134.163 86.0521 133.67 85.9867 133.216 85.804C133.648 87.46 132.784 89.236 131.492 90.36C130.2 91.484 128.556 92.092 126.948 92.676C126.068 92.996 125.136 93.316 124.22 93.148C123.471 92.9788 122.8 92.5651 122.312 91.972C121.834 91.3795 121.439 90.724 121.14 90.024C119.676 86.864 118.847 83.4474 118.7 79.968C119.992 79.804 127.984 78.288 128.716 78Z" fill="#FFB6B6"/>
<path d="M124.268 84.3042L122.916 87.8642L125.276 87.8922L124.268 84.3042Z" fill="#FFB6B6"/>
<path d="M124.268 84.3042L122.916 87.8642L125.276 87.8922L124.268 84.3042Z" fill="#7A4C4A"/>
<path d="M127.668 88.616L126.068 89.764C126.251 89.9341 126.485 90.0401 126.734 90.066C126.983 90.092 127.233 90.0365 127.448 89.908C127.627 89.7505 127.747 89.5362 127.787 89.301C127.827 89.0657 127.785 88.8239 127.668 88.616Z" fill="#FFB6B6"/>
<path opacity="0.4" d="M127.668 88.616L126.068 89.764C126.251 89.9341 126.485 90.0401 126.734 90.066C126.983 90.092 127.233 90.0365 127.448 89.908C127.627 89.7505 127.747 89.5362 127.787 89.301C127.827 89.0657 127.785 88.8239 127.668 88.616Z" fill="black"/>
<path d="M126.872 90.0681C127.081 90.0743 127.287 90.0186 127.464 89.9081C127.607 89.7905 127.712 89.6333 127.767 89.4561C127.821 89.2788 127.821 89.0896 127.768 88.9121C127.519 88.9546 127.292 89.08 127.124 89.2681C126.938 89.491 126.847 89.7786 126.872 90.0681Z" fill="#FFB6B6"/>
<path d="M127.592 83.8562C127.627 83.9827 127.623 84.1166 127.582 84.241C127.54 84.3654 127.463 84.4748 127.359 84.5554C127.256 84.6359 127.131 84.684 127 84.6937C126.869 84.7033 126.739 84.6739 126.625 84.6093C126.51 84.5447 126.418 84.4478 126.359 84.3308C126.3 84.2137 126.277 84.0818 126.292 83.9516C126.308 83.8214 126.362 83.6988 126.448 83.5992C126.533 83.4997 126.646 83.4276 126.772 83.3922C126.856 83.3685 126.945 83.3617 127.031 83.3723C127.118 83.3828 127.202 83.4104 127.279 83.4535C127.355 83.4967 127.422 83.5544 127.476 83.6235C127.529 83.6926 127.569 83.7717 127.592 83.8562Z" fill="#263238"/>
<path d="M122.156 85.1602C122.191 85.2867 122.187 85.4206 122.146 85.545C122.104 85.6694 122.027 85.7788 121.923 85.8594C121.82 85.9399 121.695 85.9881 121.564 85.9977C121.433 86.0073 121.303 85.9779 121.189 85.9133C121.074 85.8488 120.982 85.7518 120.923 85.6348C120.864 85.5177 120.841 85.3858 120.856 85.2556C120.872 85.1254 120.926 85.0028 121.011 84.9032C121.097 84.8037 121.21 84.7316 121.336 84.6962C121.506 84.6495 121.688 84.672 121.842 84.759C121.995 84.8459 122.108 84.9902 122.156 85.1602Z" fill="#263238"/>
<path d="M120.816 82.8001L119.672 84.1801C119.56 84.0213 119.501 83.832 119.501 83.6381C119.501 83.4441 119.56 83.2549 119.672 83.0961C119.816 82.9454 120 82.8379 120.202 82.7856C120.404 82.7333 120.616 82.7383 120.816 82.8001Z" fill="#263238"/>
<path d="M126.28 81.1641L127.976 81.7481C127.989 81.5548 127.942 81.3621 127.842 81.1962C127.742 81.0303 127.593 80.899 127.416 80.8201C127.213 80.7662 127 80.7699 126.799 80.8306C126.598 80.8914 126.419 81.0069 126.28 81.1641Z" fill="#263238"/>
<path opacity="0.15" d="M124.464 123.14C124.464 123.14 124.464 123.14 124.464 123.116V123.096C124.466 123.088 124.466 123.08 124.464 123.072C124.462 123.064 124.462 123.056 124.464 123.048V123.024V123L119.792 114.4L119.16 115.124L123.772 123.716C123.801 123.764 123.822 123.817 123.832 123.872C123.836 123.889 123.836 123.906 123.833 123.922C123.829 123.939 123.822 123.955 123.812 123.968L124.444 123.24C124.448 123.23 124.448 123.218 124.444 123.208C124.446 123.199 124.446 123.189 124.444 123.18C124.454 123.169 124.461 123.155 124.464 123.14Z" fill="black"/>
<path opacity="0.2" d="M119.78 114.36V114.336V114.308L119.76 114.284C119.761 114.275 119.761 114.265 119.76 114.256V114.228L119.736 114.2L119.716 114.172L119.696 114.148L119.676 114.124V114.104V114.084L119.612 114.024H119.588H119.564L119.54 114.004H119.512H119.484L119.452 113.984L114.148 111H114.116H114.088H114.056H114.028H114H113.972H113.944H113.916H113.888H113.788C113.773 110.999 113.758 111.002 113.744 111.007C113.731 111.013 113.718 111.021 113.708 111.032L113.076 111.756C113.104 111.724 113.156 111.716 113.232 111.728C113.335 111.755 113.433 111.797 113.524 111.852L118.828 114.836C118.932 114.897 119.032 114.963 119.128 115.036C119.23 115.113 119.327 115.196 119.42 115.284C119.509 115.368 119.593 115.458 119.672 115.552C119.737 115.631 119.796 115.716 119.848 115.804L120.48 115.08L119.78 114.36Z" fill="black"/>
<path d="M142.756 96.752C142.004 95.46 140.852 94.552 139.36 94.436L138.468 95.8C137.539 97.5001 137.062 99.4106 137.084 101.348L137.244 115.68L136.192 116.12C133.234 117.397 130.141 118.336 126.972 118.92C125.319 117.611 123.264 116.914 121.156 116.948L121.956 118.404C120.472 119.352 117.124 117.644 117.124 117.644C116.876 119.732 118.232 121.9 120.024 123C121.816 124.1 138.956 122.484 142.588 120.132C144.988 118.584 144.412 103.804 144.412 103.804C144.58 101.34 144.003 98.8834 142.756 96.752Z" fill="#FFB6B6"/>
<path d="M113.488 113.3C113.376 113.866 113.31 114.44 113.292 115.016C113.427 116.386 114.009 117.673 114.948 118.68C115.141 118.9 115.384 119.071 115.656 119.18C115.793 119.233 115.942 119.249 116.087 119.227C116.232 119.204 116.369 119.144 116.484 119.052C116.685 118.811 116.788 118.502 116.772 118.188C116.815 117.724 116.789 117.256 116.696 116.8C116.598 116.341 116.338 115.932 115.964 115.648C115.672 115.479 115.36 115.344 115.036 115.248C114.718 115.114 114.434 114.909 114.208 114.648L113.488 113.3Z" fill="#FFB6B6"/>
<path d="M139.36 94.436C145.872 95.84 145.252 102.436 145.88 106.544C146.28 108.98 146.888 114.332 146.888 114.332C143.34 117.612 137.04 115.452 135.472 113.748C136.064 105.5 134.86 95.836 139.36 94.436Z" fill="#F5F6FA"/>
<path opacity="0.2" d="M139.36 94.436C145.872 95.84 145.252 102.436 145.88 106.544C146.28 108.98 146.888 114.332 146.888 114.332C143.34 117.612 137.04 115.452 135.472 113.748C136.064 105.5 134.86 95.836 139.36 94.436Z" fill="white"/>
<path d="M124.464 123.14C124.464 123.14 124.464 123.14 124.464 123.116V123.096C124.466 123.088 124.466 123.08 124.464 123.072C124.462 123.064 124.462 123.056 124.464 123.048V123.024V123L119.792 114.4V114.376V114.352V114.324L119.772 114.3C119.773 114.291 119.773 114.281 119.772 114.272V114.244L119.748 114.216L119.728 114.188L119.708 114.164L119.688 114.14V114.12V114.1L119.624 114.04H119.6H119.576L119.552 114.02H119.524H119.496L119.464 114L114.16 111.016H114.128H114.1H114.068H114.04H114.012H113.984H113.956H113.928H113.9H113.8C113.785 111.015 113.77 111.018 113.757 111.023C113.743 111.029 113.73 111.037 113.72 111.048L113.088 111.772H113.108C113.056 111.812 113.052 111.896 113.128 112.036L117.744 120.628C118.001 121.026 118.349 121.357 118.76 121.592L124.064 124.576C124.34 124.728 124.504 124.732 124.524 124.62C124.524 124.62 124.524 124.66 124.524 124.668L125.156 123.94C125.16 123.93 125.16 123.918 125.156 123.908C125.158 123.899 125.158 123.889 125.156 123.88C125.205 123.835 125.244 123.78 125.271 123.719C125.299 123.659 125.314 123.593 125.316 123.527C125.319 123.46 125.308 123.394 125.284 123.332C125.261 123.27 125.225 123.213 125.18 123.164C125.135 123.115 125.08 123.076 125.019 123.049C124.959 123.021 124.893 123.006 124.827 123.004C124.76 123.001 124.694 123.012 124.632 123.036C124.57 123.059 124.513 123.095 124.464 123.14ZM112.5 111.04C112.5 111.04 112.52 111.04 112.536 111.04C112.524 111.039 112.512 111.039 112.5 111.04ZM118.584 114.464C118.632 114.508 118.684 114.544 118.728 114.588C118.688 114.544 118.636 114.508 118.588 114.464H118.584ZM123.824 123.872C123.821 123.811 123.802 123.751 123.768 123.7C123.797 123.748 123.818 123.801 123.828 123.856C123.828 123.856 123.828 123.864 123.828 123.872H123.824Z" fill="#E0E0E0"/>
<path d="M183.644 134.752L177.032 134.944L170.42 134.752C170.136 139.216 171.004 143.768 172.208 145.992C172.494 146.562 172.952 147.028 173.516 147.324C175.468 148.448 178.62 148.448 180.56 147.324C181.135 147.024 181.595 146.543 181.868 145.956C183.064 143.72 183.928 139.2 183.644 134.752Z" fill="white"/>
<path d="M181.7 132.044C184.292 133.54 184.304 135.964 181.732 137.46C179.16 138.956 174.968 138.956 172.38 137.46C169.792 135.964 169.776 133.54 172.348 132.044C174.92 130.548 179.1 130.548 181.7 132.044Z" fill="#EBEBEB"/>
<path d="M180.668 132.64C182.688 133.804 182.7 135.696 180.692 136.864C178.684 138.032 175.416 138.032 173.396 136.864C171.376 135.696 171.364 133.804 173.372 132.64C175.38 131.476 178.648 131.472 180.668 132.64Z" fill="#E0E0E0"/>
<g opacity="0.15">
<path d="M180.668 132.64C182.688 133.804 182.7 135.696 180.692 136.864C178.684 138.032 175.416 138.032 173.396 136.864C171.376 135.696 171.364 133.804 173.372 132.64C175.38 131.476 178.648 131.472 180.668 132.64Z" fill="black"/>
</g>
<path d="M187.904 106.536C173 111.416 172.868 121.384 176.228 128.484C177.072 129.92 179.636 130.692 181.868 121.86L177.956 122.364L182.516 120.052L183.716 116.512L179.916 116.792L184.74 114.764C185.625 111.959 186.681 109.211 187.904 106.536Z" fill="#F5F6FA"/>
<path opacity="0.2" d="M187.904 106.536C173 111.416 172.868 121.384 176.228 128.484C177.072 129.92 179.636 130.692 181.868 121.86L177.956 122.364L182.516 120.052L183.716 116.512L179.916 116.792L184.74 114.764C185.625 111.959 186.681 109.211 187.904 106.536Z" fill="black"/>
<path d="M187.904 106.536C173 111.416 172.868 121.384 176.228 128.484C177.072 129.92 179.636 130.692 181.868 121.86L177.956 122.364L182.516 120.052L183.716 116.512L179.916 116.792L184.74 114.764C185.625 111.959 186.681 109.211 187.904 106.536Z" fill="#37474F"/>
<path d="M183.7 109.028C175.844 114.992 175.132 121.828 177.352 128.968C176.556 122.684 175.7 116.328 183.7 109.028Z" fill="white"/>
<path d="M162.664 116.66C177.352 118.728 179.136 127.992 177.184 135.16C176.636 136.64 174.384 137.784 170.832 129.932L174.56 129.752L169.928 128.356L168.236 125.252L171.836 124.884L167.004 123.796C165.706 121.33 164.256 118.947 162.664 116.66Z" fill="#F5F6FA"/>
<path opacity="0.2" d="M162.664 116.66C177.352 118.728 179.136 127.992 177.184 135.16C176.636 136.64 174.384 137.784 170.832 129.932L174.56 129.752L169.928 128.356L168.236 125.252L171.836 124.884L167.004 123.796C165.706 121.33 164.256 118.947 162.664 116.66Z" fill="white"/>
<path d="M162.664 116.66C177.352 118.728 179.136 127.992 177.184 135.16C176.636 136.64 174.384 137.784 170.832 129.932L174.56 129.752L169.928 128.356L168.236 125.252L171.836 124.884L167.004 123.796C165.706 121.33 164.256 118.947 162.664 116.66Z" fill="#263238"/>
<path d="M167.004 118.284C175.3 122.532 177.108 128.8 176.228 135.8C175.916 129.816 175.648 123.756 167.004 118.284Z" fill="white"/>
<path d="M192.204 120.132C178.732 120.352 176.088 128.5 177.044 135.18C177.372 136.576 179.284 137.86 183.356 131.18L180.016 130.6L184.348 129.86L186.22 127.252L183.02 126.52L187.496 126.08C188.942 124.003 190.514 122.016 192.204 120.132Z" fill="#F5F6FA"/>
<path d="M188.1 121.108C180.136 124.008 177.816 129.44 177.828 135.864C178.788 130.504 179.7 125.072 188.1 121.108Z" fill="white"/>
<path d="M192.204 120.132C178.732 120.352 176.088 128.5 177.044 135.18C177.372 136.576 179.284 137.86 183.356 131.18L180.016 130.6L184.348 129.86L186.22 127.252L183.02 126.52L187.496 126.08C188.942 124.003 190.514 122.016 192.204 120.132Z" fill="#455A64"/>
</svg>
