<svg width="201" height="200" viewBox="0 0 201 200" fill="none" xmlns="http://www.w3.org/2000/svg">
<path d="M39.2639 181.82C4.99992 162.04 4.99992 129.964 39.2639 110.184C73.5279 90.4041 129.076 90.4041 163.34 110.184C197.604 129.964 197.604 162.04 163.34 181.82C129.076 201.6 73.5239 201.6 39.2639 181.82Z" fill="#6C757D"/>
<path d="M102.284 184.64C123.587 184.64 140.856 174.668 140.856 162.368C140.856 150.067 123.587 140.096 102.284 140.096C80.9814 140.096 63.7122 150.067 63.7122 162.368C63.7122 174.668 80.9814 184.64 102.284 184.64Z" fill="#E6E6E6"/>
<path d="M81.4961 179.104C81.3364 179.875 81.022 180.606 80.5721 181.252C79.6695 182.53 78.4841 183.583 77.1081 184.328C71.1081 187.788 61.3921 187.788 55.3961 184.328C54.0201 183.583 52.8347 182.53 51.9321 181.252C51.485 180.605 51.1722 179.874 51.0121 179.104C50.4801 176.504 51.9441 173.792 55.4121 171.796C61.4121 168.332 71.1281 168.332 77.1241 171.796C80.5641 173.792 82.0281 176.504 81.4961 179.104Z" fill="#E6E6E6"/>
<path d="M22.5425 74.0934L38.4825 64.8934C38.5406 64.8511 38.6106 64.8284 38.6825 64.8284C38.7544 64.8284 38.8244 64.8511 38.8825 64.8934C38.9745 64.9734 40.2345 65.6454 40.3345 65.7134C40.3945 65.7671 40.441 65.8343 40.4702 65.9093C40.4994 65.9844 40.5105 66.0653 40.5025 66.1454V80.4894C40.4994 80.6958 40.4479 80.8985 40.352 81.0813C40.2561 81.264 40.1186 81.4216 39.9505 81.5414L37.1505 83.1414L22.1665 74.5094C22.2536 74.3405 22.3832 74.1971 22.5425 74.0934Z" fill="#F5F6FA"/>
<path opacity="0.7" d="M22.5425 74.0934L38.4825 64.8934C38.5406 64.8511 38.6106 64.8284 38.6825 64.8284C38.7544 64.8284 38.8244 64.8511 38.8825 64.8934C38.9745 64.9734 40.2345 65.6454 40.3345 65.7134C40.3945 65.7671 40.441 65.8343 40.4702 65.9093C40.4994 65.9844 40.5105 66.0653 40.5025 66.1454V80.4894C40.4994 80.6958 40.4479 80.8985 40.352 81.0813C40.2561 81.264 40.1186 81.4216 39.9505 81.5414L37.1505 83.1414L22.1665 74.5094C22.2536 74.3405 22.3832 74.1971 22.5425 74.0934Z" fill="white"/>
<path d="M23.6506 90.7615C23.5426 90.6935 22.2786 89.9895 22.1786 89.9255C22.116 89.8726 22.0673 89.8053 22.0366 89.7293C22.006 89.6533 21.9943 89.571 22.0026 89.4895V75.1455C22.0082 74.9223 22.0686 74.7039 22.1786 74.5095L37.1666 83.1535L24.0266 90.7535C23.9713 90.7907 23.9064 90.8113 23.8398 90.8127C23.7731 90.8141 23.7075 90.7963 23.6506 90.7615Z" fill="#F5F6FA"/>
<path opacity="0.4" d="M23.6506 90.7615C23.5426 90.6935 22.2786 89.9895 22.1786 89.9255C22.116 89.8726 22.0673 89.8053 22.0366 89.7293C22.006 89.6533 21.9943 89.571 22.0026 89.4895V75.1455C22.0082 74.9223 22.0686 74.7039 22.1786 74.5095L37.1666 83.1535L24.0266 90.7535C23.9713 90.7907 23.9064 90.8113 23.8398 90.8127C23.7731 90.8141 23.7075 90.7963 23.6506 90.7615Z" fill="white"/>
<path d="M24.0146 90.7415L39.9546 81.5415C40.1227 81.4217 40.2602 81.2641 40.3561 81.0814C40.452 80.8986 40.5036 80.6959 40.5066 80.4895V66.1415C40.5066 65.7415 40.2586 65.5495 39.9546 65.7415L24.0146 74.9415C23.8466 75.0613 23.7091 75.2189 23.6132 75.4017C23.5173 75.5844 23.4657 75.7872 23.4626 75.9935V90.3175C23.4626 90.7175 23.7106 90.9175 24.0146 90.7415Z" fill="#F5F6FA"/>
<path opacity="0.55" d="M24.0146 90.7415L39.9546 81.5415C40.1227 81.4217 40.2602 81.2641 40.3561 81.0814C40.452 80.8986 40.5036 80.6959 40.5066 80.4895V66.1415C40.5066 65.7415 40.2586 65.5495 39.9546 65.7415L24.0146 74.9415C23.8466 75.0613 23.7091 75.2189 23.6132 75.4017C23.5173 75.5844 23.4657 75.7872 23.4626 75.9935V90.3175C23.4626 90.7175 23.7106 90.9175 24.0146 90.7415Z" fill="white"/>
<path opacity="0.4" d="M23.4627 90.3175V90.0375L30.0507 79.1175L23.5427 75.5175L23.5907 75.3975L31.6987 78.7775C31.8707 78.8495 32.0987 78.7215 32.2627 78.4495L40.3587 65.7295C40.3767 65.7463 40.3928 65.7651 40.4067 65.7855L33.9147 76.8935L40.5067 80.2055V80.4855C40.5022 80.7117 40.4447 80.9336 40.3387 81.1335L33.5787 77.4655L32.6227 79.1175C32.2227 79.7655 31.7267 80.0655 31.3467 79.8535L30.3907 79.3215L23.6507 90.7615C23.5858 90.7082 23.5348 90.6399 23.5021 90.5626C23.4694 90.4853 23.4558 90.4012 23.4627 90.3175Z" fill="#2C2C2C"/>
<path d="M43.5586 62.9655L42.2506 62.2055C41.6786 61.8815 40.8946 61.9295 40.0306 62.4295C39.105 63.0283 38.3344 63.8378 37.7816 64.7916C37.2289 65.7455 36.9099 66.8166 36.8506 67.9175C36.8506 68.9255 37.2026 69.6335 37.7746 69.9615L38.9746 70.6455L39.2546 70.1775C39.5731 70.106 39.8791 69.9873 40.1626 69.8255C41.0824 69.2251 41.8479 68.4164 42.3969 67.465C42.9459 66.5136 43.263 65.4463 43.3226 64.3495C43.3218 64.0797 43.2882 63.8111 43.2226 63.5495L43.5586 62.9655Z" fill="#2C2C2C"/>
<path d="M36.9706 66.8416C36.893 67.195 36.8527 67.5557 36.8506 67.9176C36.8506 68.9256 37.2026 69.6335 37.7746 69.9615L38.9746 70.6456L39.2546 70.1776C39.5731 70.1061 39.8791 69.9874 40.1626 69.8255C40.4702 69.6435 40.7584 69.4304 41.0226 69.1896L36.9706 66.8416Z" fill="#2C2C2C"/>
<path d="M41.2507 63.1454C40.3294 63.7446 39.5627 64.5529 39.0129 65.5045C38.4631 66.456 38.1457 67.524 38.0867 68.6214C38.0867 70.6214 39.5027 71.4534 41.2507 70.4454C42.1705 69.845 42.9359 69.0363 43.485 68.0849C44.034 67.1335 44.3511 66.0662 44.4107 64.9694C44.4187 62.9534 43.0027 62.1374 41.2507 63.1454Z" fill="#2C2C2C"/>
<path d="M42.5066 65.9495V65.1775C42.5066 64.2935 41.9706 63.8855 41.3066 64.2695C40.9412 64.531 40.6423 64.8747 40.4339 65.2727C40.2255 65.6708 40.1134 66.1122 40.1066 66.5615V67.2535C40.0935 67.7313 39.9556 68.1974 39.7066 68.6055C39.6462 68.7132 39.6132 68.8341 39.6106 68.9575C39.6106 69.1815 39.7466 69.2855 39.9146 69.1895L42.7146 67.5695C42.8067 67.5039 42.8822 67.4176 42.935 67.3176C42.9878 67.2176 43.0164 67.1066 43.0186 66.9935C43.0222 66.9501 43.0162 66.9065 43.0009 66.8657C42.9857 66.8249 42.9617 66.7879 42.9306 66.7575C42.786 66.6821 42.6679 66.5643 42.5921 66.4199C42.5163 66.2755 42.4865 66.1113 42.5066 65.9495Z" fill="white"/>
<path d="M41.8825 68.2896C41.8788 68.5051 41.8248 68.7168 41.7248 68.9078C41.6247 69.0988 41.4815 69.2637 41.3065 69.3896C40.9865 69.5736 40.7305 69.3896 40.7305 68.9536L41.8825 68.2896Z" fill="white"/>
<path d="M171.884 96.108L154.4 106.212C154.283 106.291 154.185 106.396 154.116 106.519C154.046 106.641 154.007 106.779 154 106.92V123.588C154.007 123.729 154.046 123.867 154.116 123.99C154.185 124.112 154.283 124.217 154.4 124.296L155.072 124.696C155.199 124.761 155.339 124.795 155.482 124.795C155.625 124.795 155.765 124.761 155.892 124.696L173.388 114.592C173.505 114.513 173.603 114.408 173.672 114.286C173.742 114.163 173.781 114.025 173.788 113.884V97.204C173.781 97.063 173.742 96.9254 173.672 96.8025C173.603 96.6795 173.505 96.5746 173.388 96.496L172.716 96.096C172.587 96.0309 172.443 95.998 172.299 96.0001C172.154 96.0022 172.011 96.0392 171.884 96.108Z" fill="#F5F6FA"/>
<path opacity="0.3" d="M171.884 96.108L154.4 106.212C154.283 106.291 154.185 106.396 154.116 106.519C154.046 106.641 154.007 106.779 154 106.92V123.588C154.007 123.729 154.046 123.867 154.116 123.99C154.185 124.112 154.283 124.217 154.4 124.296L155.072 124.696C155.199 124.761 155.339 124.795 155.482 124.795C155.625 124.795 155.765 124.761 155.892 124.696L173.388 114.592C173.505 114.513 173.603 114.408 173.672 114.286C173.742 114.163 173.781 114.025 173.788 113.884V97.204C173.781 97.063 173.742 96.9254 173.672 96.8025C173.603 96.6795 173.505 96.5746 173.388 96.496L172.716 96.096C172.587 96.0309 172.443 95.998 172.299 96.0001C172.154 96.0022 172.011 96.0392 171.884 96.108Z" fill="black"/>
<path d="M173.768 97.0839C173.716 96.9119 173.56 96.8599 173.368 96.9679L155.88 107.072C155.759 107.146 155.659 107.251 155.592 107.376L154.1 106.516C154.167 106.391 154.267 106.286 154.388 106.212L171.884 96.1079C172.012 96.0448 172.152 96.012 172.294 96.012C172.436 96.012 172.577 96.0448 172.704 96.1079L173.376 96.5079C173.476 96.573 173.563 96.6575 173.63 96.7564C173.697 96.8553 173.744 96.9667 173.768 97.0839Z" fill="#F5F6FA"/>
<path opacity="0.24" d="M173.768 97.0839C173.716 96.9119 173.56 96.8599 173.368 96.9679L155.88 107.072C155.759 107.146 155.659 107.251 155.592 107.376L154.1 106.516C154.167 106.391 154.267 106.286 154.388 106.212L171.884 96.1079C172.012 96.0448 172.152 96.012 172.294 96.012C172.436 96.012 172.577 96.0448 172.704 96.1079L173.376 96.5079C173.476 96.573 173.563 96.6575 173.63 96.7564C173.697 96.8553 173.744 96.9667 173.768 97.0839Z" fill="white"/>
<path d="M173.376 96.9681L155.88 107.072C155.763 107.151 155.665 107.256 155.596 107.379C155.526 107.501 155.487 107.639 155.48 107.78V124.448C155.48 124.712 155.664 124.816 155.88 124.684L173.376 114.58C173.493 114.501 173.591 114.397 173.66 114.274C173.73 114.151 173.769 114.013 173.776 113.872V97.2041C173.784 96.9441 173.6 96.8361 173.376 96.9681Z" fill="#F5F6FA"/>
<path d="M168.56 107.54L165.92 112.216L167.776 114.616L161.648 109.332L156.364 120.772V122.844C156.364 123.1 156.544 123.204 156.764 123.076L172.568 113.952C172.684 113.875 172.781 113.772 172.851 113.651C172.92 113.531 172.96 113.395 172.968 113.256V111.568L168.56 107.54ZM169.832 103.94C170.064 103.791 170.258 103.588 170.397 103.35C170.536 103.112 170.616 102.844 170.632 102.568C170.632 102.064 170.276 101.86 169.832 102.112C169.6 102.261 169.406 102.463 169.267 102.702C169.128 102.94 169.047 103.208 169.032 103.484C169.04 104.004 169.392 104.208 169.832 103.956V103.94Z" fill="#2C2C2C"/>
<path d="M159.635 51.8282C158.071 50.9402 155.915 51.0762 153.535 52.4482C148.735 55.2122 144.867 61.9362 144.867 67.4642C144.867 70.2242 145.835 72.1642 147.403 73.0642C148.055 73.4402 149.711 74.3882 150.363 74.7682C151.931 75.6682 154.095 75.5362 156.487 74.1562C161.287 71.3922 165.155 64.6722 165.155 59.1442C165.155 56.3882 164.191 54.4482 162.631 53.5442C161.975 53.1682 160.299 52.2042 159.635 51.8282Z" fill="#F5F6FA"/>
<path opacity="0.25" d="M159.635 51.8282C158.071 50.9402 155.915 51.0762 153.535 52.4482C148.735 55.2122 144.867 61.9362 144.867 67.4642C144.867 70.2242 145.835 72.1642 147.403 73.0642C148.055 73.4402 149.711 74.3882 150.363 74.7682C151.931 75.6682 154.095 75.5362 156.487 74.1562C161.287 71.3922 165.155 64.6722 165.155 59.1442C165.155 56.3882 164.191 54.4482 162.631 53.5442C161.975 53.1682 160.299 52.2042 159.635 51.8282Z" fill="white"/>
<path d="M151.671 74.8923C151.131 75.7711 150.387 76.5076 149.503 77.0403C148.519 77.6176 147.392 77.9033 146.251 77.8643C146.198 77.8649 146.146 77.8511 146.099 77.8243L143.147 76.1483C143.103 76.1223 143.065 76.0849 143.039 76.04C143.014 75.9951 143 75.9441 143 75.8923C143 75.8405 143.014 75.7895 143.039 75.7446C143.065 75.6997 143.103 75.6623 143.147 75.6363C143.897 75.2291 144.535 74.6448 145.007 73.9344C145.479 73.224 145.77 72.409 145.855 71.5603L151.671 74.8923Z" fill="#F5F6FA"/>
<path opacity="0.15" d="M151.671 74.8923C151.131 75.7711 150.387 76.5076 149.503 77.0403C148.519 77.6176 147.392 77.9033 146.251 77.8643C146.198 77.8649 146.146 77.8511 146.099 77.8243L143.147 76.1483C143.103 76.1223 143.065 76.0849 143.039 76.04C143.014 75.9951 143 75.9441 143 75.8923C143 75.8405 143.014 75.7895 143.039 75.7446C143.065 75.6997 143.103 75.6623 143.147 75.6363C143.897 75.2291 144.535 74.6448 145.007 73.9344C145.479 73.224 145.77 72.409 145.855 71.5603L151.671 74.8923Z" fill="black"/>
<path d="M162.615 67.6934C166.001 61.8295 166.002 55.4919 162.617 53.5379C159.233 51.5839 153.745 54.7535 150.359 60.6174C146.974 66.4813 146.973 72.8189 150.357 74.7729C153.742 76.7268 159.23 73.5573 162.615 67.6934Z" fill="#F5F6FA"/>
<path d="M148.784 71.9402C148.94 73.0022 148.767 74.0867 148.288 75.0472C147.808 76.0078 147.046 76.7983 146.104 77.3122C146.048 77.3447 146.004 77.3946 145.979 77.4543C145.954 77.5141 145.949 77.5803 145.966 77.6429C145.982 77.7056 146.018 77.7611 146.069 77.8011C146.12 77.841 146.183 77.8632 146.248 77.8642C147.386 77.9075 148.514 77.6303 149.504 77.0642C151.808 75.6002 152.096 73.8642 152.096 73.8642L148.784 71.9402Z" fill="#F5F6FA"/>
<path d="M157.499 68.1482V60.4682L154.555 62.1642V63.7082L155.579 63.3802V69.2682L154.655 70.0682V71.6042L158.419 69.4282V67.8962L157.499 68.1482ZM156.339 59.8162C156.68 59.5722 156.958 59.2519 157.151 58.8809C157.345 58.5099 157.449 58.0987 157.455 57.6802C157.455 56.8562 156.955 56.4802 156.339 56.8362C155.998 57.0795 155.719 57.3996 155.525 57.7706C155.33 58.1417 155.226 58.5532 155.219 58.9722C155.219 59.8082 155.719 60.1842 156.339 59.8282V59.8162Z" fill="#2C2C2C"/>
<path d="M48.2839 106.976C48.8243 106.095 49.5677 105.357 50.4519 104.824C51.4366 104.248 52.5642 103.964 53.7039 104.004C53.7571 104.004 53.8094 104.018 53.8559 104.044L56.8039 105.74C56.8488 105.766 56.886 105.803 56.9119 105.848C56.9377 105.893 56.9513 105.944 56.9513 105.996C56.9513 106.047 56.9377 106.098 56.9119 106.143C56.886 106.188 56.8488 106.226 56.8039 106.252C56.0558 106.66 55.4184 107.245 54.9466 107.955C54.4749 108.665 54.1829 109.48 54.0959 110.328L48.2839 106.976Z" fill="#F5F6FA"/>
<path opacity="0.25" d="M48.2839 106.976C48.8243 106.095 49.5677 105.357 50.4519 104.824C51.4366 104.248 52.5642 103.964 53.7039 104.004C53.7571 104.004 53.8094 104.018 53.8559 104.044L56.8039 105.74C56.8488 105.766 56.886 105.803 56.9119 105.848C56.9377 105.893 56.9513 105.944 56.9513 105.996C56.9513 106.047 56.9377 106.098 56.9119 106.143C56.886 106.188 56.8488 106.226 56.8039 106.252C56.0558 106.66 55.4184 107.245 54.9466 107.955C54.4749 108.665 54.1829 109.48 54.0959 110.328L48.2839 106.976Z" fill="white"/>
<path d="M54.128 111.632C53.9719 110.57 54.1447 109.486 54.6231 108.526C55.1015 107.565 55.8626 106.774 56.804 106.26C56.8608 106.228 56.9056 106.179 56.9314 106.12C56.9572 106.06 56.9625 105.994 56.9465 105.931C56.9304 105.869 56.894 105.813 56.8428 105.773C56.7917 105.733 56.7288 105.712 56.664 105.712C55.5218 105.672 54.3918 105.957 53.404 106.532C51.1 107.992 50.812 109.732 50.812 109.732L54.128 111.632Z" fill="#F5F6FA"/>
<path d="M48.768 106.172C47.204 105.284 45.048 105.42 42.668 106.796C37.868 109.56 34 116.28 34 121.808C34 124.572 34.968 126.512 36.536 127.408L39.496 129.112C41.064 130.016 43.228 129.884 45.62 128.504C50.42 125.74 54.288 119.016 54.288 113.488C54.288 110.732 53.324 108.796 51.76 107.888C51.108 107.516 49.432 106.548 48.768 106.172Z" fill="#F5F6FA"/>
<path opacity="0.15" d="M48.768 106.172C47.204 105.284 45.048 105.42 42.668 106.796C37.868 109.56 34 116.28 34 121.808C34 124.572 34.968 126.512 36.536 127.408L39.496 129.112C41.064 130.016 43.228 129.884 45.62 128.504C50.42 125.74 54.288 119.016 54.288 113.488C54.288 110.732 53.324 108.796 51.76 107.888C51.108 107.516 49.432 106.548 48.768 106.172Z" fill="black"/>
<path d="M36.9519 123.508C36.9519 129.036 40.8319 131.276 45.6199 128.512C50.4079 125.748 54.2879 119.024 54.2879 113.496C54.2879 107.968 50.4079 105.728 45.6199 108.492C40.8319 111.256 36.9519 117.98 36.9519 123.508Z" fill="#F5F6FA"/>
<path d="M49.052 115.164C49.052 112.832 47.516 111.828 45.62 112.92C43.724 114.012 42.188 116.792 42.188 119.128V119.656C42.188 121.452 44.224 123.536 45.16 124.4C45.2127 124.449 45.2762 124.485 45.3454 124.505C45.4145 124.525 45.4875 124.529 45.5583 124.516C45.6292 124.502 45.6959 124.473 45.7532 124.429C45.8104 124.385 45.8566 124.328 45.888 124.264C46.688 122.612 49.052 117.628 49.052 115.696V115.164ZM45.62 118.988C44.612 119.568 43.796 119.096 43.796 117.936C43.8299 117.303 44.0127 116.687 44.3297 116.139C44.6467 115.591 45.0888 115.125 45.62 114.78C46.624 114.2 47.44 114.672 47.44 115.832C47.405 116.463 47.2221 117.078 46.9059 117.626C46.5898 118.175 46.1493 118.641 45.62 118.988Z" fill="#2C2C2C"/>
<path d="M64.308 39.0319L62.848 38.1879C62.8185 38.1772 62.7942 38.1557 62.78 38.1279L62.512 37.6599L63.38 37.1519L63.352 37.2279L64.308 39.0319Z" fill="#E0E0E0"/>
<path d="M54.012 39.46C54.025 39.7054 54.0959 39.9443 54.2189 40.1571C54.342 40.3698 54.5137 40.5504 54.72 40.684L55.292 41.016C55.4913 41.1154 55.7092 41.172 55.9317 41.1824C56.1541 41.1927 56.3763 41.1565 56.584 41.076C56.252 41.2 56 41.012 56 40.608V33.552C56.0094 33.3062 56.081 33.0667 56.208 32.856L54.208 31.708C54.0803 31.9199 54.0087 32.1608 54 32.408L54.012 39.46Z" fill="#E0E0E0"/>
<path d="M63.42 37.1519C63.3936 37.1067 63.3505 37.0737 63.3 37.0599H63.248C63.2126 37.0587 63.1776 37.0685 63.148 37.0879L56.608 40.8399C56.579 40.859 56.5482 40.8751 56.516 40.8879C56.4816 40.9015 56.4449 40.9083 56.408 40.9079C56.244 40.9079 56.22 40.7159 56.22 40.6039V33.5519C56.235 33.3424 56.2972 33.139 56.4017 32.9569C56.5063 32.7747 56.6506 32.6185 56.824 32.4999L72.384 23.5199C72.449 23.4791 72.5233 23.4557 72.6 23.4519C72.636 23.4519 72.728 23.4519 72.768 23.6039C72.7805 23.6536 72.7872 23.7046 72.788 23.7559V30.8079C72.8269 31.0118 72.7945 31.2229 72.6962 31.4058C72.5978 31.5886 72.4396 31.732 72.248 31.8119L65.52 35.6999C65.4764 35.7225 65.4434 35.7613 65.428 35.8079L64.396 38.7879L63.42 37.1519Z" fill="#FAFAFA"/>
<path d="M72.556 23.6398C72.5599 23.6731 72.5599 23.7066 72.556 23.7398V30.8078C72.556 31.2078 72.556 31.3878 72.116 31.6398L65.384 35.5278C65.3021 35.5754 65.2397 35.6506 65.208 35.7398L64.32 38.3078L63.58 37.0318C63.5272 36.9415 63.441 36.8754 63.34 36.8478C63.3056 36.8423 63.2704 36.8423 63.236 36.8478C63.1656 36.8486 63.0966 36.8679 63.036 36.9038L56.504 40.6718L56.448 40.6998H56.412C56.4082 40.6666 56.4082 40.6331 56.412 40.5998V33.5518C56.421 33.3741 56.4761 33.2018 56.572 33.0518C56.6518 32.8986 56.7704 32.7689 56.916 32.6758L72.448 23.6758C72.4779 23.6589 72.5103 23.6467 72.544 23.6398M72.568 23.2398C72.4558 23.2421 72.3465 23.2753 72.252 23.3358L56.704 32.3118C56.4954 32.4416 56.3244 32.6236 56.208 32.8398C56.0805 33.0503 56.0089 33.2899 56 33.5358V40.6078C56 40.9278 56.16 41.1118 56.4 41.1118C56.4585 41.112 56.5166 41.1026 56.572 41.0838H56.596C56.6392 41.0679 56.6807 41.0478 56.72 41.0238L63.248 37.2318L64.256 38.9798C64.2694 39.003 64.2886 39.0222 64.3118 39.0356C64.335 39.0489 64.3613 39.0559 64.388 39.0558C64.4195 39.0567 64.4505 39.0474 64.4764 39.0295C64.5023 39.0115 64.5218 38.9857 64.532 38.9558L65.6 35.8718L72.328 31.9838C72.5501 31.8867 72.7335 31.7184 72.8494 31.5054C72.9652 31.2925 73.007 31.0471 72.968 30.8078V23.7398C72.9677 23.6725 72.9596 23.6054 72.944 23.5398C72.9289 23.4544 72.8841 23.377 72.8175 23.3214C72.7509 23.2658 72.6668 23.2355 72.58 23.2358L72.568 23.2398Z" fill="#E0E0E0"/>
<path d="M72.944 23.5519C72.86 23.2519 72.588 23.1519 72.264 23.3439L56.708 32.3159C56.4974 32.4444 56.3248 32.6266 56.208 32.8439L54.208 31.6959C54.3269 31.472 54.5037 31.2842 54.72 31.1519L70.272 22.1679C70.491 22.0575 70.7328 22 70.978 22C71.2232 22 71.465 22.0575 71.684 22.1679L72.264 22.4999C72.4441 22.6186 72.5975 22.7734 72.7146 22.9545C72.8316 23.1356 72.9097 23.339 72.944 23.5519Z" fill="#F0F0F0"/>
<path d="M61.3041 32.9759C61.0425 33.1475 60.8248 33.378 60.6685 33.6489C60.5122 33.9198 60.4216 34.2236 60.4041 34.5359C60.4041 35.1079 60.8041 35.3359 61.3041 35.0519C61.5651 34.8808 61.7824 34.6509 61.9387 34.3807C62.095 34.1105 62.1859 33.8075 62.2041 33.4959C62.2041 32.9239 61.8001 32.6919 61.3041 32.9759Z" fill="#2C2C2C"/>
<path d="M64.308 31.256C64.0469 31.4271 63.8296 31.657 63.6733 31.9272C63.517 32.1974 63.4262 32.5004 63.408 32.812C63.408 33.388 63.808 33.612 64.308 33.332C64.569 33.1608 64.7863 32.931 64.9426 32.6608C65.0989 32.3906 65.1898 32.0876 65.208 31.776C65.208 31.2 64.804 30.968 64.308 31.256Z" fill="#2C2C2C"/>
<path d="M67.316 29.5518C67.0537 29.7216 66.8353 29.9511 66.6788 30.2216C66.5224 30.4921 66.4323 30.7958 66.416 31.1078C66.416 31.6798 66.816 31.9078 67.316 31.6278C67.5763 31.4563 67.7929 31.2262 67.9484 30.9561C68.104 30.6859 68.1943 30.3831 68.212 30.0718C68.212 29.4798 67.812 29.2478 67.316 29.5518Z" fill="#2C2C2C"/>
<path d="M112.384 50.4681C112.397 50.7131 112.467 50.9517 112.59 51.1643C112.712 51.377 112.883 51.5578 113.088 51.6921L113.664 52.0241C113.863 52.1235 114.081 52.1802 114.304 52.1905C114.526 52.2008 114.748 52.1646 114.956 52.0841C114.624 52.2121 114.372 52.0201 114.372 51.6161V38.5161C114.38 38.2706 114.45 38.0311 114.576 37.8201L112.576 36.6721C112.45 36.8831 112.38 37.1226 112.372 37.3681L112.384 50.4681Z" fill="#E0E0E0"/>
<path d="M117.276 50.5242L114.98 51.8522C114.951 51.8701 114.92 51.8849 114.888 51.8962H114.864C114.828 51.9011 114.792 51.9011 114.756 51.8962C114.592 51.8962 114.568 51.7042 114.568 51.5882V38.5162C114.582 38.3065 114.644 38.1026 114.748 37.9203C114.853 37.738 114.998 37.582 115.172 37.4642L128.772 29.6242C128.836 29.5814 128.911 29.5565 128.988 29.5522C129.024 29.5522 129.116 29.5522 129.156 29.7082C129.169 29.7566 129.175 29.8063 129.176 29.8562V42.9562C129.216 43.1602 129.184 43.3716 129.085 43.5546C128.987 43.7377 128.828 43.881 128.636 43.9602L119.636 49.1602L117.276 50.5242Z" fill="#FAFAFA"/>
<path d="M128.952 29.7561C128.956 29.7893 128.956 29.8228 128.952 29.8561V42.9561C128.952 43.3561 128.952 43.5361 128.512 43.7881L119.512 48.9881L117.16 50.3481L114.86 51.6801C114.842 51.6904 114.824 51.6985 114.804 51.7041H114.784C114.778 51.6696 114.778 51.6345 114.784 51.6001V38.5161C114.793 38.339 114.847 38.167 114.94 38.0161C115.021 37.8625 115.141 37.7329 115.288 37.6401L128.856 29.8001C128.886 29.7823 128.918 29.7689 128.952 29.7601M128.976 29.3601C128.864 29.3642 128.755 29.3973 128.66 29.4561L115.06 37.3001C114.851 37.4298 114.68 37.6118 114.564 37.8281C114.436 38.0385 114.365 38.2781 114.356 38.5241V51.6241C114.356 51.9481 114.512 52.1321 114.756 52.1321C114.815 52.1304 114.873 52.1196 114.928 52.1001H114.952C114.995 52.0841 115.037 52.064 115.076 52.0401L117.372 50.7121L119.72 49.3521L128.72 44.1521C128.942 44.0549 129.125 43.8866 129.241 43.6736C129.357 43.4607 129.399 43.2153 129.36 42.9761V29.8561C129.36 29.7887 129.352 29.7216 129.336 29.6561C129.321 29.5706 129.276 29.4932 129.209 29.4376C129.143 29.382 129.059 29.3517 128.972 29.3521L128.976 29.3601Z" fill="#E0E0E0"/>
<path d="M129.34 29.6562C129.26 29.3562 128.984 29.2562 128.66 29.4482L115.06 37.2962C114.852 37.4243 114.681 37.6051 114.564 37.8202L112.564 36.6762C112.693 36.4558 112.878 36.2736 113.1 36.1482L126.68 28.3042C126.899 28.1938 127.141 28.1362 127.386 28.1362C127.631 28.1362 127.873 28.1938 128.092 28.3042L128.672 28.6362C128.846 28.7525 128.995 28.9027 129.11 29.078C129.225 29.2533 129.303 29.4499 129.34 29.6562Z" fill="#F0F0F0"/>
<path d="M118.644 45.6843C118.542 45.6851 118.441 45.6589 118.352 45.6082C118.227 45.5186 118.127 45.3973 118.064 45.2568C118.001 45.1163 117.976 44.9615 117.992 44.8082V39.4003C117.995 39.0753 118.076 38.7559 118.228 38.4686C118.38 38.1812 118.598 37.9343 118.864 37.7483L125.708 33.8003C125.809 33.7321 125.927 33.6925 126.049 33.6855C126.17 33.6784 126.292 33.7043 126.4 33.7603C126.527 33.8488 126.627 33.9698 126.691 34.1105C126.755 34.2512 126.78 34.4065 126.764 34.5603V39.9643C126.76 40.289 126.679 40.6082 126.527 40.8955C126.376 41.1827 126.158 41.4298 125.892 41.6163L125.464 41.8603V43.2923C125.462 43.4158 125.431 43.5371 125.374 43.6468C125.317 43.7564 125.236 43.8514 125.136 43.9243C125.086 43.9591 125.029 43.9803 124.968 43.986C124.908 43.9916 124.847 43.9813 124.792 43.9563L123.192 43.1563L119.052 45.5563C118.93 45.6337 118.789 45.6779 118.644 45.6843ZM126.108 34.0403C126.031 34.0439 125.957 34.0673 125.892 34.1083L119.048 38.0603C118.838 38.2155 118.666 38.4172 118.547 38.6497C118.428 38.8821 118.364 39.139 118.36 39.4003V44.8243C118.349 44.9113 118.359 44.9997 118.39 45.0818C118.421 45.164 118.471 45.2376 118.536 45.2963C118.59 45.3176 118.648 45.3252 118.705 45.3182C118.762 45.3112 118.817 45.2899 118.864 45.2563L123.088 42.8163C123.115 42.8026 123.144 42.7954 123.174 42.7954C123.204 42.7954 123.233 42.8026 123.26 42.8163L124.952 43.6403C125.036 43.5487 125.086 43.4319 125.096 43.3082V41.7723C125.096 41.7398 125.104 41.708 125.121 41.6799C125.137 41.6518 125.16 41.6285 125.188 41.6123L125.708 41.3123C125.917 41.1578 126.088 40.9574 126.207 40.7264C126.326 40.4954 126.391 40.2402 126.396 39.9803V34.5362C126.407 34.4495 126.396 34.3613 126.365 34.2797C126.333 34.1981 126.282 34.1255 126.216 34.0683C126.183 34.0493 126.146 34.0396 126.108 34.0403Z" fill="#2C2C2C"/>
<path d="M117.864 49.1161H117.788C117.723 49.0954 117.668 49.0531 117.631 48.9963C117.594 48.9395 117.577 48.8716 117.584 48.8041V48.1721L117.54 48.1961C117.467 48.2451 117.382 48.2736 117.294 48.2785C117.206 48.2834 117.118 48.2646 117.04 48.2241C116.952 48.1632 116.881 48.08 116.836 47.9831C116.79 47.8862 116.771 47.7789 116.78 47.6721V44.3161C116.783 44.1032 116.836 43.894 116.937 43.706C117.037 43.5181 117.181 43.357 117.356 43.2361L118.084 42.8361C118.105 42.8234 118.128 42.8151 118.152 42.8116C118.176 42.8082 118.201 42.8097 118.225 42.816C118.248 42.8224 118.27 42.8335 118.289 42.8486C118.309 42.8638 118.324 42.8827 118.336 42.9041C118.348 42.9251 118.356 42.9483 118.359 42.9724C118.362 42.9964 118.361 43.0208 118.354 43.0443C118.348 43.0677 118.337 43.0896 118.322 43.1088C118.308 43.128 118.289 43.1441 118.268 43.1561L117.54 43.5761C117.42 43.6643 117.322 43.7785 117.253 43.9102C117.183 44.0418 117.145 44.1875 117.14 44.3361V47.6921C117.14 47.8241 117.18 47.9041 117.216 47.9241C117.252 47.9441 117.32 47.9241 117.348 47.9001L117.668 47.7121C117.696 47.6959 117.728 47.6874 117.76 47.6875C117.793 47.6875 117.824 47.6961 117.852 47.7123C117.88 47.7285 117.904 47.7518 117.92 47.7799C117.936 47.808 117.944 47.8398 117.944 47.8721V48.5961L118.904 47.0281C118.918 47.0003 118.94 46.9778 118.968 46.9641L121.26 45.6401C121.38 45.5515 121.479 45.4367 121.548 45.3043C121.618 45.1719 121.656 45.0255 121.66 44.8761V43.7801C121.656 43.7534 121.658 43.7262 121.666 43.7002C121.673 43.6743 121.686 43.6503 121.704 43.6299C121.721 43.6095 121.743 43.5931 121.768 43.5818C121.792 43.5706 121.819 43.5648 121.846 43.5648C121.873 43.5648 121.9 43.5706 121.924 43.5818C121.949 43.5931 121.971 43.6095 121.988 43.6299C122.006 43.6503 122.019 43.6743 122.027 43.7002C122.034 43.7262 122.036 43.7534 122.032 43.7801V44.8761C122.029 45.0896 121.975 45.2992 121.875 45.4877C121.775 45.6762 121.631 45.8382 121.456 45.9601L119.204 47.2601L118.184 48.9361C118.149 48.9895 118.102 49.0337 118.046 49.065C117.99 49.0963 117.928 49.1139 117.864 49.1161Z" fill="#2C2C2C"/>
<path d="M125.192 37.2681L119.564 40.5161C119.4 40.6121 119.268 40.5161 119.268 40.2961C119.27 40.1861 119.298 40.0781 119.35 39.9809C119.401 39.8836 119.474 39.7998 119.564 39.7361L125.192 36.4881C125.352 36.3921 125.484 36.4881 125.484 36.7081C125.482 36.8176 125.455 36.9253 125.404 37.0224C125.353 37.1196 125.281 37.2037 125.192 37.2681Z" fill="#2C2C2C"/>
<path d="M125.192 39.696L119.564 42.948C119.4 43.04 119.268 42.948 119.268 42.724C119.27 42.6145 119.297 42.5069 119.349 42.4102C119.4 42.3135 119.474 42.2305 119.564 42.168L125.192 38.916C125.352 38.824 125.484 38.916 125.484 39.136C125.482 39.2457 125.455 39.3534 125.404 39.4506C125.354 39.5478 125.281 39.6319 125.192 39.696Z" fill="#2C2C2C"/>
<path d="M127.9 32.6362C127.891 33.1337 127.767 33.6223 127.536 34.0632C127.306 34.5041 126.976 34.8852 126.572 35.1762C125.836 35.5762 125.244 35.1482 125.244 34.1722C125.251 33.6744 125.375 33.1851 125.605 32.7439C125.836 32.3027 126.167 31.9219 126.572 31.6322C127.312 31.2122 127.9 31.6602 127.9 32.6362Z" fill="#F5F6FA"/>
<path d="M112.388 41.5681L109.168 44.9001C109.121 44.9493 109.086 45.0083 109.065 45.0729C109.044 45.1375 109.038 45.206 109.048 45.2732C109.057 45.3405 109.081 45.4048 109.119 45.4614C109.156 45.518 109.206 45.5654 109.264 45.6001L111.64 46.9721C111.724 47.0263 111.825 47.049 111.924 47.0361L114.764 46.6961V42.9441L112.388 41.5681Z" fill="#F0F0F0"/>
<path d="M114.768 42.9441L111.568 46.2761C111.505 46.3432 111.463 46.4282 111.45 46.5195C111.436 46.6109 111.45 46.7042 111.491 46.787C111.532 46.8698 111.598 46.9381 111.679 46.9826C111.76 47.0271 111.852 47.0458 111.944 47.0361L114.784 46.6961L114.768 42.9441Z" fill="#FAFAFA"/>
<path d="M111.78 46.5002C111.762 46.5178 111.749 46.5405 111.744 46.5654C111.739 46.5902 111.741 46.6161 111.75 46.6397C111.76 46.6633 111.776 46.6836 111.797 46.6979C111.818 46.7122 111.843 46.72 111.868 46.7202L114.768 46.3842V46.7002L111.924 47.0362C111.832 47.0473 111.739 47.0297 111.658 46.9857C111.576 46.9418 111.51 46.8738 111.469 46.7909C111.428 46.7081 111.413 46.6145 111.428 46.523C111.442 46.4316 111.484 46.3467 111.548 46.2802L114.372 43.3602V42.5242H114.772V43.4002L111.78 46.5002Z" fill="#E0E0E0"/>
<path d="M38.5571 193.384L17.9771 187.288L11.0371 191.956L38.5571 193.384Z" fill="#F5F6FA"/>
<g opacity="0.15">
<path d="M38.5571 193.384L17.9771 187.288L11.0371 191.956L38.5571 193.384Z" fill="white"/>
</g>
<path d="M38.5572 193.384L19.9292 185.208L22.1492 180.396L38.5572 193.384Z" fill="#F5F6FA"/>
<g opacity="0.15">
<path d="M38.5572 193.384L19.9292 185.208L22.1492 180.396L38.5572 193.384Z" fill="white"/>
</g>
<path d="M19.9292 185.208L20.7692 188.116L38.5572 193.384L19.9292 185.208Z" fill="#F5F6FA"/>
<g opacity="0.2">
<path d="M19.9292 185.208L20.7692 188.116L38.5572 193.384L19.9292 185.208Z" fill="black"/>
</g>
<path d="M17.3651 184.956C17.4095 184.941 17.4466 184.909 17.4691 184.868C17.4947 184.82 17.5019 184.764 17.4894 184.711C17.4769 184.658 17.4455 184.612 17.4011 184.58L16.9051 184.232C16.8848 184.216 16.8613 184.205 16.8363 184.199C16.8112 184.193 16.7852 184.193 16.76 184.198C16.7348 184.204 16.7111 184.215 16.6906 184.23C16.67 184.246 16.6531 184.265 16.6411 184.288C16.6155 184.336 16.6082 184.392 16.6207 184.445C16.6333 184.498 16.6647 184.545 16.7091 184.576L17.2051 184.928C17.2277 184.945 17.2539 184.956 17.2817 184.961C17.3095 184.966 17.3381 184.964 17.3651 184.956Z" fill="#455A64"/>
<path d="M15.1091 183.372C14.7931 183.12 14.4811 182.864 14.1771 182.604C14.1353 182.568 14.1078 182.519 14.0997 182.464C14.0916 182.41 14.1035 182.355 14.1331 182.308C14.1479 182.287 14.1669 182.27 14.189 182.257C14.211 182.244 14.2354 182.236 14.2608 182.234C14.2861 182.231 14.3117 182.234 14.3359 182.242C14.3601 182.25 14.3823 182.263 14.4011 182.28C14.7051 182.536 15.0091 182.788 15.3211 183.04C15.3639 183.074 15.3928 183.123 15.4023 183.176C15.4119 183.23 15.4015 183.286 15.3731 183.332C15.3626 183.35 15.3488 183.365 15.3323 183.378C15.3158 183.39 15.297 183.399 15.2771 183.404C15.2487 183.414 15.2183 183.416 15.1889 183.41C15.1595 183.404 15.1321 183.391 15.1091 183.372ZM12.6771 181.248C12.3811 180.965 12.0931 180.677 11.8131 180.384C11.7771 180.343 11.7572 180.291 11.7572 180.236C11.7572 180.182 11.7771 180.129 11.8131 180.088C11.83 180.069 11.8509 180.053 11.8743 180.042C11.8978 180.032 11.9233 180.026 11.9491 180.026C11.9749 180.026 12.0004 180.032 12.0238 180.042C12.0473 180.053 12.0682 180.069 12.0851 180.088C12.3651 180.376 12.6491 180.66 12.9371 180.936C12.9757 180.974 12.9996 181.025 13.0047 181.079C13.0098 181.133 12.9958 181.187 12.9651 181.232C12.9412 181.259 12.911 181.28 12.8771 181.292C12.8432 181.306 12.8059 181.309 12.7702 181.301C12.7345 181.294 12.702 181.275 12.6771 181.248ZM10.4451 178.868C10.1811 178.556 9.92108 178.232 9.67308 177.912C9.63654 177.872 9.61627 177.82 9.61627 177.766C9.61627 177.712 9.63654 177.66 9.67308 177.62C9.69212 177.603 9.71456 177.59 9.73891 177.583C9.76325 177.575 9.78895 177.573 9.8143 177.576C9.83964 177.579 9.86406 177.587 9.88591 177.6C9.90777 177.613 9.92658 177.631 9.94108 177.652C10.1891 177.968 10.4451 178.288 10.7051 178.596C10.7411 178.637 10.7609 178.69 10.7609 178.744C10.7609 178.799 10.7411 178.851 10.7051 178.892C10.6852 178.913 10.6604 178.928 10.6331 178.936C10.5985 178.943 10.5627 178.941 10.5295 178.929C10.4964 178.917 10.4671 178.896 10.4451 178.868ZM8.46908 176.236C8.24108 175.892 8.01708 175.536 7.80908 175.188C7.78002 175.142 7.76924 175.087 7.77887 175.034C7.78851 174.981 7.81785 174.933 7.86108 174.9C7.88294 174.887 7.90731 174.878 7.93268 174.874C7.95806 174.871 7.9839 174.872 8.00862 174.879C8.03335 174.886 8.05643 174.898 8.07646 174.914C8.09648 174.93 8.11303 174.95 8.12508 174.972C8.33308 175.316 8.54908 175.664 8.77708 176.008C8.80792 176.052 8.82131 176.106 8.81466 176.159C8.808 176.212 8.78178 176.261 8.74108 176.296C8.72415 176.309 8.70521 176.318 8.68508 176.324C8.64441 176.335 8.60122 176.333 8.56219 176.317C8.52315 176.301 8.49043 176.273 8.46908 176.236ZM6.80908 173.368C6.62508 173 6.44908 172.616 6.28108 172.236C6.25788 172.189 6.25365 172.134 6.26926 172.084C6.28486 172.033 6.31913 171.99 6.36508 171.964C6.38944 171.954 6.41563 171.949 6.44208 171.949C6.46853 171.949 6.49469 171.954 6.51899 171.965C6.54328 171.975 6.5652 171.99 6.58344 172.01C6.60167 172.029 6.61583 172.051 6.62508 172.076C6.78908 172.448 6.96508 172.824 7.14508 173.184C7.17074 173.231 7.17757 173.286 7.16421 173.338C7.15085 173.39 7.11829 173.435 7.07308 173.464H7.04108C6.99724 173.476 6.9506 173.473 6.90856 173.456C6.86653 173.439 6.83151 173.408 6.80908 173.368ZM5.51308 170.3C5.40508 169.992 5.30508 169.68 5.20508 169.368L5.12908 169.108C5.11107 169.058 5.11359 169.003 5.13609 168.955C5.15859 168.907 5.19923 168.87 5.24908 168.852C5.30103 168.84 5.35566 168.849 5.40127 168.876C5.44688 168.904 5.47983 168.948 5.49308 169L5.56908 169.252C5.66508 169.56 5.76508 169.868 5.87308 170.172C5.88282 170.197 5.88765 170.223 5.8873 170.249C5.88694 170.275 5.8814 170.301 5.871 170.325C5.86059 170.35 5.84553 170.371 5.82667 170.39C5.80781 170.408 5.78552 170.422 5.76108 170.432C5.71069 170.447 5.65641 170.442 5.61 170.417C5.56359 170.392 5.52877 170.35 5.51308 170.3ZM4.83708 167.26C4.78425 167.267 4.73072 167.254 4.68755 167.222C4.64438 167.191 4.61486 167.145 4.60508 167.092C4.51708 166.692 4.43708 166.292 4.36508 165.864C4.35925 165.839 4.35858 165.813 4.36313 165.787C4.36768 165.762 4.37735 165.737 4.39155 165.716C4.40575 165.694 4.4242 165.675 4.44577 165.661C4.46734 165.647 4.4916 165.637 4.51708 165.632C4.57105 165.626 4.62511 165.642 4.66771 165.676C4.71031 165.709 4.73807 165.758 4.74508 165.812C4.81308 166.212 4.89308 166.612 4.98108 167.012C4.99323 167.06 4.98733 167.111 4.9645 167.156C4.94166 167.2 4.90346 167.234 4.85708 167.252L4.83708 167.26ZM4.29708 164C4.24287 164 4.19069 163.98 4.15126 163.942C4.11183 163.905 4.08815 163.854 4.08508 163.8C4.04508 163.4 4.01708 162.972 4.00108 162.56C3.99832 162.535 4.00087 162.509 4.00857 162.484C4.01627 162.459 4.02895 162.437 4.04584 162.417C4.06272 162.397 4.08345 162.382 4.10671 162.371C4.12998 162.359 4.15529 162.353 4.18108 162.352C4.23558 162.355 4.28691 162.379 4.32475 162.418C4.3626 162.457 4.38415 162.51 4.38508 162.564C4.38508 162.964 4.42908 163.364 4.46908 163.764C4.47466 163.809 4.46506 163.854 4.44184 163.892C4.41862 163.931 4.38313 163.96 4.34108 163.976L4.29708 164ZM4.18508 160.724C4.13104 160.715 4.08223 160.687 4.04821 160.644C4.01418 160.601 3.99738 160.547 4.00108 160.492C4.00108 160.092 4.05308 159.672 4.09308 159.264C4.09445 159.238 4.1012 159.213 4.11288 159.19C4.12456 159.168 4.14091 159.147 4.16089 159.131C4.18087 159.115 4.20402 159.103 4.22886 159.096C4.25369 159.09 4.27966 159.088 4.30508 159.092C4.35841 159.104 4.40554 159.135 4.43732 159.179C4.46911 159.223 4.48328 159.278 4.47708 159.332C4.43708 159.732 4.40508 160.132 4.38508 160.532C4.38524 160.571 4.37291 160.609 4.34989 160.641C4.32687 160.673 4.29436 160.696 4.25708 160.708C4.23519 160.721 4.2104 160.728 4.18508 160.728V160.724ZM4.54508 157.496C4.49301 157.479 4.44902 157.444 4.42166 157.397C4.3943 157.349 4.38553 157.294 4.39708 157.24C4.47308 156.84 4.56508 156.44 4.66508 156.04C4.67044 156.015 4.68108 155.992 4.69627 155.971C4.71147 155.95 4.73088 155.933 4.75322 155.921C4.77555 155.908 4.80029 155.901 4.82579 155.899C4.85129 155.896 4.87695 155.9 4.90108 155.908C4.95239 155.929 4.99447 155.967 5.01949 156.017C5.0445 156.066 5.05076 156.123 5.03708 156.176C4.93708 156.556 4.84908 156.948 4.77308 157.34C4.76672 157.373 4.75146 157.404 4.72893 157.43C4.70639 157.455 4.67742 157.474 4.64508 157.484C4.61478 157.501 4.57925 157.507 4.54508 157.5V157.496ZM5.34508 154.4C5.29642 154.375 5.25834 154.334 5.23778 154.283C5.21722 154.232 5.21555 154.176 5.23308 154.124C5.36908 153.744 5.51708 153.368 5.66908 153.004C5.67879 152.98 5.69346 152.959 5.71209 152.941C5.73073 152.924 5.7529 152.91 5.77714 152.902C5.80137 152.894 5.82711 152.891 5.85262 152.893C5.87814 152.896 5.90284 152.903 5.92508 152.916C5.9727 152.944 6.00867 152.988 6.02632 153.04C6.04397 153.092 6.04211 153.149 6.02108 153.2C5.86908 153.556 5.72508 153.924 5.59308 154.296C5.58462 154.323 5.56963 154.348 5.54942 154.369C5.52921 154.389 5.50438 154.404 5.47708 154.412C5.4394 154.42 5.40031 154.416 5.36508 154.4H5.34508ZM6.59708 151.504C6.55267 151.473 6.52099 151.426 6.50779 151.373C6.49458 151.321 6.50071 151.265 6.52508 151.216C6.71308 150.868 6.92508 150.52 7.11308 150.188C7.12661 150.166 7.14467 150.148 7.16606 150.133C7.18745 150.119 7.21166 150.109 7.23706 150.105C7.26246 150.101 7.28846 150.102 7.3133 150.109C7.33815 150.116 7.36126 150.128 7.38108 150.144C7.4238 150.178 7.45295 150.226 7.46322 150.28C7.4735 150.333 7.46422 150.389 7.43708 150.436C7.23708 150.76 7.03708 151.1 6.86108 151.44C6.84983 151.461 6.83448 151.48 6.81594 151.495C6.79739 151.51 6.77603 151.521 6.75308 151.528C6.70686 151.539 6.65813 151.532 6.61708 151.508L6.59708 151.504ZM8.24908 148.872C8.20916 148.835 8.18397 148.784 8.1781 148.73C8.17222 148.676 8.18606 148.621 8.21708 148.576C8.45975 148.261 8.70775 147.961 8.96108 147.676C8.9776 147.657 8.99814 147.641 9.02128 147.63C9.04441 147.62 9.06959 147.614 9.09508 147.614C9.12056 147.614 9.14575 147.62 9.16888 147.63C9.19202 147.641 9.21256 147.657 9.22908 147.676C9.26508 147.717 9.28494 147.77 9.28494 147.824C9.28494 147.879 9.26508 147.931 9.22908 147.972C8.98108 148.248 8.73708 148.544 8.50508 148.852C8.48122 148.879 8.45096 148.9 8.41708 148.912C8.39126 148.917 8.36481 148.916 8.33936 148.909C8.31391 148.903 8.28999 148.892 8.26908 148.876L8.24908 148.872Z" fill="#455A64"/>
<path d="M10.5651 146.716C10.5839 146.71 10.6015 146.7 10.6171 146.688C10.7609 146.579 10.9134 146.481 11.0731 146.396C11.119 146.37 11.1533 146.327 11.1689 146.277C11.1845 146.226 11.1803 146.172 11.1571 146.124C11.1474 146.1 11.133 146.077 11.1146 146.059C11.0962 146.04 11.0742 146.025 11.0499 146.015C11.0257 146.005 10.9997 146 10.9734 146C10.9471 146 10.9212 146.006 10.8971 146.016C10.7167 146.108 10.5453 146.216 10.3851 146.34C10.3444 146.375 10.3181 146.424 10.3115 146.477C10.3048 146.53 10.3182 146.584 10.3491 146.628C10.3704 146.664 10.4031 146.693 10.4422 146.709C10.4812 146.725 10.5244 146.727 10.5651 146.716Z" fill="#455A64"/>
<path d="M156.736 14.636L136.432 11.24L152.832 19.572L156.736 14.636Z" fill="#F5F6FA"/>
<path opacity="0.15" d="M156.736 14.636L136.432 11.24L152.832 19.572L156.736 14.636Z" fill="white"/>
<path d="M136.432 11.24L157.88 11.836L161.784 6.896L136.432 11.24Z" fill="#F5F6FA"/>
<path opacity="0.15" d="M136.432 11.24L157.88 11.836L161.784 6.896L136.432 11.24Z" fill="white"/>
<path d="M157.88 11.836L158.588 17.024L156.736 14.636L136.432 11.24L157.88 11.836Z" fill="#F5F6FA"/>
<path opacity="0.2" d="M157.88 11.836L158.588 17.024L156.736 14.636L136.432 11.24L157.88 11.836Z" fill="black"/>
<path d="M158.588 17.024L155.436 16.28L156.736 14.636L158.588 17.024Z" fill="#F5F6FA"/>
<path opacity="0.2" d="M156.736 14.636L155.436 16.28L155.94 16.4L156.736 14.636Z" fill="black"/>
<path d="M160.7 14.16C160.667 14.1915 160.647 14.2344 160.644 14.28C160.643 14.3346 160.661 14.3879 160.696 14.4303C160.73 14.4727 160.778 14.5017 160.832 14.512L161.432 14.608C161.457 14.6133 161.483 14.613 161.507 14.6073C161.532 14.6016 161.556 14.5906 161.576 14.575C161.596 14.5594 161.612 14.5396 161.624 14.517C161.636 14.4944 161.643 14.4695 161.644 14.444C161.646 14.3892 161.628 14.3356 161.593 14.293C161.559 14.2504 161.51 14.2216 161.456 14.212L160.856 14.112C160.828 14.1072 160.799 14.109 160.772 14.1173C160.745 14.1257 160.72 14.1403 160.7 14.16Z" fill="#455A64"/>
<path d="M163.416 14.6C163.816 14.688 164.216 14.784 164.592 14.884C164.644 14.8988 164.69 14.932 164.72 14.9775C164.75 15.0231 164.763 15.0778 164.756 15.132C164.752 15.1571 164.742 15.1811 164.728 15.2024C164.714 15.2237 164.696 15.2417 164.674 15.2553C164.653 15.2689 164.629 15.2778 164.603 15.2814C164.578 15.2849 164.552 15.2831 164.528 15.276C164.128 15.176 163.76 15.08 163.368 14.992C163.315 14.9796 163.268 14.9485 163.237 14.9043C163.205 14.8602 163.191 14.806 163.196 14.752C163.2 14.7109 163.218 14.6726 163.248 14.644C163.27 14.623 163.297 14.608 163.326 14.6004C163.356 14.5927 163.386 14.5925 163.416 14.6ZM166.532 15.452C166.932 15.58 167.304 15.712 167.684 15.852C167.736 15.8694 167.779 15.906 167.805 15.9543C167.831 16.0026 167.838 16.0589 167.824 16.112C167.817 16.1369 167.806 16.1602 167.789 16.18C167.773 16.1999 167.752 16.216 167.729 16.227C167.706 16.2381 167.68 16.2439 167.655 16.2441C167.629 16.2442 167.603 16.2387 167.58 16.228C167.208 16.092 166.828 15.96 166.444 15.828C166.392 15.8113 166.347 15.7761 166.319 15.7289C166.291 15.6817 166.281 15.6258 166.292 15.572C166.299 15.5378 166.318 15.507 166.344 15.484C166.37 15.4631 166.401 15.4491 166.434 15.4435C166.467 15.4379 166.5 15.4408 166.532 15.452ZM169.576 16.62C169.952 16.788 170.324 16.964 170.688 17.148C170.738 17.1708 170.777 17.2113 170.798 17.2616C170.82 17.3118 170.822 17.3683 170.804 17.42C170.793 17.4435 170.778 17.4645 170.759 17.4817C170.74 17.4989 170.717 17.5118 170.693 17.5198C170.668 17.5277 170.642 17.5304 170.617 17.5276C170.591 17.5249 170.566 17.5168 170.544 17.504C170.184 17.328 169.816 17.152 169.448 16.988C169.397 16.9674 169.356 16.9284 169.332 16.8788C169.308 16.8292 169.304 16.7725 169.32 16.72C169.33 16.6937 169.347 16.6703 169.368 16.652C169.395 16.6265 169.43 16.6098 169.467 16.6041C169.504 16.5984 169.542 16.6039 169.576 16.62ZM172.5 18.132C172.86 18.344 173.212 18.564 173.552 18.788C173.598 18.8162 173.631 18.8606 173.646 18.9124C173.661 18.9642 173.656 19.0197 173.632 19.068C173.618 19.0901 173.6 19.1091 173.579 19.1239C173.557 19.1387 173.533 19.1488 173.507 19.1537C173.482 19.1586 173.455 19.1581 173.43 19.1523C173.405 19.1465 173.381 19.1355 173.36 19.12C173.024 18.9 172.676 18.68 172.324 18.472C172.277 18.4457 172.241 18.4028 172.224 18.3518C172.207 18.3007 172.21 18.2452 172.232 18.196C172.239 18.1769 172.252 18.1602 172.268 18.148C172.3 18.1203 172.339 18.1037 172.381 18.1008C172.423 18.0979 172.465 18.1089 172.5 18.132ZM175.244 19.992C175.572 20.244 175.896 20.508 176.212 20.792C176.255 20.8252 176.283 20.8736 176.291 20.9272C176.299 20.9808 176.287 21.0354 176.256 21.08C176.218 21.1157 176.168 21.1356 176.116 21.1356C176.064 21.1356 176.014 21.1157 175.976 21.08C175.664 20.812 175.344 20.552 175.02 20.304C174.976 20.2733 174.947 20.2268 174.937 20.1745C174.927 20.1222 174.938 20.0682 174.968 20.024C174.972 20.0131 174.979 20.0035 174.988 19.996C175.023 19.9655 175.068 19.9484 175.115 19.9476C175.162 19.9469 175.207 19.9626 175.244 19.992ZM177.748 22.2C177.977 22.432 178.205 22.668 178.432 22.908L178.612 23.104C178.631 23.1225 178.646 23.1447 178.656 23.169C178.666 23.1934 178.671 23.2196 178.671 23.246C178.671 23.2724 178.666 23.2985 178.656 23.3229C178.646 23.3472 178.631 23.3694 178.612 23.388C178.592 23.405 178.568 23.4178 178.543 23.4256C178.517 23.4334 178.49 23.4361 178.464 23.4335C178.438 23.4309 178.412 23.4231 178.389 23.4104C178.365 23.3978 178.345 23.3806 178.328 23.36L178.148 23.168C177.927 22.9306 177.703 22.6986 177.476 22.472C177.44 22.4334 177.42 22.3827 177.42 22.33C177.42 22.2772 177.44 22.2265 177.476 22.188C177.514 22.1552 177.564 22.1383 177.614 22.1405C177.665 22.1428 177.712 22.164 177.748 22.2ZM179.68 24.644C179.724 24.614 179.777 24.6022 179.83 24.6112C179.882 24.6202 179.929 24.6491 179.96 24.692C180.216 25.02 180.468 25.356 180.712 25.692C180.728 25.7125 180.741 25.7362 180.748 25.7616C180.755 25.7869 180.757 25.8135 180.753 25.8396C180.75 25.8657 180.741 25.8909 180.728 25.9137C180.715 25.9364 180.697 25.9562 180.676 25.972C180.63 25.9984 180.575 26.0065 180.523 25.9946C180.472 25.9827 180.426 25.9518 180.396 25.908C180.156 25.572 179.908 25.244 179.656 24.924C179.624 24.8868 179.606 24.8392 179.606 24.79C179.606 24.7407 179.624 24.6931 179.656 24.656L179.68 24.644ZM181.584 27.336C181.632 27.3129 181.688 27.3091 181.739 27.3255C181.791 27.3418 181.834 27.377 181.86 27.424C182.076 27.78 182.284 28.14 182.48 28.504C182.493 28.5264 182.502 28.5513 182.505 28.5771C182.509 28.603 182.507 28.6292 182.499 28.6543C182.492 28.6794 182.48 28.7027 182.464 28.723C182.447 28.7432 182.427 28.7599 182.404 28.772C182.354 28.7917 182.298 28.7919 182.248 28.7727C182.197 28.7534 182.156 28.7161 182.132 28.668C181.94 28.312 181.732 27.956 181.524 27.608C181.499 27.5709 181.487 27.5262 181.492 27.4816C181.496 27.4371 181.516 27.3955 181.548 27.364L181.584 27.336ZM183.1 30.228C183.152 30.2121 183.208 30.2165 183.257 30.2403C183.306 30.264 183.344 30.3053 183.364 30.356C183.524 30.732 183.676 31.116 183.82 31.5C183.829 31.5238 183.834 31.5493 183.833 31.5749C183.832 31.6006 183.826 31.6258 183.815 31.649C183.805 31.6722 183.789 31.693 183.77 31.71C183.751 31.727 183.728 31.7399 183.704 31.748C183.65 31.7599 183.594 31.7518 183.547 31.7253C183.499 31.6988 183.462 31.6556 183.444 31.604C183.308 31.228 183.156 30.848 183 30.48C182.983 30.4446 182.978 30.4049 182.984 30.3663C182.991 30.3277 183.009 30.292 183.036 30.264C183.055 30.2482 183.077 30.236 183.1 30.228ZM184.184 33.288C184.238 33.2804 184.292 33.2929 184.337 33.3232C184.382 33.3535 184.415 33.3993 184.428 33.452C184.532 33.8493 184.624 34.2493 184.704 34.652C184.71 34.6768 184.71 34.7026 184.705 34.7276C184.7 34.7526 184.69 34.7763 184.675 34.7971C184.661 34.8179 184.642 34.8353 184.62 34.8482C184.598 34.8611 184.573 34.8692 184.548 34.872C184.493 34.8768 184.439 34.8611 184.395 34.8277C184.351 34.7944 184.322 34.746 184.312 34.692C184.232 34.292 184.14 33.916 184.04 33.528C184.031 33.4954 184.032 33.4612 184.041 33.4289C184.05 33.3965 184.068 33.3672 184.092 33.344C184.104 33.3278 184.12 33.3145 184.138 33.3048C184.156 33.2951 184.176 33.2894 184.196 33.288H184.184ZM184.792 36.432C184.846 36.4335 184.899 36.4545 184.939 36.4912C184.979 36.5279 185.005 36.5778 185.012 36.632C185.056 37.032 185.088 37.432 185.108 37.832C185.11 37.8576 185.106 37.8834 185.097 37.9075C185.088 37.9316 185.074 37.9535 185.056 37.9717C185.037 37.9899 185.016 38.0039 184.991 38.013C184.967 38.022 184.942 38.0257 184.916 38.024C184.861 38.0201 184.81 37.9964 184.772 37.9574C184.733 37.9183 184.711 37.8666 184.708 37.812C184.688 37.412 184.656 37.012 184.616 36.64C184.611 36.6117 184.613 36.5827 184.623 36.5555C184.632 36.5283 184.647 36.5038 184.668 36.484C184.705 36.4494 184.754 36.4308 184.804 36.432H184.792ZM184.924 39.584C184.979 39.5927 185.028 39.621 185.064 39.6637C185.099 39.7064 185.118 39.7606 185.116 39.816C185.116 40.216 185.072 40.616 185.032 40.992C185.03 41.0175 185.023 41.0424 185.011 41.0648C184.999 41.0873 184.982 41.1068 184.961 41.1221C184.94 41.1373 184.917 41.1479 184.892 41.153C184.867 41.1582 184.841 41.1578 184.816 41.152C184.762 41.1405 184.714 41.1099 184.681 41.0657C184.648 41.0216 184.632 40.967 184.636 40.912C184.672 40.512 184.7 40.144 184.716 39.756C184.718 39.7089 184.738 39.6644 184.772 39.632C184.793 39.6113 184.819 39.5961 184.848 39.5878C184.877 39.5794 184.907 39.5781 184.936 39.584H184.924ZM184.584 42.676C184.637 42.691 184.682 42.7251 184.711 42.7717C184.74 42.8184 184.75 42.8741 184.74 42.928C184.66 43.328 184.568 43.696 184.468 44.06C184.46 44.0847 184.448 44.1075 184.431 44.1271C184.414 44.1466 184.393 44.1623 184.37 44.1733C184.346 44.1842 184.321 44.1901 184.295 44.1906C184.269 44.191 184.244 44.1861 184.22 44.176C184.169 44.1562 184.126 44.1186 184.101 44.0701C184.075 44.0216 184.068 43.9654 184.08 43.912C184.18 43.56 184.272 43.188 184.348 42.808C184.353 42.7826 184.363 42.7586 184.378 42.7376C184.393 42.7167 184.412 42.6993 184.435 42.6867C184.458 42.6741 184.483 42.6666 184.508 42.6648C184.534 42.6629 184.56 42.6667 184.584 42.676Z" fill="#455A64"/>
<path d="M183.472 45.6159C183.457 45.6299 183.445 45.6461 183.436 45.6639C183.355 45.8254 183.26 45.9793 183.152 46.1239C183.122 46.1683 183.11 46.2226 183.119 46.2755C183.128 46.3285 183.157 46.3759 183.2 46.4079C183.218 46.4269 183.239 46.4421 183.263 46.4525C183.286 46.4629 183.312 46.4682 183.338 46.4682C183.364 46.4682 183.39 46.4629 183.413 46.4525C183.437 46.4421 183.458 46.4269 183.476 46.4079C183.599 46.2481 183.706 46.0766 183.796 45.8959C183.818 45.8461 183.821 45.7899 183.804 45.7382C183.787 45.6865 183.751 45.6429 183.704 45.6159C183.67 45.5912 183.63 45.5779 183.588 45.5779C183.546 45.5779 183.506 45.5912 183.472 45.6159Z" fill="#455A64"/>
<path d="M131.468 154.8C131.36 154.8 131.252 154.778 131.153 154.735C131.053 154.693 130.963 154.63 130.888 154.552L101.652 123.6L72.452 154.4C72.3833 154.487 72.297 154.56 72.1987 154.612C72.1004 154.665 71.9923 154.696 71.8812 154.704C71.7702 154.712 71.6586 154.697 71.5537 154.66C71.4488 154.622 71.3529 154.563 71.272 154.487C71.1912 154.41 71.1273 154.317 71.0843 154.215C71.0414 154.112 71.0204 154.001 71.0226 153.89C71.0249 153.779 71.0504 153.669 71.0974 153.568C71.1445 153.467 71.2121 153.377 71.296 153.304L101.06 121.884C101.134 121.805 101.224 121.741 101.324 121.698C101.424 121.655 101.531 121.632 101.64 121.632C101.749 121.632 101.856 121.655 101.956 121.698C102.056 121.741 102.146 121.805 102.22 121.884L132.036 153.436C132.181 153.59 132.259 153.795 132.253 154.006C132.247 154.218 132.157 154.418 132.004 154.564C131.862 154.707 131.67 154.792 131.468 154.8Z" fill="#263238"/>
<path d="M101.652 178.232C101.44 178.232 101.236 178.148 101.086 177.998C100.936 177.848 100.852 177.644 100.852 177.432V126.188C100.852 125.976 100.936 125.772 101.086 125.622C101.236 125.472 101.44 125.388 101.652 125.388C101.864 125.388 102.068 125.472 102.218 125.622C102.368 125.772 102.452 125.976 102.452 126.188V177.432C102.452 177.644 102.368 177.848 102.218 177.998C102.068 178.148 101.864 178.232 101.652 178.232Z" fill="#37474F"/>
<path d="M133.356 159.6C133.196 159.599 133.04 159.55 132.908 159.459C132.776 159.369 132.674 159.241 132.616 159.092L116.9 119.3C116.842 119.107 116.858 118.9 116.946 118.719C117.033 118.538 117.186 118.397 117.373 118.323C117.56 118.25 117.768 118.249 117.955 118.322C118.142 118.395 118.296 118.535 118.384 118.716L134.1 158.488C134.178 158.685 134.174 158.904 134.09 159.098C134.006 159.292 133.849 159.445 133.652 159.524C133.559 159.567 133.459 159.593 133.356 159.6Z" fill="#37474F"/>
<path d="M69.948 159.6C69.8468 159.599 69.7465 159.58 69.652 159.544C69.4555 159.465 69.2981 159.312 69.2142 159.118C69.1302 158.924 69.1265 158.705 69.204 158.508L84.92 118.736C84.9499 118.628 85.0023 118.527 85.0736 118.44C85.1449 118.354 85.2337 118.283 85.3341 118.233C85.4345 118.183 85.5443 118.155 85.6564 118.15C85.7685 118.145 85.8803 118.164 85.9847 118.205C86.089 118.246 86.1835 118.309 86.2621 118.389C86.3407 118.469 86.4015 118.565 86.4407 118.67C86.4798 118.775 86.4965 118.887 86.4895 118.999C86.4824 119.111 86.452 119.22 86.4 119.32L70.688 159.092C70.6296 159.241 70.5279 159.369 70.396 159.459C70.264 159.55 70.108 159.599 69.948 159.6Z" fill="#37474F"/>
<path d="M132.272 153.572L134.352 159.056C134.358 159.102 134.358 159.149 134.352 159.196C134.356 159.229 134.356 159.263 134.352 159.296C134.296 159.446 134.184 159.569 134.04 159.64C133.845 159.74 133.628 159.793 133.408 159.793C133.188 159.793 132.972 159.74 132.776 159.64C132.667 159.582 132.58 159.491 132.528 159.38V159.304L130.6 154.168L132.272 153.572Z" fill="#F5F6FA"/>
<path d="M71.0281 153.572L68.9521 159.056C68.946 159.102 68.946 159.149 68.9521 159.196V159.296C69.0103 159.446 69.1232 159.569 69.2681 159.64C69.4636 159.74 69.6802 159.793 69.9001 159.793C70.12 159.793 70.3366 159.74 70.5321 159.64C70.6407 159.584 70.7268 159.492 70.7761 159.38V159.304L72.7001 154.168L71.0281 153.572Z" fill="#F5F6FA"/>
<path d="M102.572 173.464V178C102.564 178.081 102.535 178.159 102.487 178.225C102.439 178.291 102.375 178.343 102.3 178.376C102.099 178.478 101.876 178.532 101.65 178.532C101.424 178.532 101.201 178.478 101 178.376C100.926 178.342 100.863 178.29 100.816 178.224C100.769 178.158 100.74 178.08 100.732 178V173.464C101.016 173.314 101.331 173.236 101.652 173.236C101.973 173.236 102.288 173.314 102.572 173.464Z" fill="#F5F6FA"/>
<path d="M70.18 78.5759C69.3806 80.5493 68.9052 82.6389 68.772 84.7639C68.372 89.5119 69.904 107.052 70.868 113.924C72.264 125.408 73.976 125.428 76.468 127.348C80.748 130.656 93.056 137.136 97.12 138.736C104.484 141.632 110.508 137.164 114.996 134.944C119.484 132.724 127.924 127.724 129.796 126.352C130.916 125.552 131.496 124.712 131.484 123.84C131.484 123.496 131.484 122.088 131.484 121.724C131.484 120.616 130.508 119.424 128.448 118.092C124.656 115.6 110.9 107.6 105.58 104.648C105.578 104.637 105.573 104.627 105.565 104.619C105.557 104.611 105.547 104.606 105.536 104.604C101.436 102.112 99.036 83.0039 96.196 74.0199C96.136 73.8279 96.076 73.6199 96.012 73.4599C95.948 73.2999 95.916 73.1799 95.868 73.0599C95.688 72.5679 95.504 72.1199 95.308 71.7119" fill="#F5F6FA"/>
<path d="M131.5 121.72C131.5 120.612 130.524 119.42 128.464 118.088C124.656 115.6 110.9 107.6 105.58 104.648C105.578 104.637 105.573 104.626 105.565 104.619C105.557 104.611 105.547 104.605 105.536 104.604C101.436 102.112 99.0359 83.0038 96.1959 74.0198C96.0292 73.4573 95.8316 72.9045 95.6039 72.3638L95.5519 72.2438C95.4999 72.1238 95.4479 72.0038 95.3879 71.8758C95.3599 71.8198 95.3359 71.7518 95.3079 71.6958C94.859 70.6697 94.215 69.7405 93.4119 68.9598C93.1348 68.6999 92.8224 68.4804 92.4839 68.3078C92.0239 68.0438 91.0559 67.5078 90.8119 67.3638C88.0119 65.6998 81.4519 69.2478 76.8999 71.7398C74.0679 73.2918 71.6519 75.1398 70.1839 78.5758C69.3845 80.5492 68.9091 82.6388 68.7759 84.7638C68.3759 89.5118 69.9079 107.052 70.8719 113.924C72.2679 125.408 73.9799 125.428 76.4719 127.348C80.7519 130.656 93.0599 137.136 97.1239 138.736C104.488 141.632 110.512 137.164 115 134.944C119.488 132.724 127.928 127.724 129.8 126.352C130.92 125.552 131.5 124.712 131.488 123.84C131.492 123.492 131.5 122.084 131.5 121.72Z" fill="#F5F6FA"/>
<path opacity="0.15" d="M131.5 121.72C131.5 120.612 130.524 119.42 128.464 118.088C124.656 115.6 110.9 107.6 105.58 104.648C105.578 104.637 105.573 104.626 105.565 104.619C105.557 104.611 105.547 104.605 105.536 104.604C101.436 102.112 99.0359 83.0038 96.1959 74.0198C96.0292 73.4573 95.8316 72.9045 95.6039 72.3638L95.5519 72.2438C95.4999 72.1238 95.4479 72.0038 95.3879 71.8758C95.3599 71.8198 95.3359 71.7518 95.3079 71.6958C94.859 70.6697 94.215 69.7405 93.4119 68.9598C93.1348 68.6999 92.8224 68.4804 92.4839 68.3078C92.0239 68.0438 91.0559 67.5078 90.8119 67.3638C88.0119 65.6998 81.4519 69.2478 76.8999 71.7398C74.0679 73.2918 71.6519 75.1398 70.1839 78.5758C69.3845 80.5492 68.9091 82.6388 68.7759 84.7638C68.3759 89.5118 69.9079 107.052 70.8719 113.924C72.2679 125.408 73.9799 125.428 76.4719 127.348C80.7519 130.656 93.0599 137.136 97.1239 138.736C104.488 141.632 110.512 137.164 115 134.944C119.488 132.724 127.928 127.724 129.8 126.352C130.92 125.552 131.5 124.712 131.488 123.84C131.492 123.492 131.5 122.084 131.5 121.72Z" fill="white"/>
<path d="M114.988 132.8C119.476 130.584 127.916 125.576 129.788 124.204C132.344 122.348 132.108 120.452 128.448 118.08C123.364 114.78 102.64 103.02 102.64 103.02C102.64 103.02 73.5121 120.032 74.6401 122.888C75.7681 125.744 91.9841 134.576 97.0921 136.588C104.5 139.492 110.5 135.024 114.988 132.8Z" fill="#F5F6FA"/>
<g opacity="0.4">
<path d="M114.988 132.8C119.476 130.584 127.916 125.576 129.788 124.204C132.344 122.348 132.108 120.452 128.448 118.08C123.364 114.78 102.64 103.02 102.64 103.02C102.64 103.02 73.5121 120.032 74.6401 122.888C75.7681 125.744 91.9841 134.576 97.0921 136.588C104.5 139.492 110.5 135.024 114.988 132.8Z" fill="white"/>
</g>
<path d="M92.5 68.3078C89.7439 66.8598 83.236 70.3758 78.8 72.8038C75.96 74.3598 73.5399 76.2078 72.0719 79.6598L70.2 78.5758C71.668 75.1398 74.0839 73.2918 76.9159 71.7398C81.4679 69.2478 88.044 65.6998 90.828 67.3638C91.052 67.5078 92.0199 68.0438 92.5 68.3078Z" fill="#F5F6FA"/>
<path opacity="0.4" d="M92.5 68.3078C89.7439 66.8598 83.236 70.3758 78.8 72.8038C75.96 74.3598 73.5399 76.2078 72.0719 79.6598L70.2 78.5758C71.668 75.1398 74.0839 73.2918 76.9159 71.7398C81.4679 69.2478 88.044 65.6998 90.828 67.3638C91.052 67.5078 92.0199 68.0438 92.5 68.3078Z" fill="white"/>
<path d="M96.1961 74.0198C96.1361 73.8278 95.1881 70.5278 93.3961 68.9598C92.5697 68.216 91.4959 67.8068 90.3841 67.8118C87.9841 67.8118 82.1601 70.9518 78.7841 72.8038C78.5001 72.9598 78.2241 73.1198 77.9481 73.2838C77.8401 73.3438 77.7361 73.4078 77.6321 73.4718C77.5281 73.5358 77.3801 73.6278 77.2561 73.7078C77.1321 73.7878 77.0721 73.8238 76.9801 73.8878C76.3825 74.2795 75.8131 74.7125 75.2761 75.1838L75.0201 75.4158C74.6764 75.731 74.3531 76.0676 74.0521 76.4238L73.8881 76.6158C73.8241 76.6918 73.7561 76.7718 73.6961 76.8518C73.6361 76.9318 73.5721 77.0158 73.5081 77.0998L73.3281 77.3518C73.0839 77.701 72.8582 78.0628 72.6521 78.4358C72.6241 78.4838 72.5961 78.5318 72.5721 78.5798C72.5481 78.6278 72.4641 78.7838 72.4121 78.8878C72.3601 78.9918 72.2641 79.1918 72.1921 79.3438C71.3133 81.4029 70.7938 83.5973 70.6561 85.8318C70.0001 93.6278 72.6001 121.564 75.2801 123.788C75.2801 123.788 75.8521 121.46 80.2601 117.872C84.5238 114.492 89.0637 111.476 93.8321 108.856C102.784 103.808 105.54 104.604 105.54 104.604C101.436 102.112 99.0361 83.0198 96.1961 74.0198Z" fill="#F5F6FA"/>
<g opacity="0.2">
<path d="M96.1961 74.0198C96.1361 73.8278 95.1881 70.5278 93.3961 68.9598C92.5697 68.216 91.4959 67.8068 90.3841 67.8118C87.9841 67.8118 82.1601 70.9518 78.7841 72.8038C78.5001 72.9598 78.2241 73.1198 77.9481 73.2838C77.8401 73.3438 77.7361 73.4078 77.6321 73.4718C77.5281 73.5358 77.3801 73.6278 77.2561 73.7078C77.1321 73.7878 77.0721 73.8238 76.9801 73.8878C76.3825 74.2795 75.8131 74.7125 75.2761 75.1838L75.0201 75.4158C74.6764 75.731 74.3531 76.0676 74.0521 76.4238L73.8881 76.6158C73.8241 76.6918 73.7561 76.7718 73.6961 76.8518C73.6361 76.9318 73.5721 77.0158 73.5081 77.0998L73.3281 77.3518C73.0839 77.701 72.8582 78.0628 72.6521 78.4358C72.6241 78.4838 72.5961 78.5318 72.5721 78.5798C72.5481 78.6278 72.4641 78.7838 72.4121 78.8878C72.3601 78.9918 72.2641 79.1918 72.1921 79.3438C71.3133 81.4029 70.7938 83.5973 70.6561 85.8318C70.0001 93.6278 72.6001 121.564 75.2801 123.788C75.2801 123.788 75.8521 121.46 80.2601 117.872C84.5238 114.492 89.0637 111.476 93.8321 108.856C102.784 103.808 105.54 104.604 105.54 104.604C101.436 102.112 99.0361 83.0198 96.1961 74.0198Z" fill="white"/>
</g>
<path d="M106.9 101.556C106.964 103.188 116.936 105.928 124.032 108.16C132.18 110.728 136.068 112.58 139.084 115.584C140.784 117.28 141.772 119.428 141.28 122.192C140.924 124.192 139.208 127.464 135.404 130.504C128.204 136.268 124.688 137.62 119.6 140.944C119.6 140.944 114.36 137.516 113.52 133.52L120.76 125.52L99.8401 119.44L106.9 101.556Z" fill="#455A64"/>
<path d="M123.276 133.84C123.412 135.356 123.536 136.972 123.64 138.46C122.34 139.228 121.032 140.008 119.6 140.944C119.6 140.944 114.36 137.516 113.52 133.52L119.86 126.504C122.024 128.628 122.9 129.568 123.276 133.84Z" fill="#37474F"/>
<path d="M99.8401 119.428L100.488 118.068C100.488 118.068 112.592 120.848 116.8 121.792C120.364 122.592 121.072 122.708 122.872 121.108C125.376 118.884 127.124 118.536 128.872 118.932C126.208 119.276 123.392 122.284 120.752 125.508L99.8401 119.428Z" fill="#37474F"/>
<path d="M105.108 113.6L117.936 124.672L99.8401 119.412L105.092 105.032L106.532 104.836C106.55 107.816 106.069 110.779 105.108 113.6Z" fill="#37474F"/>
<path d="M114.832 132.92C113.548 134.36 112.576 135.388 112.344 135.456C112.087 135.548 111.817 135.603 111.544 135.62C111.544 135.62 106.436 139.952 103.164 143.26C99.8922 146.568 97.9642 148.184 98.8202 151.128C99.6762 154.072 103.804 159.2 104.472 159.6C105.14 160 106.24 155.556 106.24 155.556C106.724 153.956 107.932 150.868 109.204 149.176C110.476 147.484 112.208 146.204 114.476 144.448C115.384 143.744 117.676 142.108 120.204 140.356L114.832 132.92Z" fill="#FFB6B6"/>
<path d="M114.476 144.448C115.384 143.744 117.676 142.108 120.204 140.356L114.832 132.92C113.548 134.36 112.576 135.388 112.344 135.456C112.086 135.548 111.817 135.603 111.544 135.62C111.544 135.62 109.5 137.356 107.168 139.468C107.636 140.453 107.869 141.533 107.848 142.624C107.869 145.052 108.181 147.469 108.776 149.824C108.92 149.596 109.068 149.376 109.216 149.18C110.476 147.484 112.208 146.204 114.476 144.448Z" fill="#F28F8F"/>
<path d="M105.476 136.884C104.64 137.564 104.028 138.944 102.776 140.084C101.355 141.407 99.8057 142.586 98.152 143.604L95.856 145.04L96.256 145.664L100.44 143.052C101.716 142.252 102.84 141.932 103.368 142.456C103.356 142.468 107.36 139.904 105.476 136.884Z" fill="#F5F6FA"/>
<path opacity="0.4" d="M105.476 136.884C104.64 137.564 104.028 138.944 102.776 140.084C101.355 141.407 99.8057 142.586 98.152 143.604L95.856 145.04L96.256 145.664L100.44 143.052C101.716 142.252 102.84 141.932 103.368 142.456C103.356 142.468 107.36 139.904 105.476 136.884Z" fill="black"/>
<path d="M112.1 135.388C110.788 135.668 109.08 135.328 107.156 135.86C106.353 136.097 105.643 136.578 105.124 137.236C104.916 138.036 104.94 138.488 104.82 139.08C104.708 140.07 104.357 141.017 103.796 141.84C102.565 143.497 101.221 145.066 99.772 146.536C98.36 148.008 97.452 148.808 97.548 150.776C97.628 152.308 99.12 156.212 100.472 158.628C102.32 161.92 104.8 162.192 105.272 160.228C105.744 158.264 106.224 156.092 106.248 155.56C105.724 154.482 104.927 153.561 103.936 152.888C102.028 151.612 100.632 151.712 100.356 149.252C100.108 147.024 102.644 143.892 107.216 141.136C112.4 138 112.1 135.388 112.1 135.388Z" fill="#F5F6FA"/>
<path opacity="0.35" d="M112.1 135.388C110.788 135.668 109.08 135.328 107.156 135.86C106.353 136.097 105.643 136.578 105.124 137.236C104.916 138.036 104.94 138.488 104.82 139.08C104.708 140.07 104.357 141.017 103.796 141.84C102.565 143.497 101.221 145.066 99.772 146.536C98.36 148.008 97.452 148.808 97.548 150.776C97.628 152.308 99.12 156.212 100.472 158.628C102.32 161.92 104.8 162.192 105.272 160.228C105.744 158.264 106.224 156.092 106.248 155.56C105.724 154.482 104.927 153.561 103.936 152.888C102.028 151.612 100.632 151.712 100.356 149.252C100.108 147.024 102.644 143.892 107.216 141.136C112.4 138 112.1 135.388 112.1 135.388Z" fill="black"/>
<path opacity="0.35" d="M112.1 135.388C110.788 135.668 109.08 135.328 107.156 135.86C106.379 136.089 105.689 136.546 105.176 137.172C106.435 138.043 107.314 139.362 107.632 140.86C112.38 137.852 112.1 135.388 112.1 135.388Z" fill="black"/>
<path d="M130.9 182.356C129.39 180.878 128.133 179.162 127.18 177.276C126.276 175.332 125.548 172.528 124.916 169.676C124.56 168.076 124.216 165.088 123.828 160.796L114.736 162.452C115.46 164.564 116.032 166.516 115.872 167.28C115.829 167.556 115.749 167.826 115.632 168.08C115.632 168.08 117.056 174.708 118.432 179.212C119.808 183.716 120.348 186.204 123.384 186.852C126.42 187.5 132.984 186.256 133.652 185.848C134.32 185.44 130.9 182.356 130.9 182.356Z" fill="#FFB6B6"/>
<path d="M113.852 174.112C114.06 175.184 114.996 176.388 115.428 178.056C115.929 179.958 116.241 181.905 116.36 183.868C116.52 186.268 116.544 186.604 116.544 186.604L117.284 186.556L116.956 181.572C116.852 180.048 117.104 178.884 117.82 178.672C117.82 178.672 117.448 173.872 113.852 174.112Z" fill="#F5F6FA"/>
<path opacity="0.25" d="M113.852 174.112C114.06 175.184 114.996 176.388 115.428 178.056C115.929 179.958 116.241 181.905 116.36 183.868C116.52 186.268 116.544 186.604 116.544 186.604L117.284 186.556L116.956 181.572C116.852 180.048 117.104 178.884 117.82 178.672C117.82 178.672 117.448 173.872 113.852 174.112Z" fill="black"/>
<path d="M115.7 167.472C115.324 168.776 114.204 170.14 113.76 172.108C113.585 172.94 113.675 173.805 114.016 174.584C114.644 175.156 115.048 175.344 115.516 175.736C116.348 176.308 117.026 177.076 117.492 177.972C118.382 179.863 119.14 181.813 119.76 183.808C120.396 185.768 120.68 186.964 122.48 187.808C123.888 188.472 128.08 189.008 130.88 188.952C134.7 188.88 136.132 186.792 134.588 185.452C133.044 184.112 131.352 182.624 130.892 182.348C129.677 182.303 128.471 182.579 127.396 183.148C125.348 184.24 124.768 185.548 122.44 184.604C120.332 183.764 118.748 180.004 118.476 174.604C118.156 168.464 115.7 167.472 115.7 167.472Z" fill="#F5F6FA"/>
<path opacity="0.2" d="M115.7 167.472C115.324 168.776 114.204 170.14 113.76 172.108C113.585 172.94 113.675 173.805 114.016 174.584C114.644 175.156 115.048 175.344 115.516 175.736C116.348 176.308 117.026 177.076 117.492 177.972C118.382 179.863 119.14 181.813 119.76 183.808C120.396 185.768 120.68 186.964 122.48 187.808C123.888 188.472 128.08 189.008 130.88 188.952C134.7 188.88 136.132 186.792 134.588 185.452C133.044 184.112 131.352 182.624 130.892 182.348C129.677 182.303 128.471 182.579 127.396 183.148C125.348 184.24 124.768 185.548 122.44 184.604C120.332 183.764 118.748 180.004 118.476 174.604C118.156 168.464 115.7 167.472 115.7 167.472Z" fill="black"/>
<path d="M106.9 101.556L78.14 103.748C76.94 109.844 77.008 113.62 78.092 117.012C79.084 120.116 81.856 123.776 87.84 127.24C94.944 131.356 103.684 135.076 105.368 136.144C107.796 137.684 109.08 137.192 109.22 143.116C109.308 146.904 111.324 152.42 112.42 155.804C113.552 159.352 115 163.836 115 163.836C116.2 165.608 122.168 165.544 124.244 163.172C124.244 163.172 123.044 139.624 122.344 134.82C121.944 132.136 121.544 129.724 118.548 126.576C115.968 123.88 103.116 113.972 103.116 113.972C103.116 113.972 106.42 109.684 106.9 101.556Z" fill="#455A64"/>
<path d="M112.52 150.828C113.392 154.8 115.72 161.328 116.704 164.828C116.967 164.896 117.234 164.948 117.504 164.984C116.5 161.464 114.14 154.78 113.236 150.664C112.036 145.28 112.268 144.16 112.172 140.384C112.132 138.784 112.096 137.412 111.984 136.252C111.692 133.212 105.504 129.928 97.6719 125.772C95.0319 124.368 92.2999 122.92 89.6719 121.404C80.9799 116.4 81.3519 112.4 81.9759 105.768C82.0399 105.076 82.1039 104.356 82.1639 103.612L81.4159 103.724C81.3599 104.404 81.2999 105.064 81.2439 105.696C80.6159 112.38 80.1999 116.796 89.3199 122.056C91.9519 123.576 94.6879 125.028 97.3199 126.436C104.348 130.164 110.984 133.688 111.24 136.324C111.348 137.46 111.384 138.824 111.424 140.404C111.536 144.212 111.32 145.372 112.52 150.828Z" fill="#37474F"/>
<path d="M86.9001 120.372C87.0121 120.296 89.7241 118.408 88.7161 113.528C87.6121 108.196 87.8521 105.736 88.3401 102.156L87.6121 102.052C87.1121 105.724 86.8881 108.34 88.0121 113.68C88.9201 118.08 86.5321 119.732 86.5081 119.748L86.9001 120.372Z" fill="#37474F"/>
<path d="M104.528 59.3079C104.136 59.0023 103.787 58.6443 103.492 58.2439C102.816 57.2039 103.008 55.8159 102.416 54.7279C102.248 54.4199 102.016 54.1879 101.808 53.8959C101.602 53.4447 101.49 52.956 101.48 52.4599C105.384 51.4119 105.456 46.1399 104.504 43.8199C102.664 38.7839 97.188 36.9359 93.812 36.7759C87.412 36.4759 84.288 38.1559 83.652 41.4759C82.7795 41.6248 81.9729 42.0355 81.3392 42.6534C80.7056 43.2714 80.2748 44.0674 80.104 44.9359C79.528 47.3079 79.876 48.9799 78.528 50.5359C77.836 51.4719 76.928 52.4079 76.784 53.6239C76.56 55.6599 78.724 57.4879 78.236 59.4759C77.836 61.0359 75.944 61.9999 75.9 63.6039C75.86 64.9879 77.236 65.9799 77.7 67.2879C77.972 68.0439 77.928 68.8879 78.272 69.6239C78.812 70.7559 80.164 71.2839 81.416 71.2999C83.644 71.3359 85.74 70.0999 87.964 70.0999C90.02 70.0719 91.996 71.0519 94.048 70.9679C96.1 70.8839 97.96 69.7679 99.992 69.6479C102.46 69.4959 105.132 70.8479 107.48 69.6479C108.604 69.0599 109.396 67.6839 108.952 66.4959C108.08 66.8119 107.096 66.2199 106.64 65.4119C105.62 63.4959 106.572 60.7079 104.528 59.3079Z" fill="#37474F"/>
<path d="M98.96 66.072C101.824 66.56 104 66.596 106.48 70.184C109.016 73.86 111.94 78.376 115.764 84.012L125.42 79.28L129.452 86C129.452 86 119.1 92.928 115.252 94.308C112.376 95.344 111.652 94.08 109.484 91.884C107.056 89.44 99.904 81.448 99.904 81.448L98.96 66.072Z" fill="#FFB6B6"/>
<path d="M98.6599 65.844C102.136 66.284 103.996 67.096 105.1 68.164C106.204 69.232 115.932 83.796 115.932 83.796L117.756 83.036C117.756 83.036 116.304 84.636 117.428 88.448C118.552 92.26 120.288 91.748 120.288 91.748C120.288 91.748 116.992 93.856 115.088 94.62C113.184 95.384 112.184 94.844 110.176 92.932C108.168 91.02 99.5239 81.5 99.5239 81.5L98.6599 65.844Z" fill="#F5F6FA"/>
<path opacity="0.15" d="M98.6599 65.844C102.136 66.284 103.996 67.096 105.1 68.164C106.204 69.232 115.932 83.796 115.932 83.796L117.756 83.036C117.756 83.036 116.304 84.636 117.428 88.448C118.552 92.26 120.288 91.748 120.288 91.748C120.288 91.748 116.992 93.856 115.088 94.62C113.184 95.384 112.184 94.844 110.176 92.932C108.168 91.02 99.5239 81.5 99.5239 81.5L98.6599 65.844Z" fill="black"/>
<path opacity="0.35" d="M115.932 83.7959C114.296 84.3839 112.404 86.1959 112.12 87.1439C112.576 84.5199 114.676 83.4799 115.456 83.0879L115.932 83.7959Z" fill="black"/>
<path d="M135.86 67.4281L134.996 66.8601C134.872 66.7981 134.735 66.7659 134.596 66.7659C134.457 66.7659 134.32 66.7981 134.196 66.8601L126.1 70.2561C125.694 70.4492 125.335 70.728 125.047 71.0732C124.759 71.4185 124.549 71.822 124.432 72.2561L120.604 90.5521C120.548 90.7046 120.54 90.8705 120.581 91.0276C120.621 91.1848 120.709 91.3259 120.832 91.4321L121.724 92.0201C121.85 92.087 121.991 92.122 122.134 92.122C122.277 92.122 122.418 92.087 122.544 92.0201L130.652 88.6481C131.057 88.4535 131.415 88.1742 131.703 87.8292C131.991 87.4842 132.201 87.0814 132.32 86.6481C133.072 83.0481 135.396 71.9521 136.144 68.3561C136.224 67.8841 136.1 67.5681 135.86 67.4281Z" fill="#455A64"/>
<path d="M126.1 71.4322C125.712 71.8229 125.436 72.3105 125.3 72.8442L121.472 91.1322C121.421 91.2808 121.412 91.4407 121.446 91.5941C121.481 91.7475 121.558 91.8881 121.668 92.0002L120.832 91.4482C120.708 91.3425 120.62 91.2016 120.579 91.0444C120.537 90.8872 120.545 90.7211 120.6 90.5682L124.428 72.2722C124.558 71.7718 124.814 71.3131 125.172 70.9402L126.1 71.4322Z" fill="#263238"/>
<path d="M121.464 91.136L125.3 72.84C125.419 72.4064 125.63 72.0034 125.919 71.6583C126.207 71.3133 126.566 71.0342 126.972 70.84L135.076 67.464C135.832 67.152 136.308 67.548 136.14 68.348C135.392 71.948 133.068 83.0441 132.316 86.6401C132.197 87.0733 131.987 87.4761 131.699 87.8211C131.411 88.1662 131.053 88.4454 130.648 88.6401L122.528 92C121.772 92.328 121.3 91.936 121.464 91.136Z" fill="#37474F"/>
<path d="M125.772 76.5161L126.488 73.0921C126.51 73.0102 126.549 72.9339 126.603 72.8684C126.657 72.8029 126.724 72.7496 126.8 72.7121L128.324 72.0801C128.464 72.0241 128.552 72.0801 128.524 72.2481C128.38 72.9201 127.948 74.9961 127.808 75.6721C127.785 75.7532 127.746 75.8287 127.692 75.8935C127.638 75.9583 127.572 76.011 127.496 76.0481L125.972 76.6801C125.828 76.7361 125.74 76.6641 125.772 76.5161Z" fill="#455A64"/>
<path d="M126.664 73.8642C126.722 73.6603 126.824 73.4714 126.962 73.3105C127.1 73.1496 127.271 73.0205 127.464 72.9322C127.828 72.7802 128.064 72.9322 127.988 73.3322C127.929 73.5357 127.827 73.7243 127.689 73.8851C127.551 74.0459 127.38 74.1752 127.188 74.2642C126.824 74.4002 126.588 74.2282 126.664 73.8642Z" fill="#263238"/>
<path d="M126.324 75.6001C126.383 75.3964 126.484 75.2078 126.622 75.047C126.76 74.8861 126.931 74.7569 127.124 74.6681C127.488 74.5161 127.724 74.6881 127.644 75.0681C127.586 75.2725 127.484 75.462 127.346 75.6235C127.208 75.7851 127.037 75.9149 126.844 76.0041C126.5 76.1281 126.248 75.9521 126.324 75.6001Z" fill="#263238"/>
<path d="M135.428 79.1162C136.14 77.9922 136.06 77.8522 135.608 77.3242C135.266 76.9026 134.829 76.5684 134.332 76.3493C133.836 76.1302 133.294 76.0325 132.752 76.0642C131.804 76.1482 130.84 76.1882 130.352 76.4642C129.864 76.7402 130.352 77.7522 131.612 77.9602C133.592 78.2842 133.612 78.8162 133.612 78.8162C132.768 78.6739 131.918 78.5751 131.064 78.5202C130.34 78.5202 129.044 78.9442 128.228 79.1202C127.412 79.2962 127.308 80.3722 128.728 80.6562L127.232 80.9842C126.184 81.2162 125.86 81.7842 126.728 82.4042C127.009 82.6134 127.354 82.7206 127.704 82.7082C127.704 82.7082 126.58 82.7722 126.576 83.1482C126.576 84.2242 127.288 84.4682 129.6 84.9922C131.804 85.4962 132.32 86.6362 131.936 87.4682C131.936 87.4682 132.78 86.9082 133.536 86.3242C134.084 85.9002 134.54 85.4282 134.232 84.5522C134.232 84.5522 135.472 84.5042 135.504 83.7522C135.489 83.1871 135.352 82.632 135.104 82.1242C135.319 81.9834 135.49 81.7839 135.595 81.5493C135.701 81.3147 135.737 81.0547 135.7 80.8002C135.675 80.3139 135.489 79.8498 135.172 79.4802L135.428 79.1162Z" fill="#FFB6B6"/>
<path d="M128.736 80.6601C129.181 80.5386 129.636 80.4622 130.096 80.4321C130.562 80.4742 131.019 80.5903 131.448 80.7761C132.301 81.0841 133.127 81.4642 133.916 81.9121C133.028 81.7331 132.157 81.4789 131.312 81.1521C130.913 80.9808 130.5 80.8469 130.076 80.7521C129.66 80.7001 129.184 80.7201 128.736 80.6601Z" fill="#F28F8F"/>
<path d="M127.7 82.7122C128.175 82.5466 128.683 82.5013 129.18 82.5802C129.67 82.6556 130.153 82.7775 130.62 82.9442C131.548 83.2597 132.441 83.6713 133.284 84.1722C132.324 83.9522 131.404 83.6322 130.484 83.3242C129.564 83.0162 128.704 82.6722 127.7 82.7122Z" fill="#F28F8F"/>
<path d="M110.98 103.964C108.58 103.052 106.928 102.212 106.9 101.564L103.2 103.964L103.804 80.1719L109.056 80.2999C110.244 85.9639 110.824 99.5719 110.98 103.964Z" fill="#F5F6FA"/>
<path opacity="0.35" d="M110.98 103.964C108.58 103.052 106.928 102.212 106.9 101.564L103.2 103.964L103.804 80.1719L109.056 80.2999C110.244 85.9639 110.824 99.5719 110.98 103.964Z" fill="black"/>
<path d="M89.0199 64.4199L80.7319 66.4199C79.3119 66.8679 74.8639 71.4599 76.5159 79.4959C76.9639 81.6679 78.3359 85.9239 79.6439 90.0919C80.2662 92.0502 80.3587 94.1383 79.9119 96.1439C79.0719 99.7839 78.1199 102.396 76.9519 107.828C76.9519 107.828 80.7639 111.104 94.7479 109.884C105.416 108.936 108.5 102.8 108.5 102.8C108.26 101.116 107.468 98.5959 106.704 95.3439C106.868 91.4159 106.78 88.9919 106.844 86.9879C106.844 86.9879 109.912 85.4319 110.024 80.9199C110.112 77.3879 108.764 75.5039 105.244 71.8079C103.222 69.6415 101.024 67.6467 98.6719 65.8439L89.0199 64.4199Z" fill="#37474F"/>
<path d="M84.3119 58.0678C83.1519 58.2478 82.2559 57.6678 81.5799 56.8678C80.0799 55.1118 79.98 53.3678 80.752 52.2318C81.376 51.2998 82.8599 50.7398 83.8679 51.4318C84.9439 52.1558 84.96 52.7158 85.352 53.5078C85.744 54.2998 87.352 54.2798 87.828 51.1558C88.28 48.2398 88.8079 45.5758 90.2799 44.2998C92.4799 42.3918 94.8479 42.7878 95.6679 43.9798C96.5799 42.6438 97.9279 42.1318 99.364 42.9638C100.8 43.7958 101.844 46.0078 102.164 51.5718C102.496 57.2478 101.056 60.7358 99.7319 61.6478C98.7239 62.3358 97.612 62.6278 95.484 62.6558L95.584 65.6678C95.584 65.6678 99.1119 73.3398 98.952 78.1918C98.952 78.1918 97.1639 75.1278 91.852 70.5558L86.0999 65.5638L85.7359 57.2198C85.5829 57.464 85.3739 57.6683 85.1263 57.8158C84.8787 57.9632 84.5996 58.0496 84.3119 58.0678Z" fill="#FFB6B6"/>
<path d="M101.064 48.8318L98.8999 48.2278C98.9309 48.0852 98.9909 47.9505 99.076 47.832C99.1611 47.7135 99.2696 47.6136 99.3948 47.5387C99.52 47.4637 99.6592 47.4152 99.8039 47.3961C99.9485 47.3771 100.096 47.3878 100.236 47.4278C100.529 47.5086 100.779 47.7003 100.934 47.9623C101.088 48.2243 101.135 48.5361 101.064 48.8318Z" fill="#263238"/>
<path d="M93.4199 48.6077L91.1559 49.3837C91.0983 49.2389 91.0708 49.0838 91.0751 48.9279C91.0794 48.7721 91.1154 48.6187 91.1809 48.4773C91.2464 48.3358 91.3401 48.2091 91.4561 48.105C91.5722 48.0009 91.7082 47.9215 91.8559 47.8717C92.1613 47.7709 92.4937 47.791 92.7847 47.9279C93.0757 48.0648 93.303 48.3081 93.4199 48.6077Z" fill="#263238"/>
<path d="M92.652 56.4277L95.74 57.4037C95.6712 57.6186 95.5583 57.8168 95.4086 57.9857C95.2589 58.1546 95.0756 58.2904 94.8705 58.3845C94.6654 58.4785 94.4429 58.5289 94.2173 58.5322C93.9916 58.5355 93.7678 58.4917 93.56 58.4037C92.72 58.1037 92.412 57.2997 92.652 56.4277Z" fill="#B16668"/>
<path d="M94.4479 58.4919C94.3984 58.0738 94.1955 57.6889 93.8785 57.4118C93.5614 57.1347 93.1529 56.985 92.7319 56.9919C92.6794 56.9946 92.6273 57.0013 92.5759 57.0119C92.5684 57.3189 92.6601 57.6201 92.8374 57.8709C93.0146 58.1216 93.268 58.3085 93.5599 58.4039C93.8439 58.507 94.1492 58.5372 94.4479 58.4919Z" fill="#F28F8F"/>
<path d="M95.4519 49.8159L95.9119 55.3919L98.9639 54.3279L95.4519 49.8159Z" fill="#F28F8F"/>
<path d="M93.668 51.2919C93.6735 51.4619 93.6284 51.6297 93.5385 51.774C93.4487 51.9184 93.318 52.0329 93.1631 52.103C93.0081 52.1731 92.8359 52.1957 92.6681 52.1679C92.5004 52.1402 92.3446 52.0633 92.2205 51.947C92.0964 51.8308 92.0096 51.6803 91.9709 51.5147C91.9323 51.3491 91.9437 51.1758 92.0036 51.0166C92.0635 50.8574 92.1692 50.7196 92.3074 50.6205C92.4456 50.5215 92.6101 50.4656 92.78 50.4599C92.893 50.4562 93.0056 50.4748 93.1113 50.5146C93.2171 50.5544 93.314 50.6146 93.3965 50.6919C93.479 50.7692 93.5454 50.8619 93.592 50.9649C93.6386 51.0679 93.6644 51.179 93.668 51.2919Z" fill="#263238"/>
<path d="M100.42 51.0598C100.425 51.2297 100.38 51.3975 100.29 51.5419C100.201 51.6862 100.07 51.8007 99.915 51.8708C99.7601 51.9409 99.5879 51.9635 99.4201 51.9358C99.2523 51.908 99.0965 51.8311 98.9724 51.7149C98.8483 51.5986 98.7615 51.4482 98.7229 51.2825C98.6843 51.1169 98.6956 50.9436 98.7555 50.7844C98.8154 50.6253 98.9211 50.4874 99.0594 50.3884C99.1976 50.2893 99.362 50.2334 99.532 50.2278C99.6449 50.224 99.7575 50.2426 99.8633 50.2824C99.9691 50.3222 100.066 50.3824 100.148 50.4597C100.231 50.537 100.297 50.6298 100.344 50.7327C100.391 50.8357 100.416 50.9468 100.42 51.0598Z" fill="#263238"/>
<path d="M95.4959 62.6278C93.5319 62.4398 91.4599 62.1678 89.4959 61.3238C88.7959 61.0238 87.8599 59.7518 87.0959 58.3318C87.0959 58.3318 87.6279 61.1318 89.1359 62.0838C91.4239 63.5478 95.5359 63.8678 95.5359 63.8678L95.4959 62.6278Z" fill="#F28F8F"/>
<path d="M86.1 65.1199C88.068 68.6879 89.82 74.0759 89.68 81.6479C89.54 89.2199 86.9 113.2 86.9 113.2C86.9 113.2 80.676 114.26 76.696 108.268C76.8 106.092 78.44 100.94 79.432 97.3199C80.424 93.6999 78.776 90.9599 77.396 86.4519C76.492 83.4959 75.156 78.6519 75.712 74.5879C76.268 70.5239 77.884 67.0999 80.752 66.4119L86.1 65.1199Z" fill="#F5F6FA"/>
<path opacity="0.35" d="M86.1 65.1199C88.068 68.6879 89.82 74.0759 89.68 81.6479C89.54 89.2199 86.9 113.2 86.9 113.2C86.9 113.2 80.676 114.26 76.696 108.268C76.8 106.092 78.44 100.94 79.432 97.3199C80.424 93.6999 78.776 90.9599 77.396 86.4519C76.492 83.4959 75.156 78.6519 75.712 74.5879C76.268 70.5239 77.884 67.0999 80.752 66.4119L86.1 65.1199Z" fill="black"/>
<path d="M95.5961 65.64C95.5961 65.64 105.624 71.64 107.372 74.172C103.968 69.176 99.9241 64.272 95.5081 62.908L95.5961 65.64Z" fill="black"/>
<path d="M89.548 84.7C89.388 82.328 87.86 75.98 86.316 72.348C84.48 68.024 83.384 65.768 83.384 65.768C84.0338 65.0998 84.5738 64.333 84.984 63.496C85.432 62.404 85.944 62.124 85.944 62.124L86.004 63.524C86.004 63.524 87.036 65.692 88.116 68.324C89.196 70.956 90.472 78.176 89.548 84.7Z" fill="black"/>
<path d="M94.376 79.712C96.056 78.288 96.912 77.712 97.72 77.436C98.528 77.16 101.32 75.772 102.42 75.436C103.108 75.216 103.464 76.316 102.62 77.14C101.972 77.772 100.22 78.66 99.476 79.14C98.732 79.62 97.3 81.588 97.3 81.588L94.376 79.712Z" fill="#F28F8F"/>
<path d="M72.1761 72.968C73.7761 68.64 76.2281 67.12 80.4361 66.708C82.9961 72.76 80.8161 82.264 80.8161 82.264L78.2961 89.156C78.2961 89.156 86.8041 86.456 87.9481 85.62C89.0921 84.784 91.9481 81.944 92.9561 80.848C94.3281 79.352 95.0641 79.496 95.8121 79.56C98.2641 79.768 98.8121 79.94 99.3481 80.236C99.5062 80.3321 99.6377 80.4663 99.7307 80.6263C99.8236 80.7863 99.875 80.967 99.8801 81.152C100.528 81.192 101.48 81.108 101.688 82.16C101.757 82.4371 101.788 82.7225 101.78 83.008C101.945 83.0251 102.098 83.1002 102.212 83.22C102.792 83.808 102.008 86.02 101.456 86.584C101.056 86.984 100.484 87.064 99.7081 87.008C99.0481 86.96 99.3081 86.276 99.3081 86.276L98.3961 86.388C96.5081 87.916 96.5841 90.704 93.9961 91.484C93.4521 91.648 92.3161 91.704 90.8441 92.308C85.3361 94.552 78.0441 101.396 71.8401 101.76C66.9241 102.048 66.3241 99.76 66.3321 96.744C66.3641 93.624 70.7561 76.824 72.1761 72.968Z" fill="#FFB6B6"/>
<path d="M80.54 66.3999C78.16 66.7799 75.976 67.0919 74.168 69.0279C72.36 70.9639 71.86 72.7399 70.568 77.4519C69.276 82.1639 67.98 86.9879 66.948 91.7119C65.916 96.4359 65.772 99.3559 67.26 100.912C68.748 102.468 71.616 102.24 73.084 101.992C74.552 101.744 77.26 100.452 77.26 100.452C77.26 100.452 75.88 98.5039 76.516 94.4919C77.152 90.4799 79.276 88.8479 79.276 88.8479L78.448 89.0759C78.448 89.0759 80.304 84.5079 81.592 81.3559C82.88 78.2039 82.568 69.1999 80.54 66.3999Z" fill="#F5F6FA"/>
<path opacity="0.15" d="M80.54 66.3999C78.16 66.7799 75.976 67.0919 74.168 69.0279C72.36 70.9639 71.86 72.7399 70.568 77.4519C69.276 82.1639 67.98 86.9879 66.948 91.7119C65.916 96.4359 65.772 99.3559 67.26 100.912C68.748 102.468 71.616 102.24 73.084 101.992C74.552 101.744 77.26 100.452 77.26 100.452C77.26 100.452 75.88 98.5039 76.516 94.4919C77.152 90.4799 79.276 88.8479 79.276 88.8479L78.448 89.0759C78.448 89.0759 80.304 84.5079 81.592 81.3559C82.88 78.2039 82.568 69.1999 80.54 66.3999Z" fill="black"/>
<path opacity="0.35" d="M78.9601 87.7639L78.4281 89.0759C75.5201 89.7479 72.5721 90.4879 71.7761 91.5599C72.6161 89.7679 74.8721 88.5399 78.9601 87.7639Z" fill="black"/>
<path d="M99.8801 81.152L96.9561 80.752H99.7921C99.8464 80.8785 99.8763 81.0143 99.8801 81.152Z" fill="#F28F8F"/>
<path d="M101.78 83.008L98.428 82.788L101.76 82.624C101.779 82.7511 101.786 82.8797 101.78 83.008Z" fill="#F28F8F"/>
<path d="M101.432 84.5C101.332 84.6701 101.187 84.8087 101.012 84.9C100.838 85.0021 100.651 85.0788 100.456 85.128L100.5 85.096C100.42 85.276 100.336 85.452 100.252 85.628L100.176 85.544C100.267 85.5214 100.361 85.5179 100.454 85.5337C100.546 85.5496 100.634 85.5844 100.712 85.636C100.855 85.7354 100.966 85.8744 101.032 86.036C100.938 85.8961 100.814 85.7798 100.668 85.696C100.527 85.6257 100.365 85.6073 100.212 85.644L100.088 85.676L100.14 85.56C100.216 85.38 100.3 85.2 100.384 85.028V85H100.412C100.597 84.9536 100.778 84.8907 100.952 84.812C101.134 84.7466 101.298 84.6398 101.432 84.5Z" fill="#F28F8F"/>
<path d="M100.58 84.9839C100.183 85.0599 99.7826 85.1133 99.3799 85.1439C99.3263 85.3979 99.1966 85.6295 99.0079 85.8079C98.8175 86.0137 98.6144 86.2074 98.3999 86.3879L99.3119 86.2759C99.4261 86.1057 99.5749 85.9614 99.7486 85.8526C99.9223 85.7437 100.117 85.6726 100.32 85.6439L100.58 84.9839Z" fill="#F28F8F"/>
<path d="M78.1002 167.548H54.1282L56.6082 177.876C56.8002 179.12 57.7162 180.336 59.3642 181.288C63.0922 183.44 69.1402 183.44 72.8682 181.288C74.6442 180.264 75.5642 178.936 75.6482 177.592L78.1002 167.548Z" fill="#F5F6FA"/>
<path opacity="0.6" d="M78.1002 167.548H54.1282L56.6082 177.876C56.8002 179.12 57.7162 180.336 59.3642 181.288C63.0922 183.44 69.1402 183.44 72.8682 181.288C74.6442 180.264 75.5642 178.936 75.6482 177.592L78.1002 167.548Z" fill="white"/>
<path opacity="0.6" d="M78.1002 167.548H54.1282L56.6082 177.876C56.8002 179.12 57.7162 180.336 59.3642 181.288C63.0922 183.44 69.1402 183.44 72.8682 181.288C74.6442 180.264 75.5642 178.936 75.6482 177.592L78.1002 167.548Z" fill="white"/>
<path opacity="0.2" d="M75.1561 174.624C75.6648 174.333 76.1467 173.997 76.5961 173.62L77.9441 168.104C77.2438 168.871 76.4255 169.52 75.5201 170.028C70.4601 172.948 62.3561 173.02 57.1201 170.268L57.7281 167.808L57.5401 167.548H54.1001L56.5801 177.868C56.7721 179.112 57.6881 180.328 59.3361 181.28C61.9921 182.816 65.8201 183.248 69.1521 182.6C63.1801 183.044 59.0841 180.432 58.4681 178.024C58.2241 177.064 57.7961 174.94 57.7961 174.94C62.7921 177.472 70.3921 177.372 75.1561 174.624Z" fill="#F5F6FA"/>
<path d="M79.3282 164.492C79.1893 165.161 78.9172 165.795 78.5282 166.356C77.7414 167.464 76.7127 168.377 75.5202 169.028C70.3202 172.032 61.8762 172.032 56.6722 169.028C55.4796 168.377 54.4509 167.464 53.6642 166.356C53.2764 165.794 53.0045 165.16 52.8642 164.492C52.4002 162.232 53.6642 159.88 56.6722 158.148C61.8722 155.14 70.3162 155.14 75.5202 158.148C78.5202 159.88 79.7922 162.232 79.3282 164.492Z" fill="#F5F6FA"/>
<path opacity="0.8" d="M79.3282 164.492C79.1893 165.161 78.9172 165.795 78.5282 166.356C77.7414 167.464 76.7127 168.377 75.5202 169.028C70.3202 172.032 61.8762 172.032 56.6722 169.028C55.4796 168.377 54.4509 167.464 53.6642 166.356C53.2764 165.794 53.0045 165.16 52.8642 164.492C52.4002 162.232 53.6642 159.88 56.6722 158.148C61.8722 155.14 70.3162 155.14 75.5202 158.148C78.5202 159.88 79.7922 162.232 79.3282 164.492Z" fill="white"/>
<path d="M78.5283 166.356C77.7415 167.464 76.7128 168.378 75.5203 169.028C70.3203 172.032 61.8763 172.032 56.6723 169.028C55.4797 168.378 54.451 167.464 53.6643 166.356C53.2765 165.794 53.0046 165.16 52.8643 164.492L53.4563 168.556C53.7283 170.188 54.9443 171.784 57.1163 173.036C62.0763 175.896 70.1163 175.896 75.0763 173.036C77.2163 171.8 78.4363 170.236 78.7243 168.612L78.7563 168.404L79.3283 164.492C79.1894 165.161 78.9173 165.795 78.5283 166.356Z" fill="#F5F6FA"/>
<path opacity="0.6" d="M78.5283 166.356C77.7415 167.464 76.7128 168.378 75.5203 169.028C70.3203 172.032 61.8763 172.032 56.6723 169.028C55.4797 168.378 54.451 167.464 53.6643 166.356C53.2765 165.794 53.0046 165.16 52.8643 164.492L53.4563 168.556C53.7283 170.188 54.9443 171.784 57.1163 173.036C62.0763 175.896 70.1163 175.896 75.0763 173.036C77.2163 171.8 78.4363 170.236 78.7243 168.612L78.7563 168.404L79.3283 164.492C79.1894 165.161 78.9173 165.795 78.5283 166.356Z" fill="white"/>
<path d="M73.9482 159.052C69.6122 156.548 62.5802 156.548 58.2442 159.052C55.7922 160.472 54.7282 162.384 55.0442 164.232C55.2922 165.652 56.3602 167.032 58.2442 168.116C62.5802 170.624 69.6122 170.624 73.9482 168.116C75.8282 167.032 76.8962 165.652 77.1482 164.236C77.4682 162.4 76.4042 160.472 73.9482 159.052Z" fill="#F5F6FA"/>
<path opacity="0.6" d="M73.9482 159.052C69.6122 156.548 62.5802 156.548 58.2442 159.052C55.7922 160.472 54.7282 162.384 55.0442 164.232C55.2922 165.652 56.3602 167.032 58.2442 168.116C62.5802 170.624 69.6122 170.624 73.9482 168.116C75.8282 167.032 76.8962 165.652 77.1482 164.236C77.4682 162.4 76.4042 160.472 73.9482 159.052Z" fill="white"/>
<path d="M55.7803 165.948C56.4296 166.846 57.2715 167.586 58.2443 168.116C62.5803 170.624 69.6123 170.624 73.9483 168.116C74.9211 167.586 75.763 166.846 76.4123 165.948C76.3803 164.448 75.3763 162.956 73.3923 161.812C69.3643 159.484 62.8283 159.484 58.8003 161.812C56.8203 162.956 55.8163 164.452 55.7803 165.948Z" fill="#FAFAFA"/>
<path d="M62.744 149.792C62.532 143.668 60.228 134.144 58.012 130.304C61.364 134.304 64.724 141.036 64.992 148.424L62.744 149.792Z" fill="#263238"/>
<path d="M69.396 163.012C69.6 158.752 72.732 157.364 76.26 158.752C78.764 159.736 82.388 163.464 83.532 169.4C82.408 166.336 74.276 156 69.396 163.012Z" fill="#455A64"/>
<path d="M69.5802 165.06C69.7842 163.46 71.2122 161.392 73.7002 161.904C76.1882 162.416 82.0562 166.996 84.5482 174.508C84.0922 169.464 82.4562 165.12 79.0882 162.304C75.7202 159.488 73.2722 159.048 70.8082 160.512C68.6922 161.768 69.5802 165.06 69.5802 165.06Z" fill="#37474F"/>
<path d="M65.112 167.12C63.088 160.344 62.784 147.756 64.736 140.948C67.492 131.328 73.212 127.112 77.484 126.092C73.44 127.78 69.172 133.944 67.972 139.976C66.772 146.008 67.46 167.12 67.46 167.12H65.112Z" fill="#455A64"/>
<path d="M66.7761 160.512C67.0361 156.724 69.2481 148.324 73.6281 144.936C78.0081 141.548 82.8881 143.816 84.3641 145.596C81.7081 143.74 78.5281 143.824 76.2241 145.724C73.9201 147.624 71.5801 153.324 70.4081 158.752L66.7761 160.512Z" fill="#263238"/>
<path d="M72.7322 145.724C75.4882 143.024 77.6402 141.2 81.0562 141.376C84.4722 141.552 89.0562 146.324 91.6842 156.444C88.9482 150.016 85.4082 144.364 79.7442 143.764C75.3002 143.288 72.7322 145.724 72.7322 145.724Z" fill="#37474F"/>
<path d="M41.9561 139.716C46.9841 139.396 52.2441 140.816 57.0921 144.916C61.9401 149.016 63.8641 153.612 64.5961 158.296L61.5601 157.804C61.5601 157.804 59.0401 149.84 54.6681 145.708C50.7801 142.052 47.9001 140.588 41.9561 139.716Z" fill="#455A64"/>
<path d="M65.3401 156.4C65.5761 152.984 63.9681 145.796 58.7441 140.928C53.5201 136.06 51.6361 134.996 46.2561 133.624C49.1241 134.96 53.9921 138.424 57.4561 142.928C60.9201 147.432 61.0561 152.796 61.0561 154.812C61.6521 156.4 63.7721 159.704 65.3401 156.4Z" fill="#37474F"/>
<path d="M65.112 158.088C64.432 153.736 66.772 145.94 69.512 142.128C72.824 137.516 77.704 134.064 83.112 133.124C77.308 135.344 71.472 141.82 69.76 147.924C68.048 154.028 69.048 160.348 69.048 160.348L65.112 158.088Z" fill="#37474F"/>
<path d="M66.96 167.12C66.224 163.048 67.52 154.576 74.22 149.92C80.92 145.264 85.544 146.48 87.304 147.012C82.104 146.66 76.904 149.548 73.732 153.12C71.524 155.6 69.448 159.664 69.332 166.392L66.96 167.12Z" fill="#455A64"/>
<path d="M67.0561 167.456C67.0561 167.456 68.8081 167.412 69.5121 166.588C69.5121 163.96 70.2201 158.696 73.9121 155.588C77.6041 152.48 80.4761 153.076 81.0561 154.296C81.0561 152.504 78.8081 150.912 76.3121 151.444C72.1401 152.328 66.2681 157.72 67.0561 167.456Z" fill="#263238"/>
<path d="M74.136 152.244C76.408 151.008 78.356 149.944 80.892 151.124C81.004 151.056 82.444 150.696 82.992 151.34C85.108 153.84 84.424 160.056 80.548 166.012C82.332 161.544 82.416 153.3 79.12 152.012C77.4923 151.434 75.703 151.518 74.136 152.244Z" fill="#37474F"/>
<path d="M80.9001 151.124C81.9201 151.596 84.0121 155.172 82.6601 160.16C83.9161 156.392 83.4601 152.768 81.3521 151.012C81.1978 151.032 81.0461 151.07 80.9001 151.124Z" fill="#263238"/>
<path d="M62.5922 166.24C62.3922 164.64 60.9642 162.572 58.4722 163.084C55.9802 163.596 50.1202 168.176 47.6282 175.688C48.0802 170.644 49.9162 166.416 52.9402 163.232C55.6522 160.372 59.2042 159 62.0242 160.512C64.8442 162.024 62.5922 166.24 62.5922 166.24Z" fill="#263238"/>
<path d="M61.5601 156.748C59.3721 154.56 57.8442 152.46 53.8202 153.292C49.7962 154.124 47.0441 158.492 45.9521 164.396C46.6361 162.116 48.7041 156.9 52.8161 155.996C56.9281 155.092 58.9361 155.436 61.5601 156.748Z" fill="#455A64"/>
<path d="M62.5921 166.24C62.0201 162.38 60.5521 156.876 56.4441 156.64C52.3361 156.404 47.8321 159 45.9521 164.376C46.9121 159.48 51.0842 154.812 55.4402 154.804C59.7962 154.796 64.0761 155.74 65.1121 167.1L62.5921 166.24Z" fill="#37474F"/>
<path d="M59.1321 149.864C57.3801 148.116 54.8641 147.288 53.4641 147.064C52.0641 146.84 49.3481 145.752 46.4321 148.468C43.5161 151.184 40.4321 157.516 41.5361 161.948C42.0001 157.236 48.3201 144.044 59.1321 149.864Z" fill="#37474F"/>
<path d="M65.7 167.5C65.7 163.92 63.084 152.572 58.956 149.684C53.788 146.084 50.332 149.148 50.332 149.148C51.3646 148.815 52.461 148.73 53.5326 148.899C54.6042 149.069 55.6208 149.488 56.5 150.124C59.168 152.076 61.656 157.784 62.608 166.24C62.592 166.24 63.492 167.524 65.7 167.5Z" fill="#263238"/>
<path d="M63.3522 156.844C63.1002 157.892 64.1882 165.696 65.0242 167.456C65.8524 167.585 66.6965 167.571 67.5202 167.416C68.3202 166.052 67.5442 157.22 69.0562 157.052C67.8802 156.508 63.8962 155.04 63.3522 156.844Z" fill="#37474F"/>
<path d="M63.3521 156.844C64.5521 155.588 69.516 158.044 70.444 165.432C71.68 161.932 71.1281 157.608 69.8961 156.512C69.5594 156.2 69.1347 156 68.6799 155.94C68.2252 155.879 67.7628 155.96 67.356 156.172C67.356 156.172 63.5201 154.484 63.3521 156.844Z" fill="#455A64"/>
<path d="M67.356 156.172C68.872 156.808 70.604 158.912 70.584 162.5C70.7 160.66 70.348 157.44 67.748 156.012C67.613 156.054 67.4818 156.108 67.356 156.172Z" fill="#37474F"/>
</svg>
