<svg width="253" height="120" viewBox="0 0 253 120" fill="none" xmlns="http://www.w3.org/2000/svg">
<g opacity="0.9">
<path d="M201.897 117.588C201.897 118.92 165.1 120.001 119.708 120.001C74.3168 120.001 37.5198 118.92 37.5198 117.588C37.5198 116.255 74.3168 115.175 119.708 115.175C165.1 115.175 201.897 116.255 201.897 117.588Z" fill="#F5F5F5"/>
<g opacity="0.8">
<g opacity="0.5">
<path d="M214.533 9.90785C214.438 9.87613 218.746 9.89105 221.039 9.90116C221.811 9.90458 222.431 10.5314 222.431 11.3034V20.8647" stroke="#2C2C2C" stroke-miterlimit="10"/>
<path d="M220.851 29.6201H223.63C224.615 29.6201 225.413 28.8218 225.413 27.8371V13.8915C225.413 12.9068 224.615 12.1085 223.63 12.1085H220.851C219.866 12.1085 219.068 12.9068 219.068 13.8915V27.8371C219.068 28.8218 219.866 29.6201 220.851 29.6201Z" fill="#6C757D"/>
<path d="M207.575 56.2373H8.64648V77.9334H207.575V56.2373Z" fill="#6C757D"/>
<path opacity="0.3" d="M207.575 56.2373H8.64648V77.9334H207.575V56.2373Z" fill="#2C2C2C"/>
<path d="M187.459 78.4044C187.459 83.7263 186.153 91.0516 188.774 93.8223H197.314C202.756 93.8223 207.168 86.9195 207.168 78.4044C207.168 69.8894 202.756 62.9866 197.314 62.9866C194.973 62.9866 189.05 62.707 188.774 62.9866C186.238 65.5505 187.459 73.5519 187.459 78.4044Z" fill="#2C2C2C"/>
<path opacity="0.3" d="M187.459 78.4044C187.459 83.7263 186.153 91.0516 188.774 93.8223H197.314C202.756 93.8223 207.168 86.9195 207.168 78.4044C207.168 69.8894 202.756 62.9866 197.314 62.9866C194.973 62.9866 189.05 62.707 188.774 62.9866C186.238 65.5505 187.459 73.5519 187.459 78.4044Z" fill="#2C2C2C"/>
<path d="M188.774 93.822C194.216 93.822 198.628 86.9192 198.628 78.4042C198.628 69.8891 194.216 62.9863 188.774 62.9863C183.331 62.9863 178.919 69.8891 178.919 78.4042C178.919 86.9192 183.331 93.822 188.774 93.822Z" fill="#2C2C2C"/>
<path opacity="0.3" d="M188.089 85.7946C190.864 85.7946 193.113 82.2748 193.113 77.9329C193.113 73.5911 190.864 70.0713 188.089 70.0713C185.313 70.0713 183.064 73.5911 183.064 77.9329C183.064 82.2748 185.313 85.7946 188.089 85.7946Z" fill="#F5F6FA"/>
<path d="M226.11 78.4044C226.11 83.7263 224.803 91.0516 227.424 93.8223H235.964C241.407 93.8223 245.819 86.9195 245.819 78.4044C245.819 69.8894 241.407 62.9866 235.964 62.9866C233.623 62.9866 227.701 62.707 227.424 62.9866C224.889 65.5505 226.11 73.5519 226.11 78.4044Z" fill="#2C2C2C"/>
<path opacity="0.3" d="M226.11 78.4044C226.11 83.7263 224.803 91.0516 227.424 93.8223H235.964C241.407 93.8223 245.819 86.9195 245.819 78.4044C245.819 69.8894 241.407 62.9866 235.964 62.9866C233.623 62.9866 227.701 62.707 227.424 62.9866C224.889 65.5505 226.11 73.5519 226.11 78.4044Z" fill="#2C2C2C"/>
<path d="M227.425 93.822C232.867 93.822 237.279 86.9192 237.279 78.4042C237.279 69.8891 232.867 62.9863 227.425 62.9863C221.982 62.9863 217.57 69.8891 217.57 78.4042C217.57 86.9192 221.982 93.822 227.425 93.822Z" fill="#2C2C2C"/>
<path opacity="0.3" d="M226.739 85.7946C229.514 85.7946 231.764 82.2748 231.764 77.9329C231.764 73.5911 229.514 70.0713 226.739 70.0713C223.964 70.0713 221.714 73.5911 221.714 77.9329C221.714 82.2748 223.964 85.7946 226.739 85.7946Z" fill="#F5F6FA"/>
<path d="M99.7996 78.4044C99.7996 83.7263 98.4929 91.0516 101.114 93.8223H109.654C115.097 93.8223 119.508 86.9195 119.508 78.4044C119.508 69.8894 115.097 62.9866 109.654 62.9866C107.313 62.9866 101.391 62.707 101.114 62.9866C98.5783 65.5505 99.7996 73.5519 99.7996 78.4044Z" fill="#2C2C2C"/>
<path opacity="0.3" d="M99.7996 78.4044C99.7996 83.7263 98.4929 91.0516 101.114 93.8223H109.654C115.097 93.8223 119.508 86.9195 119.508 78.4044C119.508 69.8894 115.097 62.9866 109.654 62.9866C107.313 62.9866 101.391 62.707 101.114 62.9866C98.5783 65.5505 99.7996 73.5519 99.7996 78.4044Z" fill="#2C2C2C"/>
<path d="M101.114 93.822C106.556 93.822 110.968 86.9192 110.968 78.4042C110.968 69.8891 106.556 62.9863 101.114 62.9863C95.6715 62.9863 91.2595 69.8891 91.2595 78.4042C91.2595 86.9192 95.6715 93.822 101.114 93.822Z" fill="#2C2C2C"/>
<path opacity="0.3" d="M100.429 85.7946C103.204 85.7946 105.453 82.2748 105.453 77.9329C105.453 73.5911 103.204 70.0713 100.429 70.0713C97.6535 70.0713 95.4038 73.5911 95.4038 77.9329C95.4038 82.2748 97.6535 85.7946 100.429 85.7946Z" fill="#F5F6FA"/>
<path d="M38.27 78.3146C38.27 83.6365 36.9633 90.9617 39.5847 93.7324H48.1245C53.5669 93.7324 57.9789 86.8296 57.9789 78.3146C57.9789 69.7995 53.5669 62.8967 48.1245 62.8967C45.7835 62.8967 39.8612 62.6171 39.5847 62.8967C37.0488 65.4606 38.27 73.4621 38.27 78.3146Z" fill="#2C2C2C"/>
<path opacity="0.3" d="M38.27 78.3146C38.27 83.6365 36.9633 90.9617 39.5847 93.7324H48.1245C53.5669 93.7324 57.9789 86.8296 57.9789 78.3146C57.9789 69.7995 53.5669 62.8967 48.1245 62.8967C45.7835 62.8967 39.8612 62.6171 39.5847 62.8967C37.0488 65.4606 38.27 73.4621 38.27 78.3146Z" fill="#2C2C2C"/>
<path d="M39.5847 93.7322C45.0271 93.7322 49.4391 86.8294 49.4391 78.3143C49.4391 69.7993 45.0271 62.8965 39.5847 62.8965C34.1422 62.8965 29.7302 69.7993 29.7302 78.3143C29.7302 86.8294 34.1422 93.7322 39.5847 93.7322Z" fill="#2C2C2C"/>
<path opacity="0.3" d="M38.8994 85.7047C41.6745 85.7047 43.9242 82.1849 43.9242 77.8431C43.9242 73.5012 41.6745 69.9814 38.8994 69.9814C36.1242 69.9814 33.8745 73.5012 33.8745 77.8431C33.8745 82.1849 36.1242 85.7047 38.8994 85.7047Z" fill="#F5F6FA"/>
<path d="M252.033 51.5229C251.698 49.6457 250.223 48.1797 248.344 47.8573L215.854 38.9662V6.74797C215.854 3.03814 212.846 0.0307617 209.137 0.0307617H7.68466C4.16017 0.0307617 1.30298 2.88791 1.30298 6.41245V79.681L27.3697 79.9254C27.2229 78.9662 27.1419 77.9807 27.1419 76.9728C27.1419 67.6669 33.6735 60.123 41.7305 60.123C49.7876 60.123 56.3192 67.6669 56.3192 76.9728C56.3192 78.0432 56.2289 79.0887 56.0638 80.1037L136.703 80.5224H176.636C176.424 79.3776 176.309 78.1909 176.309 76.9728C176.309 67.6669 182.841 60.123 190.898 60.123C197.667 60.123 203.357 65.4486 205.004 72.6695H252.033V51.5229Z" fill="#6C757D"/>
<path opacity="0.3" d="M171.552 41.7053L218.872 53.0061V79.8833C218.872 81.1035 219.861 82.0926 221.081 82.0926H249.857C251.077 82.0926 252.067 81.1035 252.067 79.8833V51.8126C252.067 51.6571 252.055 51.5007 252.02 51.3492C251.61 49.5828 250.179 48.2221 248.377 47.913L216.972 39.3942C216.009 39.1334 215.887 39.0219 215.887 39.0219V6.80364C215.887 3.10916 212.865 0.0864258 209.17 0.0864258H169.887C169.212 0.0864258 169.721 31.8083 169.856 39.5966C169.873 40.6046 170.571 41.4711 171.552 41.7053Z" fill="#F5F6FA"/>
<path d="M135.478 10.7871H4.86646V44.2786H135.478V10.7871Z" fill="#2C2C2C"/>
<path opacity="0.3" d="M132.95 13.7266H7.84448V41.0071H132.95V13.7266Z" fill="#F5F6FA"/>
<path d="M214.834 10.7871H172.543V39.02H214.834V10.7871Z" fill="#2C2C2C"/>
<path d="M167.387 10.7871H139.368V80.8343H167.387V10.7871Z" fill="#2C2C2C"/>
<path d="M252.594 72.4312H204.77V82.0375H252.594V72.4312Z" fill="#2C2C2C"/>
<path opacity="0.3" d="M174.059 15.0493C174.059 15.0493 173.475 37.5721 174.642 37.6888C175.809 37.8056 211.636 37.6888 211.636 37.6888C211.636 37.6888 211.753 17.0332 211.169 16.4497C210.586 15.8662 174.059 15.0493 174.059 15.0493Z" fill="#F5F6FA"/>
<path d="M247.311 62.8624C247.311 65.1755 248.084 67.0506 249.039 67.0506C249.994 67.0506 250.768 65.1755 250.768 62.8624C250.768 60.5494 249.994 58.6743 249.039 58.6743C248.084 58.6743 247.311 60.5494 247.311 62.8624Z" fill="#F5F6FA"/>
<path d="M210.6 6.31706C210.6 7.71589 211.068 8.8499 211.645 8.8499C212.223 8.8499 212.691 7.71589 212.691 6.31706C212.691 4.91823 212.223 3.78418 211.645 3.78418C211.068 3.78418 210.6 4.9182 210.6 6.31706Z" fill="#F5F6FA"/>
<path d="M173.397 5.99236C173.397 7.39122 173.865 8.5252 174.443 8.5252C175.02 8.5252 175.488 7.39122 175.488 5.99236C175.488 4.59349 175.02 3.45947 174.443 3.45947C173.865 3.45947 173.397 4.59349 173.397 5.99236Z" fill="#F5F6FA"/>
<path d="M223.034 62.757C223.034 65.07 223.855 66.9451 224.868 66.9451C225.882 66.9451 226.703 65.07 226.703 62.757C226.703 60.4439 225.881 58.5688 224.868 58.5688C223.855 58.5688 223.034 60.4439 223.034 62.757Z" fill="#F5F6FA"/>
<path d="M244.598 61.7852H232.444V66.59H244.598V61.7852Z" fill="#F5F6FA"/>
<path d="M205.782 3.61963H180.306V9.01364H205.782V3.61963Z" fill="#F5F6FA"/>
<path opacity="0.3" d="M252.033 52.9829H218.838V82.0377H252.033V52.9829Z" fill="#2C2C2C"/>
<path d="M1.30298 50.2652L169.511 49.8147V48.291H1.30298V50.2652Z" fill="#2C2C2C"/>
<path d="M1.77602 54.9571L169.513 54.5066L169.511 52.9829H1.30298L1.77602 54.9571Z" fill="#2C2C2C"/>
<path opacity="0.3" d="M165.008 12.646H141.771V72.6903H165.008V12.646Z" fill="#F5F6FA"/>
<path opacity="0.3" d="M165.008 23.8737C165.008 23.6424 141.771 39.0205 141.771 39.0205V50.6367L165.008 35.488V23.8737Z" fill="#F5F6FA"/>
<path opacity="0.3" d="M32.1308 13.7266L7.84448 29.3V40.9162L50.3909 13.7266H32.1308Z" fill="#F5F6FA"/>
<path opacity="0.3" d="M93.2035 13.7266L48.896 40.9162H68.9171L111.464 13.7266H93.2035Z" fill="#F5F6FA"/>
<path d="M154.278 11.6489H152.613V78.343H154.278V11.6489Z" fill="#2C2C2C"/>
<path d="M169.511 0.0307617V80.9054" stroke="#2C2C2C" stroke-width="0.75" stroke-miterlimit="10"/>
<path opacity="0.3" d="M207.575 66.247C203.805 55.4896 196.039 54.0073 191.531 54.1373C187.024 54.0073 179.258 55.4896 175.488 66.247C175.488 66.247 175.738 65.6173 176.301 64.6508C183.067 53.0441 199.996 53.0441 206.762 64.6509C207.325 65.6173 207.575 66.247 207.575 66.247Z" fill="#2C2C2C"/>
<path opacity="0.3" d="M59.2468 67.2657C55.3155 56.7134 44.5326 56.0001 42.0321 56.1537C38.7363 56.1875 28.7274 55.9334 24.8174 67.2657C24.8174 67.2657 29.0424 57.2211 42.0321 56.9705C55.0218 57.2211 59.2468 67.2657 59.2468 67.2657Z" fill="#2C2C2C"/>
<path opacity="0.3" d="M207.556 10.7871C207.344 10.7871 172.543 26.9357 172.543 26.9357V35.9133L214.834 14.7065V10.7871H207.203" fill="#F5F6FA"/>
<path d="M133.935 17.3945H6.39551V18.6892H133.935V17.3945Z" fill="#2C2C2C"/>
<path d="M36.8093 13.228H35.6184V42.243H36.8093V13.228Z" fill="#2C2C2C"/>
<path d="M69.2844 13.0254H68.0935V42.0404H69.2844V13.0254Z" fill="#2C2C2C"/>
<path d="M101.759 13.0254H100.568V42.0404H101.759V13.0254Z" fill="#2C2C2C"/>
<path d="M139.368 73.8384H56.0637V81.6252H139.368V73.8384Z" fill="#2C2C2C"/>
<path d="M28.117 73.0005H0V82.4618H28.117V73.0005Z" fill="#2C2C2C"/>
<path d="M167.747 80.5225H138.612V87.4895H167.747V80.5225Z" fill="#2C2C2C"/>
<path d="M177.431 73.8384H167.387V82.0374H177.431V73.8384Z" fill="#2C2C2C"/>
<path opacity="0.3" d="M181.083 41.0342L218.372 48.2913L244.598 49.2784C244.598 49.2784 217.856 50.7732 217.57 50.2655C217.283 49.7578 181.083 41.0342 181.083 41.0342Z" fill="#2C2C2C"/>
<path d="M169.547 9.03336C169.547 9.03336 174.262 9.01656 176.554 9.02668C177.326 9.0301 177.947 9.65691 177.947 10.429V19.9902" stroke="#2C2C2C" stroke-miterlimit="10"/>
<path d="M176.367 28.7456H179.146C180.13 28.7456 180.929 27.9473 180.929 26.9625V13.017C180.929 12.0323 180.13 11.234 179.146 11.234H176.367C175.382 11.234 174.583 12.0323 174.583 13.017V26.9625C174.583 27.9473 175.382 28.7456 176.367 28.7456Z" fill="#6C757D"/>
<path opacity="0.3" d="M127.95 57.854H69.0614C68.5269 57.854 68.0935 58.2874 68.0935 58.8219V69.1029C68.0935 69.6375 68.5269 70.0708 69.0614 70.0708H127.95C128.485 70.0708 128.918 69.6375 128.918 69.1029V58.8219C128.918 58.2874 128.485 57.854 127.95 57.854Z" fill="#2C2C2C"/>
<path opacity="0.3" d="M1.30298 8.52473C1.30298 7.84306 2.35668 2.54381 11.4096 2.32303C20.4624 2.10221 214.188 2.32303 214.188 2.32303C214.188 2.32303 212.509 -0.0556489 208.552 0.0308777C207.016 0.0644811 191.814 0.0546834 169.511 0.0308777C117.682 -0.0244852 30.8875 -0.00134936 7.34769 0.0680608C4.00549 0.0778979 1.30298 2.79005 1.30298 6.13228V8.52473Z" fill="#F5F6FA"/>
</g>
</g>
<path d="M132.999 62.6401C132.999 62.6401 137.313 68.2599 134.222 69.721C131.131 71.1822 128.579 63.4279 128.579 63.4279L132.999 62.6401Z" fill="#B97964"/>
<path d="M129.957 56.7041C132.412 59.0631 133.693 63.1206 133.693 63.1206L128.459 65.7906V57.3114L129.957 56.7041Z" fill="#6C757D"/>
<path d="M111.394 71.4771H122.748C124.494 71.4771 125.91 70.0612 125.91 68.3147V58.5417C125.91 56.7952 124.494 55.3794 122.748 55.3794H111.394C109.647 55.3794 108.231 56.7952 108.231 58.5417V68.3147C108.231 70.0612 109.647 71.4771 111.394 71.4771Z" fill="#2C2C2C"/>
<path d="M118.685 87.5742C116.354 104.274 108.783 114.882 108.783 114.882L105.453 113.862C105.453 113.862 113.209 101.971 112.438 85.6602L118.685 87.5742Z" fill="#B97964"/>
<path d="M131.342 86.6438C132.628 103.457 127.495 115.436 127.495 115.436L124.024 115.15C124.024 115.15 129.064 101.877 124.83 86.1069L131.342 86.6438Z" fill="#B97964"/>
<path d="M127.875 113.944L124.341 113.724C124.219 113.711 124.108 113.8 124.095 113.923L124.095 113.926L123.748 116.714C123.729 117.018 123.958 117.282 124.263 117.304C125.497 117.361 126.089 117.327 127.645 117.412C128.599 117.469 130.48 117.671 131.797 117.544C133.114 117.417 132.953 116.118 132.384 116.056C131.036 115.903 129.249 114.911 128.405 114.159C128.257 114.031 128.071 113.955 127.875 113.944Z" fill="#2C2C2C"/>
<path d="M128.958 114.55C128.675 114.525 128.396 114.47 128.125 114.384C128.097 114.378 128.075 114.354 128.073 114.325C128.07 114.297 128.083 114.269 128.106 114.252C128.211 114.188 129.141 113.636 129.518 113.809C129.604 113.85 129.664 113.933 129.675 114.028C129.717 114.174 129.673 114.331 129.559 114.432C129.381 114.545 129.166 114.587 128.958 114.55ZM129.456 113.956C129.255 113.863 128.715 114.094 128.335 114.303C128.891 114.449 129.305 114.457 129.463 114.322C129.53 114.254 129.556 114.156 129.532 114.064C129.527 114.017 129.498 113.976 129.456 113.956Z" fill="#6C757D"/>
<path d="M128.141 114.387C128.131 114.392 128.12 114.393 128.11 114.39C128.089 114.376 128.076 114.354 128.073 114.33C128.075 114.302 128.06 113.381 128.394 113.093C128.483 113.02 128.6 112.989 128.714 113.01C128.843 113.023 128.947 113.121 128.966 113.249C129.016 113.596 128.506 114.226 128.181 114.391C128.167 114.396 128.153 114.394 128.141 114.387ZM128.652 113.162C128.593 113.157 128.534 113.178 128.491 113.218C128.289 113.389 128.234 113.906 128.224 114.203C128.509 113.989 128.839 113.512 128.819 113.281C128.816 113.238 128.792 113.185 128.688 113.166L128.652 113.162Z" fill="#6C757D"/>
<path d="M108.982 113.944L105.448 113.724C105.325 113.711 105.215 113.8 105.202 113.923L105.201 113.926L104.855 116.714C104.836 117.018 105.065 117.282 105.37 117.304C106.604 117.361 107.196 117.327 108.752 117.412C109.706 117.469 111.587 117.671 112.904 117.544C114.221 117.417 114.06 116.118 113.491 116.056C112.142 115.903 110.356 114.911 109.512 114.159C109.364 114.031 109.177 113.955 108.982 113.944Z" fill="#2C2C2C"/>
<path d="M110.065 114.55C109.782 114.525 109.502 114.47 109.232 114.384C109.203 114.378 109.182 114.354 109.179 114.325C109.177 114.297 109.189 114.269 109.212 114.252C109.317 114.188 110.248 113.636 110.625 113.809C110.711 113.85 110.77 113.933 110.781 114.028C110.824 114.174 110.779 114.331 110.666 114.432C110.487 114.545 110.273 114.587 110.065 114.55ZM110.562 113.956C110.361 113.863 109.822 114.094 109.441 114.303C109.998 114.449 110.412 114.457 110.57 114.322C110.637 114.254 110.663 114.156 110.639 114.064C110.634 114.017 110.605 113.976 110.562 113.956Z" fill="#6C757D"/>
<path d="M109.248 114.387C109.238 114.392 109.227 114.393 109.216 114.39C109.196 114.376 109.182 114.354 109.18 114.33C109.181 114.302 109.166 113.381 109.5 113.093C109.59 113.02 109.707 112.989 109.82 113.01C109.949 113.023 110.054 113.121 110.073 113.249C110.122 113.596 109.612 114.226 109.287 114.391C109.274 114.396 109.26 114.394 109.248 114.387ZM109.758 113.162C109.699 113.157 109.641 113.178 109.598 113.218C109.395 113.389 109.341 113.906 109.33 114.203C109.616 113.989 109.946 113.512 109.926 113.281C109.922 113.238 109.898 113.185 109.794 113.166L109.758 113.162Z" fill="#6C757D"/>
<path d="M130.755 75.0671C130.755 75.0671 133.826 83.9132 133.401 90.8421L124.282 91.0546C124.282 91.0546 123.661 87.81 122.194 85.8573C122.194 85.8573 120.747 89.0488 119.534 90.6631L110.801 89.943C110.801 89.943 111.868 84.7487 112.142 74.1758L130.755 75.0671Z" fill="#2C2C2C"/>
<path d="M130.864 75.72C130.864 75.72 128.318 61.8575 129.957 56.7052C129.957 56.7052 128.265 54.8494 122.59 54.3815C116.914 53.9136 114.184 55.1169 114.184 55.1169C114.184 55.1169 111.977 65.1375 112.151 74.7999L130.864 75.72Z" fill="#6C757D"/>
<path d="M116.188 54.2729C116.188 54.2729 120.468 56.4972 118.862 62.7188C117.256 68.9405 111.776 69.7947 111.776 69.7947L111.543 68.727C111.543 68.727 117.881 67.4597 117.862 62.0338C117.843 56.6079 114.854 54.89 114.854 54.89C114.854 54.89 115.334 54.554 116.188 54.2729Z" fill="#2C2C2C"/>
<path d="M125.772 54.8547C127.133 56.1807 127.218 64.8009 129.925 69.2998L130.282 68.4066C130.282 68.4066 128.627 65.5732 128.521 62.7188C128.414 59.8645 128.225 56.9921 127.492 55.3051C127.492 55.3051 126.629 54.9019 126.318 54.8547C125.91 54.7927 125.772 54.8547 125.772 54.8547Z" fill="#2C2C2C"/>
<path d="M127.369 58.6931C127.369 58.6931 126.499 53.6911 121.206 53.5178C115.913 53.3445 117.774 58.6865 117.774 58.6865L119.892 57.0777L124.351 59.4267L125.951 57.7806L127.369 58.6931Z" fill="#6C757D"/>
<path d="M119.121 55.2938L119.564 55.5313L123.639 57.7013L125.313 56.0873C125.086 55.8228 124.924 55.5637 124.811 55.3046C124.487 54.5758 124.557 53.8903 124.768 53.3181C125.102 52.4166 125.772 51.812 125.772 51.812L123.899 51.1103L119.78 49.5664C121.335 53.1454 119.121 55.2938 119.121 55.2938Z" fill="#B97964"/>
<path opacity="0.2" d="M119.121 55.2938L119.564 55.5313C121.853 55.2938 123.613 54.2627 124.768 53.3181C125.102 52.4166 125.772 51.812 125.772 51.812L123.899 51.1103L119.78 49.5664C121.335 53.1454 119.121 55.2938 119.121 55.2938Z" fill="#2C2C2C"/>
<path d="M118.442 39.3975C118.442 39.3975 113.902 43.0123 118.818 47.0838C124.372 51.6839 118.442 39.3975 118.442 39.3975Z" fill="#2C2C2C"/>
<path d="M129.205 45.6779C128.9 49.1321 126.889 52.9296 124.012 53.4013C118.735 54.2663 116.694 53.2233 116.177 49.3103C115.695 45.7872 117.031 40.2508 121.397 39.2951C125.764 38.3393 129.627 40.8866 129.205 45.6779Z" fill="#B97964"/>
<path d="M117.88 41.6919C117.88 41.6919 120.11 42.6356 122.975 42.0833C122.975 42.0833 125.073 42.4573 124.578 44.8215C124.082 47.1857 126.813 48.5186 126.868 51.657C126.868 51.657 130.148 51.3143 130.766 44.4486C131.216 39.4458 126.899 37.4351 122.433 37.4513C118.695 37.4649 116.011 40.1154 117.88 41.6919Z" fill="#2C2C2C"/>
<path d="M121.29 46.5448C121.267 46.9836 121.013 47.3314 120.724 47.3112C120.435 47.2909 120.226 46.9233 120.249 46.4846C120.273 46.0458 120.528 45.7041 120.816 45.7182C121.104 45.7324 121.314 46.1062 121.29 46.5448Z" fill="#2C2C2C"/>
<path d="M117.788 46.1762C117.765 46.5957 117.522 46.9284 117.246 46.909C116.969 46.8896 116.77 46.5381 116.792 46.1185C116.814 45.699 117.058 45.3722 117.334 45.3857C117.609 45.3992 117.81 45.7567 117.788 46.1762Z" fill="#2C2C2C"/>
<path d="M120.15 44.2685C120.119 44.2403 120.097 44.2043 120.085 44.1642C120.073 44.0555 120.15 43.9567 120.258 43.941C120.889 43.8399 121.53 44.055 121.973 44.5168C122.044 44.5997 122.034 44.7248 121.951 44.7961C121.867 44.8623 121.745 44.8532 121.672 44.7747C121.312 44.4142 120.798 44.2532 120.297 44.3442C120.239 44.3398 120.187 44.3125 120.15 44.2685Z" fill="#2C2C2C"/>
<path d="M120.847 48.8765C120.889 48.8778 120.929 48.8906 120.964 48.9136C121.044 48.9881 121.05 49.1127 120.978 49.1953C120.566 49.6834 119.939 49.9379 119.303 49.8761C119.195 49.8595 119.121 49.7585 119.137 49.6503C119.158 49.545 119.256 49.4729 119.363 49.4844C119.871 49.5232 120.366 49.3103 120.687 48.9146C120.733 48.8807 120.791 48.867 120.847 48.8765Z" fill="#2C2C2C"/>
<path d="M116.732 44.2574C116.691 44.2473 116.654 44.2263 116.625 44.1965C116.562 44.1068 116.582 43.9836 116.67 43.9181C117.177 43.5279 117.842 43.411 118.451 43.6055C118.554 43.6444 118.605 43.7589 118.566 43.8611C118.523 43.9597 118.412 44.0096 118.31 43.9758C117.822 43.8308 117.293 43.9347 116.896 44.2539C116.844 44.2774 116.785 44.2786 116.732 44.2574Z" fill="#2C2C2C"/>
<path d="M118.446 46.7246L118.801 48.6129C118.348 48.7061 117.837 48.6507 117.406 48.4615C117.87 47.9263 118.22 47.3419 118.446 46.7246Z" fill="#A24E3F"/>
<path d="M125.273 47.7119C125.273 47.7119 126.259 45.6168 127.333 46.3233C128.407 47.0299 128.07 50.5684 126.44 50.5125C124.81 50.4567 124.497 48.8285 125.273 47.7119Z" fill="#B97964"/>
<path d="M133.716 64.8533C132.889 63.7748 129.65 60.0575 129.65 60.0575C129.65 60.0575 129.679 58.8882 129.378 58.5267C129.077 58.1652 126.462 57.5192 126.203 57.7819C125.944 58.0446 125.894 61.6119 126.461 61.9974C127.028 62.3829 129.378 62.6092 129.378 62.6092C129.378 62.6092 131.306 69.8542 133.716 69.794C136.126 69.7338 135.008 66.537 133.716 64.8533Z" fill="#B97964"/>
<path d="M110.824 62.0337C110.824 62.0337 109.253 69.3691 111.543 70.1691C113.833 70.9691 113.886 62.3737 113.886 62.3737L110.824 62.0337Z" fill="#B97964"/>
<path d="M114.184 55.1162C111.644 56.1271 110.256 61.0315 109.669 63.7579L114.741 64.996C114.741 64.996 115.808 62.2471 115.808 59.4274C115.808 56.6076 114.184 55.1162 114.184 55.1162Z" fill="#6C757D"/>
<path opacity="0.6" d="M114.184 55.1162C111.644 56.1271 110.256 61.0315 109.669 63.7579L114.741 64.996C114.741 64.996 115.808 62.2471 115.808 59.4274C115.808 56.6076 114.184 55.1162 114.184 55.1162Z" fill="#F5F6FA"/>
<path d="M112.242 65.3699C113.07 64.2914 116.308 60.5741 116.308 60.5741C116.308 60.5741 116.279 59.4048 116.581 59.0433C116.882 58.6818 119.497 58.0358 119.756 58.2985C120.015 58.5612 120.065 62.1285 119.498 62.514C118.93 62.8995 116.581 63.1258 116.581 63.1258C116.581 63.1258 114.653 70.3708 112.242 70.3106C109.832 70.2504 110.951 67.0536 112.242 65.3699Z" fill="#B97964"/>
<path d="M86.0585 59.8579L89.776 62.3681L92.6564 58.0376C92.6564 58.0376 94.5026 59.4249 94.6619 59.3807C94.8213 59.3365 92.5713 66.0395 90.9081 66.4587C89.2449 66.8778 84.3354 63.6062 84.3354 63.6062L86.0585 59.8579Z" fill="#EBB376"/>
<path d="M92.1869 58.803C92.1869 58.803 91.6596 57.9365 91.8673 57.1238C92.075 56.3112 92.0246 55.607 92.2208 55.0136C92.417 54.4201 92.7402 55.1994 92.8284 55.6487C92.9164 56.0981 93.0208 56.6065 93.3476 56.4857C93.6744 56.3651 95.5963 54.0661 96.0684 53.9503C96.5406 53.8344 96.346 54.3035 96.346 54.3035C96.346 54.3035 96.8278 53.7578 97.096 53.8897C97.1657 53.924 97.2721 54.1167 97.0915 54.3998C96.6852 55.0368 95.7638 56.3297 95.7638 56.3297C95.8151 56.2544 97.0665 54.7398 97.2835 54.5374C97.5672 54.2729 97.8358 54.2928 97.9838 54.4623C98.1944 54.7035 96.7069 56.6343 96.7012 56.7595C96.7012 56.7595 97.5203 55.6194 97.9304 55.6697C98.3404 55.7201 97.8639 56.466 97.3188 57.0439C96.8191 57.5736 95.9776 58.7437 95.4173 59.2329C94.7271 59.8357 94.1281 60.0854 93.3457 59.7299C92.5633 59.3742 92.1869 58.803 92.1869 58.803Z" fill="#EBB376"/>
<path d="M76.3294 87.5694C74.0523 103.883 66.6564 114.245 66.6564 114.245L63.4038 113.248C63.4038 113.248 70.9798 101.632 70.227 85.6997L76.3294 87.5694Z" fill="#EBB376"/>
<path d="M83.4195 86.6602C84.6761 103.084 79.6618 114.786 79.6618 114.786L76.2715 114.506C76.2715 114.506 81.1941 101.541 77.0587 86.1357L83.4195 86.6602Z" fill="#EBB376"/>
<path d="M80.0329 113.329L76.5813 113.114C76.4613 113.101 76.3535 113.188 76.3406 113.308L76.3402 113.312L76.0016 116.035C75.983 116.332 76.2073 116.589 76.5047 116.612C77.7103 116.667 78.2886 116.634 79.8083 116.716C80.7406 116.772 82.5779 116.97 83.8646 116.846C85.151 116.721 84.9935 115.453 84.4379 115.392C83.1204 115.242 81.3755 114.274 80.551 113.539C80.4065 113.414 80.2242 113.34 80.0329 113.329Z" fill="#2C2C2C"/>
<path d="M81.0917 113.92C80.8151 113.896 80.5421 113.842 80.2774 113.758C80.2498 113.752 80.2292 113.729 80.2264 113.701C80.2239 113.673 80.2361 113.646 80.2587 113.629C80.3612 113.566 81.27 113.027 81.6384 113.196C81.7228 113.237 81.7805 113.317 81.7913 113.41C81.8331 113.553 81.7892 113.706 81.6785 113.805C81.5042 113.915 81.2948 113.956 81.0917 113.92ZM81.5775 113.34C81.3812 113.249 80.8538 113.474 80.4824 113.679C81.0256 113.822 81.4304 113.83 81.5847 113.697C81.6499 113.631 81.6753 113.535 81.6519 113.445C81.6474 113.399 81.6191 113.359 81.5775 113.34Z" fill="#6C757D"/>
<path d="M80.2929 113.761C80.2834 113.766 80.2725 113.767 80.2623 113.764C80.2423 113.75 80.2292 113.729 80.2266 113.705C80.2281 113.678 80.2134 112.779 80.5398 112.497C80.6271 112.425 80.7415 112.396 80.8525 112.417C80.9784 112.428 81.0801 112.525 81.0993 112.65C81.1472 112.988 80.6491 113.604 80.3317 113.766C80.3188 113.77 80.3045 113.768 80.2929 113.761ZM80.7918 112.564C80.734 112.56 80.6771 112.58 80.6348 112.62C80.4373 112.787 80.3839 113.291 80.3738 113.581C80.6525 113.373 80.9748 112.906 80.9556 112.681C80.9521 112.639 80.9285 112.587 80.8268 112.569L80.7918 112.564Z" fill="#6C757D"/>
<path d="M66.8505 113.329L63.399 113.114C63.2789 113.101 63.1712 113.188 63.1582 113.308L63.1578 113.312L62.8192 116.035C62.8006 116.332 63.0249 116.589 63.3223 116.612C64.5279 116.667 65.1062 116.634 66.6259 116.716C67.5583 116.772 69.3956 116.97 70.6821 116.846C71.9687 116.721 71.811 115.453 71.2555 115.392C69.938 115.242 68.1931 114.274 67.3687 113.539C67.2241 113.414 67.0418 113.34 66.8505 113.329Z" fill="#2C2C2C"/>
<path d="M67.9091 113.92C67.6326 113.896 67.3595 113.842 67.0948 113.758C67.0672 113.752 67.0466 113.729 67.0438 113.701C67.0413 113.673 67.0535 113.646 67.0761 113.629C67.1786 113.566 68.0874 113.027 68.4559 113.196C68.5402 113.237 68.5979 113.317 68.6087 113.41C68.6506 113.553 68.6066 113.706 68.496 113.805C68.3216 113.915 68.1122 113.956 67.9091 113.92ZM68.3949 113.34C68.1986 113.249 67.6712 113.474 67.2998 113.679C67.843 113.822 68.2478 113.83 68.4022 113.697C68.4673 113.631 68.4927 113.535 68.4692 113.445C68.4648 113.399 68.4365 113.359 68.3949 113.34Z" fill="#6C757D"/>
<path d="M67.1103 113.761C67.1008 113.766 67.0899 113.767 67.0797 113.764C67.0597 113.75 67.0466 113.729 67.0439 113.705C67.0455 113.678 67.0308 112.779 67.3572 112.497C67.4445 112.425 67.5589 112.396 67.6699 112.417C67.7958 112.428 67.8976 112.525 67.9167 112.65C67.9646 112.988 67.4665 113.604 67.1492 113.766C67.1362 113.77 67.1219 113.768 67.1103 113.761ZM67.6092 112.564C67.5514 112.56 67.4945 112.58 67.4523 112.62C67.2547 112.787 67.2013 113.291 67.1912 113.581C67.47 113.373 67.7922 112.906 67.7731 112.681C67.7695 112.639 67.7459 112.587 67.6442 112.569L67.6092 112.564Z" fill="#6C757D"/>
<path d="M66.1162 71.8442H77.0605C78.8071 71.8442 80.2229 70.4284 80.2229 68.6819V59.2819C80.2229 57.5353 78.8071 56.1195 77.0605 56.1195H66.1162C64.3697 56.1195 62.9538 57.5353 62.9538 59.2819V68.6819C62.9538 70.4284 64.3697 71.8442 66.1162 71.8442Z" fill="#2C2C2C"/>
<path d="M84.1763 57.4141C84.1763 57.4141 86.226 59.4923 88.5553 61.6218L86.4602 65.6066C86.4602 65.6066 81.2903 65.13 81.7826 61.8729C82.2748 58.6158 84.1763 57.4141 84.1763 57.4141Z" fill="#6C757D"/>
<path opacity="0.6" d="M84.1763 57.4141C84.1763 57.4141 86.226 59.4923 88.5553 61.6218L86.4602 65.6066C86.4602 65.6066 81.2903 65.13 81.7826 61.8729C82.2748 58.6158 84.1763 57.4141 84.1763 57.4141Z" fill="#F5F6FA"/>
<path d="M84.2196 73.4346C84.2196 73.4346 82.5752 62.4475 84.1763 57.4145C84.1763 57.4145 82.5234 55.6017 76.9794 55.1446C71.4355 54.6875 68.7686 55.863 68.7686 55.863C68.7686 55.863 67.1669 64.4654 67.3363 73.904L84.2196 73.4346Z" fill="#6C757D"/>
<path opacity="0.7" d="M84.2196 73.4346C84.2196 73.4346 82.5752 62.4475 84.1763 57.4145C84.1763 57.4145 82.5234 55.6017 76.9794 55.1446C71.4355 54.6875 68.7686 55.863 68.7686 55.863C68.7686 55.863 67.1669 64.4654 67.3363 73.904L84.2196 73.4346Z" fill="#F5F6FA"/>
<path d="M70.7261 55.0386C70.7261 55.0386 74.9071 57.2113 73.3381 63.2888C71.7691 69.3663 66.4158 70.2007 66.4158 70.2007L66.189 69.1577C66.189 69.1577 72.3797 67.9199 72.3612 62.6196C72.3428 57.3194 69.423 55.6413 69.423 55.6413C69.423 55.6413 69.8917 55.3131 70.7261 55.0386Z" fill="#2C2C2C"/>
<path d="M80.0881 55.607C81.4172 56.9023 81.5003 65.3228 84.1445 69.7175L84.4941 68.8449C84.4941 68.8449 82.8774 66.0772 82.7731 63.2889C82.6688 60.5008 82.4848 57.6948 81.7685 56.0469C81.7685 56.0469 80.9254 55.6531 80.6219 55.607C80.2228 55.5464 80.0881 55.607 80.0881 55.607Z" fill="#2C2C2C"/>
<path opacity="0.2" d="M81.3372 60.6845C81.3372 60.6845 81.7491 55.5927 75.7371 55.338C69.8599 55.089 73.0022 60.4379 73.0022 60.4379L74.5936 58.709L78.6279 60.3655L80.0594 59.3583L81.3372 60.6845Z" fill="#2C2C2C"/>
<path d="M81.6477 59.3573C81.6477 59.3573 80.7983 54.4712 75.6281 54.3019C70.4578 54.1326 72.2753 59.3508 72.2753 59.3508L74.3444 57.7793L78.7002 60.0739L80.2631 58.4659L81.6477 59.3573Z" fill="#6C757D"/>
<path opacity="0.6" d="M81.6477 59.3573C81.6477 59.3573 80.7983 54.4712 75.6281 54.3019C70.4578 54.1326 72.2753 59.3508 72.2753 59.3508L74.3444 57.7793L78.7002 60.0739L80.2631 58.4659L81.6477 59.3573Z" fill="#F5F6FA"/>
<path d="M85.1669 43.6224C85.1669 43.6224 86.6568 48.4265 86.0969 54.2991C86.0969 54.2991 86.6518 53.4964 72.3613 52.5229C72.3613 52.5229 71.3413 42.0927 76.8399 41.5364C82.3385 40.9801 85.1669 43.6224 85.1669 43.6224Z" fill="#2C2C2C"/>
<path d="M73.5918 56.0376L78.0053 58.3894L79.6399 56.8127C79.4185 56.5544 79.2603 56.3012 79.1496 56.0481C78.3323 54.2236 80.0882 52.6365 80.0882 52.6365L78.2585 51.951L74.2351 50.4429C75.7538 53.9389 73.5918 56.0376 73.5918 56.0376Z" fill="#EBB376"/>
<path opacity="0.2" d="M74.7939 51.9512C74.7939 51.9512 76.3917 55.7372 79.1495 56.0483C78.3322 54.2238 80.0881 52.6367 80.0881 52.6367L78.2584 51.9512H74.7939Z" fill="#2C2C2C"/>
<path d="M84.028 41.1255C84.028 41.1255 87.6094 45.5198 82.0707 48.3835C75.813 51.6189 84.028 41.1255 84.028 41.1255Z" fill="#2C2C2C"/>
<path d="M72.4496 44.8803C72.0216 48.2404 73.1518 52.2833 75.7995 53.3318C80.6559 55.2549 82.8212 54.684 84.128 51.0567C85.3215 47.7945 85.1977 42.2325 81.229 40.4122C77.2603 38.5919 73.0432 40.2195 72.4496 44.8803Z" fill="#EBB376"/>
<path d="M84.087 43.4319C84.087 43.4319 81.7628 43.8688 79.143 42.7458C79.143 42.7458 77.0626 42.6663 77.0437 45.0258C77.0248 47.3854 74.1411 48.0895 73.4358 51.0736C73.4358 51.0736 70.3768 50.0643 71.215 43.3829C71.8257 38.5144 76.3648 37.4932 80.6232 38.4374C84.1887 39.228 86.199 42.3159 84.087 43.4319Z" fill="#2C2C2C"/>
<path d="M79.8227 47.3545C79.7537 47.7781 79.924 48.163 80.2041 48.2038C80.4842 48.2445 80.7599 47.9371 80.8289 47.5135C80.8978 47.0899 80.7253 46.7107 80.4475 46.6642C80.1695 46.6178 79.8916 46.931 79.8227 47.3545Z" fill="#2C2C2C"/>
<path d="M83.2429 47.7314C83.177 48.1365 83.3399 48.5046 83.6077 48.5435C83.8755 48.5825 84.1392 48.2885 84.2051 47.8834C84.2711 47.4783 84.1061 47.1157 83.8404 47.0713C83.5745 47.0269 83.3088 47.3264 83.2429 47.7314Z" fill="#2C2C2C"/>
<path d="M81.3848 45.4187C81.42 45.3982 81.4488 45.3685 81.4681 45.3326C81.5022 45.2313 81.4499 45.1212 81.3498 45.0837C80.7682 44.8559 80.1119 44.928 79.5937 45.2766C79.5085 45.341 79.4915 45.4623 79.556 45.5476C79.6229 45.6285 79.7405 45.6449 79.827 45.5854C80.2456 45.3161 80.7696 45.2694 81.2291 45.4605C81.2845 45.4682 81.3407 45.4531 81.3848 45.4187Z" fill="#2C2C2C"/>
<path d="M80.0404 50.0429C80.0012 50.0319 79.9598 50.0319 79.9206 50.0429C79.8241 50.0888 79.7812 50.2029 79.8239 50.3009C80.0642 50.8774 80.5721 51.2993 81.183 51.4296C81.2885 51.4462 81.3875 51.374 81.404 51.2684C81.4156 51.1641 81.3457 51.0681 81.2428 51.0473C80.7583 50.9335 80.3605 50.5891 80.1786 50.1259C80.1457 50.0807 80.0957 50.0508 80.0404 50.0429Z" fill="#2C2C2C"/>
<path d="M84.6497 46.1188C84.6905 46.1176 84.7299 46.1051 84.764 46.0828C84.8423 46.0102 84.849 45.8884 84.7789 45.8077C84.3767 45.3299 83.7655 45.0799 83.1438 45.1389C83.0381 45.1548 82.9653 45.2533 82.9812 45.359C83.0014 45.4619 83.0969 45.5326 83.2013 45.5216C83.6977 45.4848 84.1805 45.6939 84.493 46.0811C84.5381 46.1144 84.5946 46.1279 84.6497 46.1188Z" fill="#2C2C2C"/>
<path d="M82.5001 48.1172L81.7683 49.8456C82.1819 50.0288 82.6805 50.0821 83.131 49.9911C82.7995 49.3837 82.5872 48.7533 82.5001 48.1172Z" fill="#D58745"/>
<path d="M75.7789 47.6394C75.7789 47.6394 75.2731 45.4345 74.1015 45.8855C72.9299 46.3366 72.5153 49.784 74.0825 50.0697C75.6497 50.3553 76.2871 48.8664 75.7789 47.6394Z" fill="#EBB376"/>
<path d="M71.3825 53.3768C71.2193 52.5975 71.0254 51.5373 71.0696 51.0735C71.0696 51.0735 70.6301 52.0276 70.4716 53.1743C69.7666 52.992 69.0345 52.7399 68.3621 52.3839C68.3621 52.3839 68.9179 40.0399 74.168 38.9108C79.4182 37.7816 82.2912 39.0191 82.2912 39.0191C82.2912 39.0191 86.2325 40.4945 86.0934 44.5966C86.0934 44.5966 83.6611 44.1788 80.8443 44.3179L80.2229 43.1308L80.0882 44.5966L75.7718 44.9525C75.7718 44.9525 74.794 47.4334 75.378 54.3395C75.378 54.3395 72.7564 53.6334 71.3825 53.3768Z" fill="#2C2C2C"/>
<path d="M84.0121 71.8452L84.2196 73.4349L67.3237 73.6491L67.325 72.3146L84.0121 71.8452Z" fill="#2C2C2C"/>
<path d="M84.2196 73.4351C86.0766 75.8528 88.1683 85.2628 87.7531 92.0312C87.7531 92.0312 85.1525 93.7218 76.5216 93.7218C69.423 93.7218 64.7561 92.2616 64.7561 92.2616C65.7197 86.7857 66.4783 74.2718 67.3238 73.6493L84.2196 73.4351Z" fill="#2C2C2C"/>
<path d="M80.6049 72.2714L80.6617 73.0766C80.6755 73.272 80.5259 73.4396 80.3301 73.4455C79.6318 73.4667 78.1504 73.5116 78.1314 73.5119C78.1146 73.5121 78.0636 72.8154 78.0328 72.3722C78.0193 72.1765 78.1712 72.0093 78.3673 72.0038L80.2511 71.9508C80.4359 71.9456 80.5919 72.087 80.6049 72.2714Z" fill="#F5F6FA"/>
<path d="M74.168 72.1216V73.9037L73.5164 73.8971V72.1283L74.168 72.1216Z" fill="#2C2C2C"/>
<path d="M82.291 71.8936L82.434 73.6491H83.0598L82.9034 71.8452L82.291 71.8936Z" fill="#2C2C2C"/>
<path d="M65.892 65.5889L64.7561 80.5989L67.3238 80.9591L69.9398 65.5889H65.892Z" fill="#EBB376"/>
<path d="M67.4422 79.8267C67.4422 79.8267 68.0005 80.6736 67.8223 81.4932C67.644 82.3128 67.7198 83.0147 67.5452 83.6149C67.3705 84.2151 67.0194 83.448 66.9151 83.0021C66.8109 82.5562 66.6882 82.0519 66.366 82.1843C66.0437 82.3167 64.2061 84.6836 63.7385 84.8164C63.2708 84.9492 63.4483 84.4734 63.4483 84.4734C63.4483 84.4734 62.9865 85.0362 62.7137 84.914C62.6429 84.8823 62.5296 84.6936 62.6998 84.4041C63.0828 83.7529 63.957 82.4276 63.957 82.4276C63.9084 82.5046 62.7125 84.0634 62.503 84.2736C62.229 84.5481 61.9599 84.5379 61.8059 84.3739C61.5867 84.1405 63.0034 82.1572 63.0047 82.0319C63.0047 82.0319 62.2272 83.2009 61.8157 83.1654C61.404 83.1298 61.8533 82.3672 62.3772 81.77C62.8574 81.2226 63.6561 80.0229 64.1984 79.5137C64.8664 78.8864 65.456 78.6152 66.2507 78.9422C67.0454 79.2694 67.4422 79.8267 67.4422 79.8267Z" fill="#EBB376"/>
<path d="M68.7688 55.8633C68.0418 56.1654 65.9983 57.103 65.1307 61.3849C64.2632 65.6668 64.7562 67.7634 64.7562 67.7634H71.9657L72.163 61.1627L68.7688 55.8633Z" fill="#6C757D"/>
<path opacity="0.6" d="M68.7688 55.8633C68.0418 56.1654 65.9983 57.103 65.1307 61.3849C64.2632 65.6668 64.7562 67.7634 64.7562 67.7634H71.9657L72.163 61.1627L68.7688 55.8633Z" fill="#F5F6FA"/>
</g>
</svg>
