<svg width="157" height="300" viewBox="0 0 157 300" fill="none" xmlns="http://www.w3.org/2000/svg">
<path d="M150.013 71.2912H148.36V26.1351C148.36 22.703 147.682 19.3045 146.365 16.1337C145.048 12.9628 143.118 10.0817 140.684 7.65482C138.25 5.22795 135.361 3.30284 132.181 1.98942C129.001 0.676007 125.593 3.1318e-06 122.151 0H26.2095C22.7676 -7.04639e-06 19.3595 0.675998 16.1796 1.9894C12.9997 3.30281 10.1104 5.2279 7.6766 7.65477C5.24282 10.0816 3.31225 12.9627 1.99509 16.1336C0.677937 19.3044 6.28132e-06 22.7029 0 26.1351V273.865C-3.14065e-06 277.297 0.677918 280.695 1.99506 283.866C3.31221 287.037 5.24277 289.918 7.67655 292.345C10.1103 294.772 12.9996 296.697 16.1795 298.011C19.3594 299.324 22.7676 300 26.2094 300H122.151C129.102 300 135.769 297.247 140.684 292.345C145.599 287.444 148.36 280.796 148.36 273.865V103.434H150.013V71.2912Z" fill="#2C2C2C"/>
<path d="M120.79 6.80078H108.267C108.843 8.20876 109.063 9.73635 108.907 11.249C108.751 12.7617 108.225 14.2129 107.375 15.475C106.524 16.7371 105.375 17.7712 104.029 18.4862C102.684 19.2013 101.182 19.5754 99.6572 19.5755H44.6936C43.1687 19.5754 41.6672 19.2013 40.3214 18.4863C38.9756 17.7712 37.8268 16.7371 36.9762 15.475C36.1257 14.213 35.5994 12.7617 35.4438 11.249C35.2882 9.73635 35.508 8.20876 36.0839 6.80078H24.3869C19.1959 6.80078 14.2174 8.85706 10.5468 12.5173C6.87613 16.1775 4.81398 21.1418 4.81396 26.3181V273.684C4.81396 276.248 5.32023 278.786 6.30386 281.153C7.28749 283.521 8.72922 285.673 10.5467 287.485C12.3643 289.298 14.522 290.735 16.8967 291.716C19.2713 292.697 21.8165 293.202 24.3869 293.202H120.79C123.361 293.202 125.906 292.697 128.281 291.716C130.655 290.735 132.813 289.298 134.631 287.485C136.448 285.673 137.89 283.521 138.873 281.154C139.857 278.786 140.363 276.248 140.363 273.684V26.3182C140.363 23.7551 139.857 21.2171 138.873 18.8492C137.89 16.4812 136.448 14.3296 134.631 12.5173C132.813 10.7049 130.655 9.26727 128.281 8.28643C125.906 7.3056 123.361 6.80078 120.79 6.80078Z" fill="#FDFCFB"/>
<path d="M93.2421 76.1006H51.9336V86.0404H93.2421V76.1006Z" fill="#F4A261"/>
<path d="M95.2086 118.81H49.9668V128.749H95.2086V118.81Z" fill="#1D3557"/>
<path d="M123.075 140.161H22.0996V150.101H123.075V140.161Z" fill="#1D3557"/>
<path d="M123.075 161.516H22.0996V171.455H123.075V161.516Z" fill="#1D3557"/>
<path d="M93.2421 208.838H51.9336V223.9H93.2421V208.838Z" fill="#F4A261"/>
<path d="M142.353 25.9732V274.445C142.355 277.018 141.849 279.565 140.864 281.943C139.878 284.32 138.432 286.481 136.609 288.301C134.786 290.122 132.62 291.567 130.237 292.553C127.853 293.54 125.298 294.049 122.717 294.051H25.7999C23.2185 294.053 20.662 293.548 18.2764 292.565C15.8908 291.582 13.7228 290.141 11.8962 288.323C10.0696 286.505 8.62012 284.346 7.63056 281.97C6.64101 279.593 6.13075 277.046 6.12891 274.473V25.9732C6.12707 23.4004 6.63369 20.8525 7.61985 18.4748C8.60601 16.0971 10.0524 13.9363 11.8764 12.1158C13.7004 10.2953 15.8664 8.85061 18.2505 7.86434C20.6347 6.87808 23.1905 6.36952 25.7719 6.36768H37.5521C36.9733 7.78191 36.7523 9.31633 36.9087 10.8357C37.0651 12.3551 37.594 13.8129 38.4489 15.0805C39.3038 16.3481 40.4584 17.3867 41.811 18.1048C43.1636 18.8228 44.6726 19.1983 46.2051 19.198H101.445C102.977 19.1983 104.486 18.8228 105.839 18.1048C107.191 17.3867 108.346 16.3481 109.201 15.0805C110.056 13.8129 110.585 12.3551 110.741 10.8357C110.897 9.31633 110.676 7.78191 110.097 6.36768H122.682C125.263 6.36536 127.819 6.86971 130.204 7.85194C132.59 8.83417 134.757 10.275 136.584 12.0923C138.411 13.9095 139.86 16.0676 140.85 18.4432C141.84 20.8188 142.351 23.3655 142.353 25.9378V25.9732Z" fill="#FDFCFB"/>
<path d="M142.351 62.7337V54.272H129.499V7.57796C127.316 6.77453 125.007 6.36471 122.68 6.3677H121.008V54.272H76.4265V19.198H67.935V54.272H30.572V6.3677H25.7999C24.5517 6.36581 23.3062 6.48348 22.0805 6.71909V54.272H6.12891V62.7356H22.0802V82.3117L6.12891 91.4901V101.265L22.0802 92.087V150.33H6.12891V158.793H22.0802V243.004H6.12891V251.467H22.0802V293.699C23.3058 293.935 24.5513 294.052 25.7995 294.051H30.5716V251.467H67.9347V294.051H76.4265V251.467H121.008V294.051H122.68C125.007 294.054 127.316 293.644 129.499 292.84V251.467H142.351V243.004H129.499V206.188H142.236V197.725H129.499V158.793H142.351V150.33H129.499V98.7031H142.351V90.2406H129.499V62.7337H142.351ZM56.1018 62.7337L30.572 77.4261V62.7337H56.1018ZM30.5716 87.1973L67.935 65.696V150.33H30.572L30.5716 87.1973ZM30.5716 243.004V158.793H67.9347V243.004H30.5716ZM121.007 243.004H76.4265V206.188H121.008L121.007 243.004ZM121.007 197.725H76.4265V158.793H121.008L121.007 197.725ZM121.007 150.33H76.4265V98.7031H121.008L121.007 150.33ZM121.007 90.2399H76.4265V62.7337H121.008L121.007 90.2399Z" fill="#1D3557"/>
<rect x="82" y="199" width="46" height="6" fill="#F4A261"/>
<rect x="128" y="156" width="48" height="6" transform="rotate(90 128 156)" fill="#F4A261"/>
<path d="M156.329 83.2894C156.329 100.038 125.928 137.347 125.928 137.347C125.928 137.347 95.5259 100.038 95.5259 83.2894C95.5559 75.2664 98.7722 67.5822 104.47 61.9196C110.168 56.2571 117.884 53.0776 125.927 53.0776C133.971 53.0776 141.686 56.2571 147.385 61.9196C153.083 67.5822 156.299 75.2664 156.329 83.2894H156.329Z" fill="#F4A261"/>
<path d="M143.905 81.9714C143.905 85.5178 142.851 88.9847 140.875 91.9335C138.9 94.8822 136.093 97.1805 132.808 98.5377C129.523 99.8949 125.908 100.25 122.421 99.5581C118.934 98.8662 115.731 97.1584 113.217 94.6507C110.703 92.143 108.991 88.9479 108.297 85.4696C107.603 81.9912 107.959 78.3859 109.32 75.1093C110.681 71.8328 112.985 69.0323 115.941 67.062C118.897 65.0917 122.373 64.04 125.928 64.04C128.288 64.0389 130.625 64.5014 132.805 65.4011C134.986 66.3008 136.967 67.6201 138.636 69.2837C140.306 70.9472 141.63 72.9225 142.534 75.0966C143.438 77.2707 143.904 79.6012 143.905 81.9549V81.9714Z" fill="#FDFCFB"/>
<path d="M125.927 159.234C130.453 159.234 134.122 155.574 134.122 151.059C134.122 146.545 130.453 142.885 125.927 142.885C121.401 142.885 117.732 146.545 117.732 151.059C117.732 155.574 121.401 159.234 125.927 159.234Z" fill="#F4A261"/>
</svg>
