<svg width="100" height="100" viewBox="0 0 100 100" fill="none" xmlns="http://www.w3.org/2000/svg">
<rect width="100" height="100" rx="25" fill="#1D3557"/>
<g clip-path="url(#clip0_1_2586)">
<path d="M50.0011 55.9989C61.0462 55.9989 70 47.0451 70 36C70 24.955 61.0462 16.0012 50.0011 16.0012C38.9561 16.0012 30.0023 24.955 30.0023 36C30.0023 47.0451 38.9561 55.9989 50.0011 55.9989Z" fill="#F5F6FA"/>
<path d="M32.7423 25.8947C31.243 28.4507 30.2968 31.368 30.0631 34.4858H40.5315C40.7061 34.4858 40.8473 34.627 40.8473 34.8016C40.8473 34.9763 40.7061 35.1174 40.5315 35.1174H30.0221C30.0098 35.4098 30 35.7031 30 35.9988C30 36.1526 30.0085 36.3048 30.0116 36.4576H40.5315C40.7061 36.4576 40.8473 36.5988 40.8473 36.7734C40.8473 36.9481 40.7061 37.0893 40.5315 37.0893H30.031C30.0537 37.5171 30.0944 37.9406 30.1437 38.3613H40.5316C40.7062 38.3613 40.8474 38.5024 40.8474 38.6771C40.8474 38.8517 40.7062 38.9929 40.5316 38.9929H30.2239C30.349 39.824 30.5292 40.6365 30.7531 41.431H42.6391L43.2564 42.9323H54.6959C55.5255 42.9323 56.5789 41.8102 56.5789 40.981C56.5789 40.981 57.3491 40.2184 57.6207 37.9068C57.6207 31.8553 56.1971 25.4827 56.1971 25.4827L56.0341 25.8948L32.7423 25.8947Z" fill="#F4A261"/>
<path d="M66.0516 39.72C66.0516 41.5225 64.5905 42.9836 62.7883 42.9836H57.7196C55.9167 42.9836 54.4562 41.5225 54.4562 39.72V36.0932C54.4562 34.291 55.3647 32.8753 57.1669 32.8753L62.7883 34.1448C64.601 34.6889 66.0517 35.1421 66.0517 37.4084V39.72H66.0516Z" fill="#F4A261"/>
<path d="M55.7847 44.2983H43.8177L42.0957 43.0286L43.0929 39.5839H55.7847V44.2983Z" fill="#F4A261"/>
<path d="M65.8705 40.8C65.8705 41.6289 65.2038 42.9325 64.3749 42.9325H61.5413C60.7124 42.9325 60.0401 42.2605 60.0401 41.4313H65.0545L65.8705 40.8Z" fill="#343433"/>
<path d="M64.3796 41.363L62.9011 41.465L56.5323 44.2983H55.1952L55.0064 43.882C54.3107 41.2938 55.8445 38.6317 58.4333 37.9361C61.0225 37.2401 63.684 38.7745 64.3796 41.363Z" fill="#F4A261"/>
<path d="M59.598 46.301C61.5269 46.301 63.0906 44.7373 63.0906 42.8084C63.0906 40.8795 61.5269 39.3158 59.598 39.3158C57.669 39.3158 56.1053 40.8795 56.1053 42.8084C56.1053 44.7373 57.669 46.301 59.598 46.301Z" fill="#202121"/>
<path d="M59.598 44.4129C60.4841 44.4129 61.2025 43.6945 61.2025 42.8084C61.2025 41.9222 60.4841 41.2039 59.598 41.2039C58.7118 41.2039 57.9934 41.9222 57.9934 42.8084C57.9934 43.6945 58.7118 44.4129 59.598 44.4129Z" fill="#5E5F5E"/>
<path d="M54.647 42.9325H44.1736V30.2419C44.1736 29.3242 44.8661 28.5799 45.721 28.5799H53.0994C53.9536 28.5799 54.6468 29.324 54.6468 30.2419V42.9325H54.647Z" fill="#343433"/>
<path d="M54.2393 42.9325H44.5812V31.2306C44.5812 30.384 45.2194 29.6981 46.0086 29.6981H52.8123C53.6005 29.6981 54.2396 30.384 54.2396 31.2306V42.9325H54.2393Z" fill="#B1D4D7"/>
<path d="M49.4228 29.0211H49.1422V42.9284H49.4228V29.0211Z" fill="#343433"/>
<path d="M33.1882 29.3473C33.1882 28.8376 33.6016 28.4242 34.111 28.4242H39.8785C40.3879 28.4242 40.8013 28.8376 40.8013 29.3473V31.8783C40.8013 32.3879 40.388 32.8013 39.8785 32.8013H34.111C33.6016 32.8013 33.1882 32.3879 33.1882 31.8783V29.3473Z" fill="#B1D4D7"/>
<path d="M40.6453 30.2021H33.3695V30.8337H40.6453V30.2021Z" fill="#D3E8E9"/>
<path d="M57.2904 32.8525C57.2904 32.9497 56.5515 32.9305 56.0222 32.3122C55.7292 31.9708 55.8404 29.5844 55.9648 26.6005C55.9985 25.7845 56.1965 25.483 56.1965 25.483C56.1965 25.483 57.2904 28.3911 57.2904 32.8525Z" fill="#343433"/>
<path d="M57.3034 32.1271C57.3034 32.2181 56.7145 32.1385 56.3406 31.5606C55.9667 30.983 56.1931 25.2069 56.1931 25.2069C56.1931 25.2069 57.3034 27.9559 57.3034 32.1271Z" fill="#B1D4D7"/>
<path d="M43.8177 44.2983L43.2565 42.9325H41.9595C42.0758 43.0487 43.8177 44.2983 43.8177 44.2983Z" fill="#343433"/>
<path d="M43.2565 42.9325L42.6392 41.4313H30.7531C30.8962 41.9394 31.0547 42.4415 31.236 42.9325H41.9592H43.2565Z" fill="#343433"/>
<path d="M40.8473 36.7737C40.8473 36.5991 40.7061 36.4579 40.5315 36.4579H30.0116C30.0167 36.6689 30.0196 36.8801 30.0309 37.0895H40.5315C40.7059 37.0895 40.8473 36.948 40.8473 36.7737Z" fill="#343433"/>
<path d="M40.8473 34.8016C40.8473 34.6269 40.7061 34.4857 40.5315 34.4857H30.0629C30.0474 34.6957 30.0313 34.9054 30.0221 35.1174H40.5312C40.7059 35.1174 40.8473 34.9763 40.8473 34.8016Z" fill="#343433"/>
<path d="M40.8473 38.6772C40.8473 38.5026 40.7061 38.3614 40.5315 38.3614H30.1437C30.1684 38.5727 30.1923 38.784 30.2239 38.993H40.5316C40.7059 38.993 40.8473 38.8519 40.8473 38.6772Z" fill="#343433"/>
<path d="M56.034 25.8947L56.1969 25.4826C56.1969 24.6537 55.5252 23.9817 54.6957 23.9817H34.0133C33.5532 24.5927 33.1307 25.2321 32.7422 25.8947H56.034Z" fill="#F6DA66"/>
</g>
<path d="M19.2133 81.168C17.5333 81.168 16.1493 80.792 15.0613 80.04C13.9893 79.272 13.4533 78.2 13.4533 76.824C13.4533 76.68 13.4693 76.464 13.5013 76.176H16.9333C16.8693 76.848 17.0453 77.4 17.4613 77.832C17.8933 78.264 18.5173 78.48 19.3333 78.48C20.1493 78.48 20.7893 78.312 21.2533 77.976C21.7333 77.624 21.9733 77.128 21.9733 76.488C21.9733 75.896 21.7253 75.424 21.2293 75.072C20.7493 74.72 19.9893 74.328 18.9493 73.896C17.9893 73.496 17.2053 73.128 16.5973 72.792C16.0053 72.456 15.4933 71.992 15.0613 71.4C14.6453 70.792 14.4373 70.032 14.4373 69.12C14.4373 68.08 14.7013 67.176 15.2293 66.408C15.7733 65.64 16.5093 65.048 17.4373 64.632C18.3813 64.216 19.4533 64.008 20.6533 64.008C21.8373 64.008 22.8613 64.208 23.7253 64.608C24.6053 64.992 25.2613 65.544 25.6933 66.264C26.1413 66.984 26.3333 67.824 26.2693 68.784H22.6933L22.7173 68.52C22.7173 67.992 22.5173 67.56 22.1173 67.224C21.7333 66.888 21.1893 66.72 20.4853 66.72C19.7333 66.72 19.1253 66.896 18.6613 67.248C18.1973 67.6 17.9653 68.08 17.9653 68.688C17.9653 69.088 18.0933 69.44 18.3493 69.744C18.6213 70.032 18.9493 70.288 19.3333 70.512C19.7173 70.72 20.2693 70.992 20.9893 71.328C21.9333 71.744 22.7093 72.136 23.3173 72.504C23.9253 72.872 24.4453 73.36 24.8773 73.968C25.3093 74.576 25.5253 75.32 25.5253 76.2C25.5253 77.16 25.2613 78.016 24.7333 78.768C24.2213 79.52 23.4853 80.112 22.5253 80.544C21.5813 80.96 20.4773 81.168 19.2133 81.168ZM37.8498 77.808H31.1538L29.4978 81H25.9697L34.9698 64.224H38.8818L41.9298 81H38.3778L37.8498 77.808ZM37.4178 75.192L36.2178 68.088L32.5218 75.192H37.4178ZM57.0014 64.248L56.5214 66.888H49.5614L48.7934 71.28H54.1214L53.6654 73.872H48.3134L47.0654 81H43.6814L46.6574 64.248H57.0014ZM66.756 77.808H60.06L58.404 81H54.876L63.876 64.224H67.788L70.836 81H67.284L66.756 77.808ZM66.324 75.192L65.124 68.088L61.428 75.192H66.324ZM81.8517 64.248C83.5637 64.248 84.8597 64.64 85.7397 65.424C86.6197 66.192 87.0597 67.2 87.0597 68.448C87.0597 68.752 87.0357 69.064 86.9877 69.384C86.7957 70.472 86.2997 71.464 85.4997 72.36C84.7157 73.24 83.6597 73.856 82.3317 74.208L85.1397 81H81.2277L78.7317 74.472H77.1237L75.9717 81H72.5877L75.5637 64.248H81.8517ZM83.5317 69.456C83.5637 69.168 83.5797 68.976 83.5797 68.88C83.5797 68.272 83.3877 67.8 83.0037 67.464C82.6197 67.128 82.0357 66.96 81.2517 66.96H78.4437L77.5557 71.976H80.3637C81.2597 71.976 81.9717 71.752 82.4997 71.304C83.0437 70.856 83.3877 70.24 83.5317 69.456Z" fill="#FDFCFB"/>
<defs>
<clipPath id="clip0_1_2586">
<rect width="40" height="40" fill="white" transform="translate(30 16)"/>
</clipPath>
</defs>
</svg>
