<svg width="40" height="40" viewBox="0 0 40 40" fill="none" xmlns="http://www.w3.org/2000/svg">
<g clip-path="url(#clip0_107_677)">
<path d="M20.0011 39.9987C31.0461 39.9987 39.9999 31.0449 39.9999 19.9998C39.9999 8.95477 31.0461 0.000976562 20.0011 0.000976562C8.95599 0.000976562 0.00219727 8.95477 0.00219727 19.9998C0.00219727 31.0449 8.95599 39.9987 20.0011 39.9987Z" fill="#F5F6FA"/>
<path d="M2.74233 9.89493C1.24297 12.4509 0.296818 15.3682 0.0631275 18.486H10.5315C10.7061 18.486 10.8473 18.6272 10.8473 18.8018C10.8473 18.9764 10.7061 19.1176 10.5315 19.1176H0.0221115C0.00978983 19.41 0 19.7033 0 19.999C0 20.1527 0.00852391 20.305 0.0116465 20.4578H10.5315C10.7061 20.4578 10.8473 20.599 10.8473 20.7736C10.8473 20.9482 10.7061 21.0894 10.5315 21.0894H0.030973C0.0536753 21.5173 0.0944381 21.9408 0.143725 22.3614H10.5316C10.7062 22.3614 10.8474 22.5026 10.8474 22.6772C10.8474 22.8519 10.7062 22.9931 10.5316 22.9931H0.2239C0.348974 23.8242 0.529242 24.6367 0.753142 25.4312H12.6391L13.2564 26.9324H24.6959C25.5255 26.9324 26.5789 25.8104 26.5789 24.9811C26.5789 24.9811 27.3491 24.2186 27.6207 21.907C27.6207 15.8555 26.1971 9.48291 26.1971 9.48291L26.0341 9.89501L2.74233 9.89493Z" fill="#F4A261"/>
<path d="M36.0518 23.7202C36.0518 25.5227 34.5906 26.9838 32.7884 26.9838H27.7197C25.9168 26.9838 24.4563 25.5227 24.4563 23.7202V20.0934C24.4563 18.2912 25.3648 16.8755 27.1671 16.8755L32.7885 18.145C34.6011 18.6891 36.0519 19.1423 36.0519 21.4086V23.7202H36.0518Z" fill="#F4A261"/>
<path d="M25.7848 28.2984H13.8177L12.0957 27.0287L13.0929 23.584H25.7848V28.2984Z" fill="#F4A261"/>
<path d="M35.8704 24.7998C35.8704 25.6287 35.2038 26.9323 34.3748 26.9323H31.5413C30.7123 26.9323 30.04 26.2603 30.04 25.4311H35.0545L35.8704 24.7998Z" fill="#343433"/>
<path d="M34.3797 25.3631L32.9012 25.4652L26.5324 28.2984H25.1953L25.0064 27.8822C24.3108 25.2939 25.8446 22.6319 28.4334 21.9362C31.0225 21.2403 33.684 22.7747 34.3797 25.3631Z" fill="#F4A261"/>
<path d="M29.5981 30.3011C31.527 30.3011 33.0907 28.7374 33.0907 26.8085C33.0907 24.8796 31.527 23.3159 29.5981 23.3159C27.6692 23.3159 26.1055 24.8796 26.1055 26.8085C26.1055 28.7374 27.6692 30.3011 29.5981 30.3011Z" fill="#202121"/>
<path d="M29.5979 28.4127C30.4841 28.4127 31.2024 27.6943 31.2024 26.8081C31.2024 25.922 30.4841 25.2036 29.5979 25.2036C28.7118 25.2036 27.9934 25.922 27.9934 26.8081C27.9934 27.6943 28.7118 28.4127 29.5979 28.4127Z" fill="#5E5F5E"/>
<path d="M24.647 26.9327H14.1736V14.2421C14.1736 13.3244 14.8661 12.5801 15.721 12.5801H23.0994C23.9536 12.5801 24.6468 13.3241 24.6468 14.2421V26.9327H24.647Z" fill="#343433"/>
<path d="M24.2394 26.9327H14.5813V15.2308C14.5813 14.3841 15.2195 13.6982 16.0087 13.6982H22.8124C23.6006 13.6982 24.2397 14.3841 24.2397 15.2308V26.9327H24.2394Z" fill="#B1D4D7"/>
<path d="M19.4228 13.021H19.1421V26.9283H19.4228V13.021Z" fill="#343433"/>
<path d="M3.18823 13.3473C3.18823 12.8377 3.6016 12.4243 4.11101 12.4243H9.87857C10.3879 12.4243 10.8013 12.8377 10.8013 13.3473V15.8784C10.8013 16.388 10.388 16.8014 9.87857 16.8014H4.11101C3.6016 16.8014 3.18823 16.388 3.18823 15.8784V13.3473Z" fill="#B1D4D7"/>
<path d="M10.6452 14.2021H3.36938V14.8338H10.6452V14.2021Z" fill="#D3E8E9"/>
<path d="M27.2905 16.8525C27.2905 16.9497 26.5516 16.9304 26.0223 16.3122C25.7293 15.9708 25.8405 13.5843 25.9649 10.6005C25.9986 9.78445 26.1966 9.48291 26.1966 9.48291C26.1966 9.48291 27.2905 12.391 27.2905 16.8525Z" fill="#343433"/>
<path d="M27.3035 16.1273C27.3035 16.2182 26.7146 16.1387 26.3406 15.5607C25.9668 14.9831 26.1932 9.20703 26.1932 9.20703C26.1932 9.20703 27.3035 11.956 27.3035 16.1273Z" fill="#B1D4D7"/>
<path d="M13.8178 28.2984L13.2567 26.9326H11.9597C12.0759 27.0488 13.8178 28.2984 13.8178 28.2984Z" fill="#343433"/>
<path d="M13.2566 26.9324L12.6392 25.4312H0.753174C0.896224 25.9393 1.05472 26.4414 1.236 26.9324H11.9592H13.2566Z" fill="#343433"/>
<path d="M10.8474 20.7738C10.8474 20.5992 10.7062 20.458 10.5316 20.458H0.0117188C0.0167825 20.669 0.0196519 20.8802 0.0309608 21.0896H10.5316C10.7059 21.0896 10.8474 20.9481 10.8474 20.7738Z" fill="#343433"/>
<path d="M10.8474 18.8016C10.8474 18.627 10.7062 18.4858 10.5316 18.4858H0.0629796C0.0475353 18.6958 0.0314159 18.9055 0.0222168 19.1175H10.5314C10.706 19.1175 10.8474 18.9763 10.8474 18.8016Z" fill="#343433"/>
<path d="M10.8474 22.6771C10.8474 22.5025 10.7062 22.3613 10.5316 22.3613H0.143799C0.168442 22.5726 0.19241 22.7839 0.223974 22.9929H10.5317C10.7059 22.9929 10.8474 22.8518 10.8474 22.6771Z" fill="#343433"/>
<path d="M26.0339 9.89451L26.1969 9.48241C26.1969 8.65348 25.5252 7.98145 24.6956 7.98145H4.01326C3.55314 8.59247 3.13066 9.23193 2.74219 9.89451H26.0339Z" fill="#F6DA66"/>
</g>
<defs>
<clipPath id="clip0_107_677">
<rect width="40" height="40" fill="white"/>
</clipPath>
</defs>
</svg>
