<svg width="39" height="40" viewBox="0 0 39 40" fill="none" xmlns="http://www.w3.org/2000/svg">
<path fill-rule="evenodd" clip-rule="evenodd" d="M8.10606 20.0523C8.10606 18.782 8.31703 17.5643 8.69356 16.422L2.10288 11.3892C0.818389 13.9972 0.094696 16.9358 0.094696 20.0523C0.094696 23.166 0.817499 26.1029 2.10021 28.7092L8.68733 23.6665C8.31436 22.5296 8.10606 21.3163 8.10606 20.0523Z" fill="#FBBC05"/>
<path fill-rule="evenodd" clip-rule="evenodd" d="M19.678 8.49683C22.4375 8.49683 24.9299 9.4746 26.8883 11.0746L32.5852 5.38572C29.1136 2.36349 24.6629 0.496826 19.678 0.496826C11.939 0.496826 5.28784 4.9226 2.10287 11.3893L8.69356 16.4222C10.2122 11.8124 14.541 8.49683 19.678 8.49683Z" fill="#EB4335"/>
<path fill-rule="evenodd" clip-rule="evenodd" d="M19.678 31.6079C14.541 31.6079 10.2122 28.2924 8.69356 23.6826L2.10287 28.7146C5.28784 35.1822 11.939 39.608 19.678 39.608C24.4546 39.608 29.0148 37.912 32.4375 34.7342L26.1815 29.8977C24.4163 31.0097 22.1936 31.6079 19.678 31.6079Z" fill="#34A853"/>
<path fill-rule="evenodd" clip-rule="evenodd" d="M38.3712 20.0524C38.3712 18.8968 38.1932 17.6524 37.9261 16.4968H19.678V24.0524H30.1818C29.6566 26.6284 28.227 28.6088 26.1815 29.8977L32.4375 34.7342C36.0328 31.3973 38.3712 26.4266 38.3712 20.0524Z" fill="#4285F4"/>
</svg>
